<?xml version="1.0" standalone="no"?>
<!DOCTYPE svg PUBLIC "-//W3C//DTD SVG 1.1//EN" "http://www.w3.org/Graphics/SVG/1.1/DTD/svg11.dtd" >
<svg xmlns="http://www.w3.org/2000/svg">
<metadata></metadata>
<defs>
<font id="amaranthregular" horiz-adv-x="1370" >
<font-face units-per-em="2048" ascent="1536" descent="-512" />
<missing-glyph horiz-adv-x="450" />
<glyph horiz-adv-x="2048" />
<glyph horiz-adv-x="2048" />
<glyph unicode="&#xd;" horiz-adv-x="2048" />
<glyph unicode=" "  horiz-adv-x="450" />
<glyph unicode="&#x09;" horiz-adv-x="450" />
<glyph unicode="&#xa0;" horiz-adv-x="450" />
<glyph unicode="!" horiz-adv-x="667" d="M43 147q0 85 56 143t149 58q92 0 138 -45.5t46 -128.5q0 -84 -57 -142.5t-150 -58.5q-91 0 -136.5 47t-45.5 127zM145 453l172 917h342l-229 -917h-285z" />
<glyph unicode="&#x22;" horiz-adv-x="903" d="M147 844l80 526h285l-117 -526h-248zM535 844l79 526h285l-117 -526h-247z" />
<glyph unicode="#" horiz-adv-x="1308" d="M25 258l75 236h193l72 227h-207l75 231h205l80 256h264l-80 -256h115l82 256h264l-82 -256h181l-72 -231h-180l-72 -227h192l-73 -234h-193l-80 -260h-264l80 258h-115l-82 -258h-264l82 258h-196zM557 494h117l71 227h-116z" />
<glyph unicode="$" horiz-adv-x="1093" d="M4 291l238 119q26 -66 76 -101t100 -35q65 0 107 32t42 79q0 80 -84 135l-110 76q-66 46 -104.5 85t-62.5 94.5t-24 125.5q0 133 88.5 222.5t237.5 117.5l41 180h242l-35 -178q177 -41 229 -229l-233 -121q-5 7 -14 26t-16.5 30.5t-20 25t-30 20t-40.5 6.5 q-52 0 -84.5 -22.5t-32.5 -60.5q0 -58 94 -121l133 -97q85 -62 121.5 -129t36.5 -165q0 -149 -105 -248.5t-268 -128.5l-37 -199h-239l29 205q-103 28 -173.5 97t-101.5 159z" />
<glyph unicode="%" horiz-adv-x="1849" d="M96 723q0 208 112 347.5t290 139.5q260 0 260 -266q0 -208 -111.5 -347.5t-288.5 -139.5q-132 0 -197 68t-65 198zM342 723q0 -70 45 -70q32 0 62 50.5t46.5 117.5t16.5 123q0 70 -45 70q-32 0 -62 -50.5t-46.5 -117.5t-16.5 -123zM367 0l768 1202h307l-770 -1202h-305z M1051 260q0 207 112 346t289 139q260 0 260 -266q0 -207 -112 -346t-289 -139q-130 0 -195 68.5t-65 197.5zM1296 258q0 -68 45 -68q32 0 62 50t46.5 117t16.5 124q0 70 -47 70q-32 0 -61.5 -50.5t-45.5 -118t-16 -124.5z" />
<glyph unicode="&#x26;" horiz-adv-x="1153" d="M-6 295q0 163 70.5 266.5t209.5 179.5q-12 53 -12 103q0 157 114.5 266t305.5 109q109 0 173.5 -48t109.5 -143l-164 -121q-37 72 -107 72q-55 0 -91 -31t-36 -86q0 -135 187 -348q61 81 127 178l204 -143q-76 -144 -147 -236q56 -62 133 -139l-197 -201q-64 61 -137 138 q-181 -134 -401 -134q-147 0 -244.5 84t-97.5 234zM319 350q0 -51 29 -76.5t74 -25.5q60 0 131 55q-110 120 -172 215q-62 -77 -62 -168z" />
<glyph unicode="'" horiz-adv-x="516" d="M147 844l80 526h285l-117 -526h-248z" />
<glyph unicode="(" horiz-adv-x="802" d="M96 299q0 351 177 667.5t483 520.5l139 -199q-223 -160 -355 -420t-132 -551q0 -104 15 -187t46 -147.5t56.5 -102t68.5 -91.5l-188 -170q-54 45 -102 102t-98 141t-80 197.5t-30 239.5z" />
<glyph unicode=")" horiz-adv-x="796" d="M-98 -184q223 161 355 421t132 549q0 105 -15 188.5t-46 148t-56.5 102.5t-68.5 90l188 172q41 -35 79.5 -76.5t82 -106t74.5 -135t52 -166t21 -196.5q0 -353 -176.5 -669.5t-482.5 -518.5z" />
<glyph unicode="*" horiz-adv-x="974" d="M147 1028l103 250l188 -109l31 224l272 -27l-61 -188l217 100l74 -260l-242 -68l145 -172l-233 -147l-109 186l-167 -184l-203 178l184 141z" />
<glyph unicode="+" horiz-adv-x="1079" d="M96 487l47 250h275l53 285h266l-53 -285h279l-45 -250h-279l-53 -299h-269l56 299h-277z" />
<glyph unicode="," horiz-adv-x="573" d="M-123 -129q57 36 93.5 72t53 72.5t22 66.5t5.5 70q0 53 -10 145q7 5 20 12t58.5 19t95.5 12q154 0 154 -145t-111 -279.5t-274 -218.5z" />
<glyph unicode="-" horiz-adv-x="829" d="M82 530l47 240h619l-46 -240h-620z" />
<glyph unicode="." horiz-adv-x="552" d="M-10 147q0 85 56.5 143t150.5 58q91 0 136.5 -45.5t45.5 -128.5q0 -84 -57.5 -142.5t-151.5 -58.5q-89 0 -134.5 47t-45.5 127z" />
<glyph unicode="/" horiz-adv-x="948" d="M-211 -258l954 1751h332l-960 -1751h-326z" />
<glyph unicode="0" horiz-adv-x="1163" d="M59 369q0 182 41 347.5t118 298t200.5 211.5t277.5 79q194 0 294 -104.5t100 -297.5q0 -182 -41 -347.5t-118 -298t-200.5 -211.5t-277.5 -79q-195 0 -294.5 104.5t-99.5 297.5zM395 403q0 -188 88 -188q62 0 115.5 62t87 159t52 210t18.5 222q0 189 -90 189 q-62 0 -115 -62t-86 -160t-51.5 -211t-18.5 -221z" />
<glyph unicode="1" horiz-adv-x="819" d="M31 1032q71 20 120 36.5t120 46.5t136 73.5t123 99.5h234l-250 -1288h-324l177 909q-138 -85 -240 -112z" />
<glyph unicode="2" horiz-adv-x="1021" d="M-2 0v258l250 240q202 194 241 235q92 100 108 169q5 21 5 44q0 98 -90 98q-101 0 -276 -81l-95 229q253 113 457 113q158 0 257 -79t99 -210q0 -139 -78 -273.5t-268 -308.5l-196 -176h450l-49 -258h-815z" />
<glyph unicode="3" horiz-adv-x="1030" d="M-43 104l115 238q100 -57 165.5 -81.5t141.5 -24.5q88 0 140 56t52 142q0 63 -29.5 100t-82.5 37q-46 0 -189 -26l-43 211q36 13 92 31.5t86.5 29.5t71.5 26.5t63 28.5t44.5 30t31.5 36t9 41q0 30 -20.5 47.5t-53.5 17.5q-66 0 -132 -19t-159 -62l-92 229 q132 59 240.5 86t230.5 27q164 0 249 -68.5t85 -187.5q0 -231 -252 -299q98 -35 148.5 -112.5t50.5 -170.5q0 -210 -145.5 -344.5t-395.5 -134.5q-235 0 -422 116z" />
<glyph unicode="4" horiz-adv-x="1089" d="M-8 328v164l506 800h319l-459 -714h195l57 286l336 58l-67 -344h147l-49 -250h-148l-63 -328h-324l62 328h-512z" />
<glyph unicode="5" horiz-adv-x="1003" d="M-51 104l114 238q98 -56 166 -81t142 -25q90 0 141 48t51 150q0 170 -129 170q-103 0 -233 -51l-103 92l191 637h700l-51 -258h-416l-63 -201q77 23 135 23q145 0 231 -97.5t86 -248.5q0 -254 -139.5 -383t-398.5 -129q-235 0 -424 116z" />
<glyph unicode="6" horiz-adv-x="1034" d="M35 397q0 151 23.5 284t76 248.5t129.5 198.5t189.5 130t251.5 47q153 0 262 -62l-97 -227q-98 33 -194 33q-91 0 -155 -76t-101 -203q118 92 248 92q144 0 215 -84t71 -211q0 -273 -141 -436.5t-369 -163.5q-409 0 -409 430zM369 403q0 -184 96 -184q73 0 116.5 81.5 t43.5 191.5q0 129 -97 129q-72 0 -151 -58q-8 -73 -8 -160z" />
<glyph unicode="7" horiz-adv-x="841" d="M-23 0l549 1024h-438l-49 258h868v-209l-575 -1073h-355z" />
<glyph unicode="8" horiz-adv-x="1044" d="M18 264q0 75 25 139.5t72 114.5t93.5 85t110.5 71q-72 50 -112.5 109t-40.5 147q0 110 66.5 196.5t179 132.5t250.5 46q150 0 244.5 -71t94.5 -194q0 -55 -14.5 -102t-36.5 -81.5t-58.5 -68t-69 -55.5t-79.5 -49q81 -54 131 -133.5t50 -161.5q0 -101 -45.5 -183.5 t-121 -133.5t-167.5 -78t-189 -27q-171 0 -277 73.5t-106 223.5zM342 305q0 -48 35.5 -72t73.5 -24q57 0 99 41t42 106q0 73 -84 164q-77 -49 -121.5 -100t-44.5 -115zM489 940q0 -53 60 -109q127 74 127 166q0 33 -20 54.5t-54 21.5q-52 0 -82.5 -37.5t-30.5 -95.5z" />
<glyph unicode="9" horiz-adv-x="1017" d="M35 29l98 227q90 -33 193 -33q93 0 157 76t101 203q-124 -92 -248 -92q-99 0 -165.5 42.5t-94 107t-27.5 145.5q0 273 141 436.5t369 163.5q408 0 408 -431q0 -152 -23.5 -284.5t-75.5 -248t-128.5 -198t-189 -129.5t-251.5 -47q-152 0 -264 62zM379 780q0 -131 96 -131 q68 0 150 60q10 92 10 159q0 185 -98 185q-71 0 -114.5 -82.5t-43.5 -190.5z" />
<glyph unicode=":" horiz-adv-x="692" d="M72 147q0 85 56.5 143t150.5 58q91 0 136.5 -45.5t45.5 -128.5q0 -84 -57.5 -142.5t-151.5 -58.5q-89 0 -134.5 47t-45.5 127zM209 825q0 86 56.5 144.5t150.5 58.5q92 0 138 -46t46 -130q0 -82 -58 -140.5t-151 -58.5q-90 0 -136 47t-46 125z" />
<glyph unicode=";" horiz-adv-x="653" d="M-10 -129q57 36 93.5 72t53 72.5t22 66.5t5.5 70q0 53 -10 145q7 5 20 12t58.5 19t95.5 12q153 0 153 -145t-111 -279.5t-274 -218.5zM211 825q0 86 56.5 144.5t150.5 58.5q90 0 136 -46t46 -130q0 -83 -57.5 -141t-151.5 -58q-89 0 -134.5 47t-45.5 125z" />
<glyph unicode="&#x3c;" horiz-adv-x="931" d="M35 506v188l768 350l94 -245l-385 -156q-8 -3 -30.5 -12t-42 -16t-33.5 -11q32 -10 102 -43l319 -162l-147 -249z" />
<glyph unicode="=" horiz-adv-x="1093" d="M106 307l48 250h766l-46 -250h-768zM174 668l45 250h768l-47 -250h-766z" />
<glyph unicode="&#x3e;" horiz-adv-x="931" d="M35 395l385 156q62 28 106 39q-32 10 -102 43l-320 162l148 249l645 -354v-190l-768 -350z" />
<glyph unicode="?" horiz-adv-x="901" d="M94 147q0 85 56 143t149 58q92 0 138 -45.5t46 -128.5q0 -84 -57 -142.5t-150 -58.5q-91 0 -136.5 47t-45.5 127zM182 1266q257 118 408 118q171 0 264.5 -79t93.5 -211q0 -44 -7.5 -83t-25 -73.5t-35 -61.5t-47.5 -58.5t-52 -52.5t-59.5 -55t-59.5 -55 q-68 -63 -114.5 -123t-82.5 -139l-221 62q13 80 55 156t92.5 132.5t99 108t81 103t32.5 98.5q0 39 -24 61.5t-64 22.5q-23 0 -43.5 -4t-49.5 -17t-41 -18.5t-53 -29t-50 -28.5z" />
<glyph unicode="@" horiz-adv-x="1802" d="M25 215q0 204 57 381t158.5 306.5t237 222t295 138.5t331.5 46q146 0 264.5 -34.5t205 -103t134 -177.5t47.5 -251q0 -221 -63 -391.5t-188 -269t-294 -98.5q-84 0 -132 56t-48 146q0 12 10 109l-26 -59q-111 -252 -322 -252q-72 0 -126.5 27.5t-85 73.5t-45.5 99.5 t-15 112.5q0 138 37.5 256t108 205t179.5 136.5t244 49.5q114 0 219 -47l164 -8l-69 -352q-1 -7 -9 -46.5t-10.5 -53.5t-7.5 -43.5t-6.5 -51.5t-1.5 -43q0 -27 1.5 -42.5t11 -29.5t26.5 -14q44 0 87 83.5t68 196.5t25 205q0 190 -107.5 281.5t-326.5 91.5 q-117 0 -228.5 -36.5t-207.5 -108t-168.5 -169.5t-114 -229t-41.5 -278q0 -64 12.5 -119.5t42.5 -106.5t74.5 -87t113 -57t154.5 -21q70 0 150.5 16.5t125.5 32.5l46 16l63 -209q-8 -4 -23 -10.5t-62 -23t-95.5 -29t-117.5 -23t-134 -10.5q-104 0 -193.5 19.5t-169 64.5 t-135 112.5t-88 169.5t-32.5 230zM741 293q0 -76 47 -76q55 0 121 134.5t105 287.5l16 72q-21 6 -55 6q-64 0 -112.5 -46.5t-73.5 -117.5t-36.5 -137.5t-11.5 -122.5z" />
<glyph unicode="A" horiz-adv-x="1236" d="M-123 39l748 1331h282l262 -1370h-340l-51 328h-401l-176 -344zM502 575h237q-11 67 -51 373z" />
<glyph unicode="B" horiz-adv-x="1144" d="M14 0l267 1378l237 -14q133 18 205 18q87 0 158 -16.5t127.5 -52t88 -97.5t31.5 -147q0 -233 -262 -348q104 -41 149.5 -104t45.5 -160q0 -108 -50 -196.5t-136 -145t-199 -87t-242 -30.5q-62 0 -137 0.5t-127.5 1t-60.5 0.5h-95zM389 221h70q101 0 175.5 57.5 t74.5 159.5q0 79 -37 116.5t-115 37.5h-98zM506 823h51q106 0 164.5 53.5t58.5 135.5q0 80 -34.5 114.5t-108.5 34.5q-37 0 -68 -8z" />
<glyph unicode="C" horiz-adv-x="1073" d="M66 440q0 147 28.5 285.5t89 260.5t145.5 212.5t205.5 143.5t262.5 53q295 0 344 -258l-262 -115q-26 119 -117 119q-68 0 -126 -43t-96.5 -112t-66 -157.5t-39.5 -177.5t-12 -174q0 -254 186 -254q47 0 94 10t81 22t104 40l55 -236q-98 -42 -189 -64t-212 -22 q-248 0 -361.5 119t-113.5 348z" />
<glyph unicode="D" horiz-adv-x="1333" d="M14 0l267 1380l213 -16q152 31 299 31q475 0 475 -467q0 -168 -25.5 -304.5t-86.5 -255.5t-156.5 -199.5t-240.5 -126.5t-333 -46q-80 0 -183 2t-104 2h-125zM397 256h86q111 0 196 51t135 140.5t74.5 202t24.5 245.5q0 250 -188 250q-91 0 -160 -17z" />
<glyph unicode="E" horiz-adv-x="1064" d="M14 0l267 1370h852l-56 -248h-512l-57 -280h420l-54 -248h-411l-70 -346h525v-248h-904z" />
<glyph unicode="F" horiz-adv-x="985" d="M14 0l267 1370h852l-56 -248h-512l-59 -299h422l-54 -248h-415l-113 -575h-332z" />
<glyph unicode="G" horiz-adv-x="1292" d="M57 -332l115 252q135 -59 214 -82.5t146 -23.5q71 0 121 37t64 98l49 209q-52 -87 -130 -135t-173 -48q-191 0 -288 120.5t-97 344.5q0 149 28.5 286t90.5 259.5t152 213t220.5 143.5t288.5 53q75 0 133.5 -13.5t97 -35.5t66.5 -56t43.5 -69t26.5 -80l-260 -119 q-11 28 -20.5 44.5t-28 36t-49.5 29t-74 9.5q-90 0 -162.5 -65t-114 -167t-63 -213.5t-21.5 -218.5q0 -113 34.5 -180.5t106.5 -67.5q67 0 136 71.5t90 174.5l47 242h323l-145 -758q-35 -179 -172.5 -296.5t-333.5 -117.5q-114 0 -241 37.5t-220 85.5z" />
<glyph unicode="H" horiz-adv-x="1353" d="M10 0l266 1370h332l-102 -528h397l105 528h331l-266 -1370h-332l115 594h-399l-115 -594h-332z" />
<glyph unicode="I" horiz-adv-x="628" d="M14 0l267 1370h331l-266 -1370h-332z" />
<glyph unicode="J" horiz-adv-x="614" d="M-252 -229q125 57 185 128.5t81 178.5l252 1292h332l-250 -1286q-21 -109 -61 -191.5t-105.5 -145.5t-136.5 -107.5t-180 -96.5z" />
<glyph unicode="K" horiz-adv-x="1148" d="M31 0l266 1370h240l-267 -1370h-239zM436 750l6 14q118 43 236 125t201.5 187.5t83.5 195.5q0 28 -13 71l213 48q27 -53 27 -123q0 -95 -50.5 -193t-127 -173t-155 -130t-146.5 -82q38 -165 158 -402t251 -394l-196 -105q-100 129 -173.5 245t-131 242t-93 219t-90.5 255 z" />
<glyph unicode="L" horiz-adv-x="901" d="M25 0l268 1370h332l-219 -1122h448v-248h-829z" />
<glyph unicode="M" horiz-adv-x="1722" d="M4 43l328 1327h286l152 -846q20 -124 25 -164q6 11 37.5 76t44.5 88l479 846h284l-153 -1370h-336l96 522q18 114 49 254q-17 -33 -46.5 -91t-50.5 -98t-32 -59l-301 -528h-260l-98 522q-27 143 -41 246q-28 -207 -35 -240l-98 -534z" />
<glyph unicode="N" horiz-adv-x="1404" d="M14 37l254 1333h275l303 -696q12 -27 40 -100t40 -101q8 126 20 195l115 721l317 -52l-252 -1339h-276l-311 704q-13 28 -74 189q-17 -165 -21 -193l-114 -710z" />
<glyph unicode="O" d="M66 440q0 148 28.5 285.5t90 260t149 213t214 143.5t277.5 53q478 0 478 -467q0 -147 -29 -285t-90.5 -261t-149.5 -214.5t-215 -145t-278 -53.5q-475 0 -475 471zM422 477q0 -254 186 -254q68 0 125.5 43.5t96.5 114t66 160t39.5 179.5t12.5 175q0 246 -186 246 q-68 0 -125.5 -43t-96.5 -112.5t-66 -157.5t-39.5 -177.5t-12.5 -173.5z" />
<glyph unicode="P" horiz-adv-x="1134" d="M14 0l267 1378l227 -14q95 18 199 18q421 0 421 -327q0 -133 -49.5 -239.5t-131.5 -172.5t-182.5 -100.5t-209.5 -34.5q-74 0 -111 4l-98 -512h-332zM492 752h38q112 0 181 71.5t69 188.5q0 149 -143 149q-45 0 -68 -4z" />
<glyph unicode="Q" d="M96 713q0 95 31.5 191.5t94.5 184.5t149 156.5t204 109t250 40.5q478 0 478 -467q0 -162 -42.5 -320t-119.5 -289t-177 -234t-222 -166.5t-248 -76.5q46 -98 178 -98q100 0 200 38t220 109l108 -247q-122 -76 -268 -124t-279 -48q-410 0 -487 407l86 168q49 -12 106 -12 q114 0 223.5 75t189.5 195.5t128.5 277t48.5 312.5q0 246 -190 246q-85 0 -156 -67t-108 -162.5t-37 -188.5q0 -67 38 -95.5t128 -39.5l-25 -230q-61 -18 -123 -18q-102 0 -186.5 42t-138.5 128.5t-54 202.5z" />
<glyph unicode="R" horiz-adv-x="1224" d="M14 0l267 1378l227 -14q95 18 199 18q421 0 421 -319q0 -170 -88.5 -284t-242.5 -173q46 -139 166.5 -325t257.5 -349l-273 -143q-176 217 -267 384t-171 392q-8 0 -26.5 1t-26.5 1l-111 -567h-332zM502 803h28q115 0 182.5 58.5t67.5 160.5q0 139 -143 139q-45 0 -68 -4 z" />
<glyph unicode="S" horiz-adv-x="1058" d="M-47 88l143 254q93 -55 164 -84t143 -29q86 0 135.5 37.5t49.5 110.5q0 56 -26 94t-79 76l-145 106q-102 76 -150.5 159t-48.5 204q0 117 64 204t173.5 131t248.5 44q78 0 139 -15.5t100.5 -39.5t70 -61.5t46.5 -72t31 -80.5l-258 -118q-26 73 -51.5 103t-77.5 30 q-57 0 -93 -33.5t-36 -81.5q0 -53 22.5 -84.5t73.5 -67.5l180 -133q172 -127 172 -338q0 -106 -44 -189.5t-119 -135t-169.5 -78.5t-201.5 -27q-240 0 -457 115z" />
<glyph unicode="T" horiz-adv-x="958" d="M96 1122v248h1020l-53 -248h-322l-217 -1122h-334l216 1122h-310z" />
<glyph unicode="U" horiz-adv-x="1343" d="M76 383q0 65 16 147l164 840h332l-164 -838q-10 -49 -10 -106q0 -94 44.5 -145.5t121.5 -51.5q96 0 161.5 87t94.5 233l161 821h332l-166 -856q-17 -89 -49 -165t-84.5 -144t-122.5 -115.5t-168 -75.5t-215 -28q-120 0 -208.5 29.5t-140 84.5t-75.5 125t-24 158z" />
<glyph unicode="V" horiz-adv-x="1220" d="M55 1370h346l113 -772l25 -178q40 98 84 178l397 791l319 -74l-739 -1315h-283z" />
<glyph unicode="W" horiz-adv-x="1755" d="M76 1370h346l24 -711q0 -20 1.5 -91t1.5 -105q22 77 73 196l309 711h304l34 -735q5 -98 5 -191q8 23 75 191l326 751l319 -75l-682 -1311h-282l-56 649q-10 175 -10 189q-24 -74 -78 -187l-311 -651h-268z" />
<glyph unicode="X" horiz-adv-x="1191" d="M-98 57l526 695l-264 618h348l121 -326q27 -72 37 -106l69 104l236 349l285 -101l-439 -577l289 -713h-350l-148 420q-15 37 -37 102q-3 -5 -65 -102l-297 -436z" />
<glyph unicode="Y" horiz-adv-x="960" d="M57 1370h336l107 -434q83 160 188.5 277.5t212.5 189.5l197 -158q-62 -59 -99.5 -96.5t-92 -95t-87.5 -101t-75 -106t-67 -119t-52.5 -131.5t-42 -151.5t-24 -170t-9.5 -196.5v-78h-330v82q0 260 92 477z" />
<glyph unicode="Z" horiz-adv-x="1048" d="M-37 0v174l680 950q-8 -1 -28.5 -3t-38 -3.5t-29.5 -1.5h-383l49 254h860v-178l-676 -948q41 6 101 6h428v-250h-963z" />
<glyph unicode="[" horiz-adv-x="847" d="M61 -381l363 1856h526l-49 -250h-221l-264 -1356h227l-45 -250h-537z" />
<glyph unicode="\" horiz-adv-x="903" d="M201 1493h303l299 -1751h-297z" />
<glyph unicode="]" horiz-adv-x="888" d="M-123 -381l49 250h221l265 1356h-228l45 250h537l-363 -1856h-526z" />
<glyph unicode="^" horiz-adv-x="1067" d="M76 672l483 700h193l217 -743l-289 -35l-76 309q-10 40 -18 109q-19 -58 -56 -113l-217 -348z" />
<glyph unicode="_" horiz-adv-x="997" d="M-45 -369l47 240h1010l-43 -240h-1014z" />
<glyph unicode="`" horiz-adv-x="1021" d="M266 1442q3 4 8.5 11.5t25.5 29.5t44.5 42.5t66 46t87.5 44.5q29 -65 68.5 -130.5t75.5 -113t67 -85t50 -56.5l19 -19l-149 -135l-27.5 16.5t-67 47t-93 76t-93.5 101t-82 124.5z" />
<glyph unicode="a" horiz-adv-x="1087" d="M45 334q0 198 66.5 353.5t201.5 248t320 92.5q127 0 233 -49l164 -10l-86 -447q-20 -94 -20 -174q0 -83 19.5 -143.5t62.5 -126.5l-258 -103q-74 85 -74 197q0 72 6 127l-27 -57q-123 -260 -327 -260q-74 0 -130 31t-88 82.5t-47.5 112t-15.5 126.5zM377 328 q0 -105 47 -105q39 0 87 77.5t85.5 181.5t62.5 210l21 92q-24 9 -62 9q-66 0 -116 -51t-75.5 -129t-37.5 -150.5t-12 -134.5z" />
<glyph unicode="b" horiz-adv-x="1054" d="M35 98l260 1346l323 41l-65 -334q-23 -116 -100 -305q111 182 276 182q59 0 107.5 -21t80 -55t53 -80.5t31 -95t9.5 -100.5q0 -147 -39 -273.5t-111.5 -220t-184.5 -147t-251 -53.5q-162 0 -389 116zM375 225q27 -8 61 -8q54 0 98 35t70.5 87t44 117.5t24.5 122t7 103.5 q0 104 -49 104q-39 0 -86 -74t-86 -181.5t-64 -221.5z" />
<glyph unicode="c" horiz-adv-x="823" d="M45 334q0 142 39 268.5t110.5 223t182.5 152.5t246 56q60 0 105.5 -18t74.5 -51t46.5 -71.5t29.5 -88.5l-234 -90q-1 4 -5.5 16.5t-6.5 17.5t-7.5 14.5t-10.5 13.5t-14.5 7.5t-20.5 3.5q-49 0 -89.5 -45t-65 -114t-37.5 -145t-13 -146q0 -123 96 -123q48 0 199 49 l71 -217l-7 -3q-7 -3 -18 -7t-26.5 -10t-34.5 -12t-40.5 -12t-46 -11.5t-49.5 -9.5t-53 -6.5t-54 -2.5q-80 0 -144 20.5t-105 54.5t-68 81.5t-38.5 98t-11.5 106.5z" />
<glyph unicode="d" horiz-adv-x="1060" d="M45 334q0 198 66.5 353.5t201.5 248t320 92.5q49 0 96 -8l82 424l319 41l-196 -1024q-10 -51 -10 -113q0 -83 19.5 -143.5t62.5 -126.5l-258 -103q-74 85 -74 197q0 72 6 127l-27 -57q-123 -260 -327 -260q-74 0 -130 31t-88 82.5t-47.5 112t-15.5 126.5zM377 328 q0 -105 47 -105q39 0 87 77.5t85.5 181.5t62.5 210l21 92q-24 9 -62 9q-66 0 -116 -51t-75.5 -129t-37.5 -150.5t-12 -134.5z" />
<glyph unicode="e" horiz-adv-x="960" d="M45 334q0 142 39 268.5t111 223t182.5 152.5t245.5 56q165 0 244 -67t79 -185q0 -171 -159 -286.5t-414 -139.5q0 -4 -1 -21t-1 -24q0 -49 27.5 -72.5t72.5 -23.5q34 0 110 21t135 42l60 21l70 -209q-10 -5 -27 -13t-68 -28t-100.5 -35.5t-116 -28t-122.5 -12.5 q-80 0 -144 20.5t-105 54.5t-68 81.5t-38.5 98t-11.5 106.5zM406 580q103 13 165 62t62 99q0 56 -60 56q-53 0 -97.5 -59.5t-69.5 -157.5z" />
<glyph unicode="f" horiz-adv-x="716" d="M-221 -233q136 64 205 134t90 175l133 690h-154v238h209q-21 34 -33 85t-12 87q0 102 54 171.5t140.5 100.5t198.5 31q130 0 200 -54.5t101 -164.5l-252 -113q-19 65 -35 81q-13 13 -30 13q-76 0 -76 -94q0 -59 19 -143h235l-41 -238h-211l-135 -686q-21 -105 -61 -185 t-104.5 -142.5t-139 -109.5t-184.5 -98z" />
<glyph unicode="g" horiz-adv-x="1103" d="M49 -332l115 244q225 -94 350 -94q80 0 124 45.5t44 111.5q0 22 -1 66.5t-1 85.5q0 20 2.5 47.5t7 67t6.5 59.5l-26 -59q-120 -260 -328 -260q-74 0 -129.5 31t-87 82.5t-47 112t-15.5 126.5q0 147 39 273.5t111.5 220t184.5 147t251 53.5q124 0 236 -49l164 -10 l-25 -125q-54 -271 -72 -371.5t-18 -153.5q0 -71 16.5 -185.5t16.5 -188.5q0 -196 -116 -298t-319 -102q-78 0 -152.5 12t-140 34t-103.5 38t-87 39zM393 328q0 -105 49 -105q39 0 87 78t88 190t65 228l14 65q-41 9 -59 9q-54 0 -98 -35t-70.5 -87t-44 -117.5t-24.5 -122 t-7 -103.5z" />
<glyph unicode="h" horiz-adv-x="1110" d="M35 0l284 1444l318 41l-57 -301q-9 -49 -29 -109t-39.5 -105t-53.5 -121t-52 -120q86 167 172 233t210 66q256 0 256 -254q0 -77 -19 -161.5t-42 -144.5t-42 -128.5t-19 -118.5q0 -104 26 -221h-319q-15 88 -15 156q0 82 28 183.5t55.5 197.5t27.5 165q0 64 -49 64 t-104 -70t-95 -168.5t-59 -195.5l-66 -332h-317z" />
<glyph unicode="i" horiz-adv-x="606" d="M55 184q0 18 8 64l152 756h313l-133 -678q-8 -47 -8 -54q0 -36 27 -36q26 0 92 22v-221q-12 -6 -33 -14.5t-80 -22.5t-110 -14q-106 0 -167 54t-61 144zM240 1298q0 77 53 131t139 54q85 0 127.5 -43.5t42.5 -120.5q0 -76 -53.5 -129t-138.5 -53t-127.5 43.5t-42.5 117.5 z" />
<glyph unicode="j" horiz-adv-x="526" d="M-283 -236q141 63 206 133.5t91 196.5l181 910h311l-182 -924q-13 -67 -32.5 -121.5t-41 -97t-55.5 -80.5t-66 -66t-84 -59t-96.5 -54.5t-116.5 -58.5zM225 1298q0 77 52.5 131t138.5 54q87 0 129.5 -43t42.5 -121q0 -76 -53.5 -129t-139.5 -53q-85 0 -127.5 43.5 t-42.5 117.5z" />
<glyph unicode="k" horiz-adv-x="1169" d="M35 0l282 1444l318 41l-57 -301q-10 -54 -34 -117.5t-61.5 -148.5t-52.5 -123q75 126 166 179.5t209 53.5q115 0 183.5 -64.5t68.5 -183.5q0 -65 -23.5 -123.5t-57.5 -95.5t-68 -64t-58 -39l-23 -12q43 -128 123 -251t203 -263l-250 -135q-279 258 -395 703l4 35 q21 7 51.5 22.5t68 39.5t63.5 58t26 68q0 31 -12 45t-43 14q-45 0 -87 -43t-73.5 -113.5t-54 -145t-37.5 -152.5l-64 -328h-315z" />
<glyph unicode="l" horiz-adv-x="618" d="M45 188q0 18 8 64l232 1192l319 41l-221 -1159q-8 -47 -8 -54q0 -36 31 -36q20 0 116 24v-219q-123 -49 -250 -49q-111 0 -169 52t-58 144z" />
<glyph unicode="m" horiz-adv-x="1642" d="M55 0l105 524q20 97 20 176q0 126 -63 232l258 100q57 -63 57 -170q0 -31 -14 -151l26 57q62 136 141.5 198t196.5 62q214 0 244 -192q55 101 125.5 146.5t169.5 45.5q256 0 256 -254q0 -77 -19 -161.5t-42.5 -144.5t-42.5 -128.5t-19 -118.5q0 -99 27 -221h-320 q-14 82 -14 156q0 82 27 183.5t54 197.5t27 165q0 64 -45 64q-46 0 -95 -68.5t-83.5 -162.5t-54.5 -191l-66 -344h-317l104 524q21 119 21 178q0 64 -47 64q-45 0 -94 -68.5t-85 -163.5t-55 -192l-65 -342h-318z" />
<glyph unicode="n" horiz-adv-x="1130" d="M55 0l105 524q20 97 20 176q0 126 -63 232l258 100q57 -63 57 -170q0 -45 -14 -151l26 57q62 134 151 197t212 63q256 0 256 -254q0 -77 -19 -161.5t-42.5 -144.5t-42.5 -128.5t-19 -118.5q0 -99 27 -221h-320q-14 82 -14 156q0 82 27.5 183.5t55 197.5t27.5 165 q0 64 -49 64t-104 -70t-95 -168.5t-59 -195.5l-63 -332h-318z" />
<glyph unicode="o" horiz-adv-x="1034" d="M45 334q0 142 39 268.5t110.5 223t182.5 152.5t246 56q100 0 174 -31t114.5 -84.5t59 -115t18.5 -133.5q0 -115 -24 -219t-72 -191t-116.5 -151t-162 -100t-202.5 -36q-80 0 -144 20.5t-105 54.5t-68 81.5t-38.5 98t-11.5 106.5zM375 319q0 -116 80 -116q61 0 109.5 82 t70.5 190t22 209q0 121 -77 121q-47 0 -87.5 -48t-65.5 -122t-38.5 -157t-13.5 -159z" />
<glyph unicode="p" horiz-adv-x="1099" d="M-27 -455l189 979q20 97 20 176q0 126 -63 232l258 100q57 -63 57 -170q0 -51 -14 -147l26 57q119 256 328 256q59 0 107.5 -21t80 -55t53 -80.5t31 -95t9.5 -100.5q0 -198 -66.5 -353.5t-201.5 -248t-320 -92.5q-38 0 -96 8l-78 -404zM418 225q27 -8 63 -8q54 0 97.5 35 t69.5 87t43.5 117.5t24.5 122t7 103.5q0 104 -47 104q-59 0 -127 -147.5t-115 -345.5z" />
<glyph unicode="q" horiz-adv-x="1069" d="M45 334q0 198 66.5 353.5t201.5 248t320 92.5q123 0 235 -49l164 -10l-14 -54l-256 -1329l-324 -41l62 314q20 101 98 301q-108 -178 -272 -178q-74 0 -130 31t-88 82.5t-47.5 112t-15.5 126.5zM377 328q0 -105 47 -105q38 0 84.5 71.5t85.5 176.5t63 215l23 98 q-45 9 -62 9q-66 0 -116 -51t-75.5 -129t-37.5 -150.5t-12 -134.5z" />
<glyph unicode="r" horiz-adv-x="833" d="M55 0l105 524q20 97 20 176q0 126 -63 232l258 100q57 -63 57 -170q0 -30 -14 -153q52 172 124 245.5t183 73.5q129 0 197 -76l-168 -266q-55 59 -117 59q-55 0 -99.5 -72.5t-66.5 -172.5l-98 -500h-318z" />
<glyph unicode="s" horiz-adv-x="870" d="M-27 92l127 230q17 -12 44 -30.5t90.5 -49.5t101.5 -31q51 0 76.5 21t25.5 57q0 39 -20 65.5t-64 48.5l-67 35q-160 80 -160 277q0 143 104.5 231t296.5 88q140 0 214.5 -61t93.5 -185l-234 -79q-2 5 -6.5 23.5t-6.5 24.5t-8.5 18.5t-13.5 17.5t-20 9.5t-29 4.5 q-36 0 -51.5 -23t-15.5 -51q0 -58 73 -100l54 -31q36 -22 56.5 -35.5t48.5 -39.5t42.5 -52.5t25.5 -68t11 -91.5q0 -146 -109.5 -244t-306.5 -98q-50 0 -106.5 12.5t-102 30t-84 34.5t-59.5 30z" />
<glyph unicode="t" horiz-adv-x="770" d="M86 766v238h201l84 235l284 64l-59 -299h209l-37 -238h-217l-86 -434q-6 -21 -6 -62q0 -21 12.5 -31t46.5 -10q23 0 63.5 8.5t69.5 17.5l29 9v-231q-14 -5 -40 -13t-102.5 -21t-150.5 -13q-137 0 -198.5 49t-61.5 147q0 28 8 78l103 506h-152z" />
<glyph unicode="u" horiz-adv-x="1120" d="M55 236q0 72 18.5 156t40 147t40 136t18.5 126q0 90 -20 157l274 68q57 -117 57 -238q0 -84 -53 -245t-53 -238q0 -61 47 -61q49 0 104 70t95 168.5t59 195.5l63 326h316l-103 -519q-20 -97 -20 -174q0 -56 15.5 -110t26 -73.5t28.5 -49.5l-258 -103q-62 71 -62 179 q0 39 12 145l-26 -57q-62 -134 -151 -197t-212 -63q-256 0 -256 254z" />
<glyph unicode="v" horiz-adv-x="1071" d="M76 240q0 52 18 163l117 601h311l-116 -609q-13 -65 -13 -106q0 -33 15.5 -53.5t44.5 -20.5q64 0 128.5 96t104 233t39.5 257q0 90 -20 157l274 68q57 -117 57 -238q0 -190 -78.5 -379.5t-209.5 -299.5q-76 -65 -163.5 -94t-213.5 -29q-138 0 -216.5 64.5t-78.5 189.5z " />
<glyph unicode="w" horiz-adv-x="1525" d="M76 240q0 52 18 163l117 601h311l-116 -609q-13 -65 -13 -106q0 -34 15 -54t43 -20q61 0 113.5 97t80 231t27.5 258q0 87 -21 157l275 68q57 -117 57 -238q0 -131 -37 -264.5t-106 -242.5q10 -66 67 -66q62 0 127 95.5t105.5 233.5t40.5 257q0 87 -21 157l275 68 q57 -122 57 -238q0 -187 -78 -373t-209 -300q-147 -129 -352 -129q-68 0 -118 19.5t-89 68.5q-130 -88 -272 -88q-139 0 -218 64.5t-79 189.5z" />
<glyph unicode="x" horiz-adv-x="999" d="M-129 0l487 535l-235 469h334l86 -191q20 -52 39 -92q35 40 61 78q29 37 29 73q0 20 -15 86l273 68q45 -97 45 -143q0 -78 -49 -152q-23 -34 -63.5 -78t-68.5 -70t-87 -79l223 -504h-334l-92 246q-6 12 -23 63q-12 -20 -53 -71l-188 -238h-369z" />
<glyph unicode="y" horiz-adv-x="1126" d="M61 -332l115 244q225 -94 350 -94q80 0 124 45.5t44 111.5q0 22 -1 66.5t-1 85.5q0 21 2.5 49.5t7.5 68.5l7 56l-27 -59q-62 -134 -151 -197t-212 -63q-256 0 -256 254q0 72 18.5 156t40 147t40 136t18.5 126q0 90 -20 157l274 68q58 -119 58 -238q0 -84 -54.5 -245 t-54.5 -238q0 -61 49 -61t104 70t95 168.5t59 195.5l64 326h315q-9 -45 -25 -127q-98 -496 -98 -558q0 -71 16.5 -185.5t16.5 -188.5q0 -197 -115.5 -298.5t-318.5 -101.5q-78 0 -152.5 12t-140 34t-104 38t-87.5 39z" />
<glyph unicode="z" horiz-adv-x="831" d="M-57 0v184l487 586q-86 -6 -176 -6h-145v240h708v-183l-475 -590q44 7 59 7q38 0 94.5 -5.5t84.5 -5.5q84 0 170 52l73 -244q-100 -62 -266 -62q-82 0 -246.5 13.5t-251.5 13.5h-116z" />
<glyph unicode="{" horiz-adv-x="817" d="M51 -180q0 60 31 176l61 242q13 43 13 84q0 19 -3 32.5t-11.5 30t-29 27.5t-51.5 16v211q39 12 67 25t57 34.5t46.5 55t22.5 77.5l45 361q9 79 43.5 137.5t88 91t114.5 47.5t133 15q17 0 32.5 -1t34.5 -4.5t29.5 -5.5t35 -8t34.5 -8l-51 -260q-49 18 -88 18 q-42 0 -66.5 -30.5t-28.5 -63.5l-32 -289q-10 -93 -56 -166.5t-151 -132.5q106 -67 106 -167q0 -50 -22 -140l-56 -225q-16 -61 -16 -66q0 -19 12.5 -31t32.5 -12q46 0 121 27l-57 -293q-110 -18 -179 -18q-114 0 -188 54.5t-74 158.5z" />
<glyph unicode="|" horiz-adv-x="737" d="M25 -258l344 1751h301l-342 -1751h-303z" />
<glyph unicode="}" horiz-adv-x="813" d="M-143 -369l49 263q52 -19 90 -19q42 0 65 30t27 64l35 287q10 93 56 167.5t151 131.5q-109 70 -109 170q0 45 23 139l57 226q1 7 5 21t6.5 25.5t2.5 18.5q0 19 -11.5 30t-31.5 11q-50 0 -120 -25l55 293q116 19 178 19q114 0 189 -54.5t75 -158.5q0 -46 -31 -176 l-63 -242q-12 -40 -12 -86q0 -19 3 -32.5t12 -29t29.5 -26.5t51.5 -16v-211q-82 -25 -133.5 -68t-61.5 -125l-43 -362q-10 -79 -44.5 -136.5t-87 -90t-113.5 -47.5t-133 -15q-22 0 -46 2.5t-35 4.5t-44.5 9t-40.5 8z" />
<glyph unicode="~" horiz-adv-x="1101" d="M76 631q34 42 62.5 71.5t69 61t88 47.5t101.5 16q59 0 109 -19t79 -42t68.5 -42t79.5 -19q47 0 83 18.5t93 75.5l117 -140q-69 -88 -144.5 -141t-174.5 -53q-48 0 -89.5 12.5t-70 30.5t-55 36.5t-57.5 31t-64 12.5q-49 0 -85 -18.5t-91 -75.5z" />
<glyph unicode="&#xa1;" horiz-adv-x="667" d="M-47 -373l231 918h285l-174 -918h-342zM180 823q0 82 58 140.5t151 58.5q90 0 136 -47t46 -125q0 -85 -56 -143t-148 -58t-139.5 45.5t-47.5 128.5z" />
<glyph unicode="&#xa2;" horiz-adv-x="1136" d="M96 483q0 120 33 229t93.5 195.5t154.5 143.5t209 71l28 181h224l-29 -179q111 -10 167.5 -61.5t74.5 -142.5l-201 -89q-10 26 -17 40.5t-21.5 28t-33.5 18.5l-94 -603q84 15 168 80l76 -168q-94 -90 -275 -112l-37 -238h-223l35 234q-90 5 -156.5 39t-103.5 88 t-54.5 115t-17.5 130zM418 485q0 -110 47 -149l86 565q-49 -32 -81 -112.5t-42 -155.5t-10 -148z" />
<glyph unicode="&#xa3;" horiz-adv-x="1249" d="M66 180l8 6q9 5 19 12t23.5 17.5t27 25t26.5 32t24 39.5t17 46l29 115h-123l49 252h139l39 154q52 197 190 310.5t347 113.5q75 0 133 -15t95 -38.5t63.5 -59.5t39.5 -70.5t21 -77.5l-248 -110q-21 53 -46 77.5t-81 24.5q-71 0 -121.5 -48t-74.5 -132l-39 -129h311 l-90 -252h-295l-10 -39q-42 -129 -113 -207q52 9 121 9q39 0 101.5 -5.5t88.5 -5.5q95 0 178 47l70 -233q-106 -66 -256 -66q-86 0 -257 13.5t-273 13.5q-20 0 -70 -4z" />
<glyph unicode="&#xa4;" horiz-adv-x="1325" d="M4 166l193 147q-31 70 -31 154q0 218 135 373l-141 178l215 147l117 -192q109 47 225 47q108 0 194 -39l187 184l172 -192l-195 -152q31 -74 31 -149q0 -228 -141 -379l137 -172l-213 -148l-117 189q-97 -43 -219 -43q-109 0 -193 35l-184 -181zM430 502 q0 -75 36.5 -120.5t117.5 -45.5q101 0 177.5 90.5t76.5 202.5q0 164 -154 164q-101 0 -177.5 -89.5t-76.5 -201.5z" />
<glyph unicode="&#xa5;" horiz-adv-x="1150" d="M76 162l49 250h223l10 57h-223l49 250h131l-204 569h329l133 -495l338 514l256 -121l-350 -467h139l-49 -250h-227l-10 -57h227l-49 -250h-227l-29 -162h-322l29 162h-223z" />
<glyph unicode="&#xa6;" horiz-adv-x="735" d="M25 -258l153 790h303l-153 -790h-303zM213 698l156 795h301l-154 -795h-303z" />
<glyph unicode="&#xa7;" horiz-adv-x="1050" d="M45 420q0 120 73 215.5t204 148.5q-54 80 -54 168q0 65 28.5 129.5t80 117.5t131.5 85.5t174 32.5q82 0 135.5 -19.5t106.5 -64.5l-129 -211q-57 53 -109 53q-41 0 -67.5 -26t-26.5 -76q0 -30 20 -60.5t52 -59.5t70.5 -60t77 -67t70.5 -75.5t52 -90t20 -105.5 q0 -121 -73 -217.5t-203 -149.5q53 -84 53 -166q0 -66 -28.5 -130.5t-80 -116.5t-131.5 -84.5t-174 -32.5q-81 0 -134 19.5t-107 64.5l129 211q58 -54 108 -54q41 0 68 26.5t27 76.5q0 34 -27 71t-67 68.5t-87.5 73.5t-87.5 83.5t-67 100t-27 121.5zM365 481q0 -36 23 -75.5 t47 -64.5t73 -72q8 -7 12 -11q115 42 115 135q0 28 -11 55t-39 59.5t-44.5 49.5t-59.5 57q-116 -38 -116 -133z" />
<glyph unicode="&#xa8;" horiz-adv-x="1081" d="M164 1307q0 72 46.5 120t125.5 48q76 0 114.5 -38.5t38.5 -109.5q0 -68 -49 -116t-127 -48q-74 0 -111.5 39t-37.5 105zM610 1307q0 71 46.5 119.5t123.5 48.5q76 0 115 -38.5t39 -109.5q0 -68 -48.5 -116t-125.5 -48q-74 0 -112 39t-38 105z" />
<glyph unicode="&#xa9;" horiz-adv-x="1550" d="M55 535q0 252 111.5 454.5t308 316t440.5 113.5q267 0 422.5 -155.5t155.5 -405.5q0 -188 -65.5 -353t-179 -282t-273 -184.5t-342.5 -67.5q-267 0 -422.5 157.5t-155.5 406.5zM279 584q0 -200 102.5 -307t286.5 -107q115 0 224 48.5t193 131.5t134.5 204t50.5 257 q0 200 -102 306t-289 106q-82 0 -166 -27.5t-162 -82.5t-138.5 -130t-97 -179t-36.5 -220zM432 588q0 138 53.5 257t159 195t240.5 76q82 0 134.5 -33.5t70.5 -89.5l-150 -137q-25 43 -68 43q-49 0 -85 -44.5t-52 -107t-16 -131.5q0 -114 84 -114q56 0 131 35l49 -170 q-136 -74 -270 -74q-146 0 -213.5 80.5t-67.5 214.5z" />
<glyph unicode="&#xaa;" horiz-adv-x="868" d="M106 877q0 142 48 253t144 176.5t228 65.5q103 0 174 -35l134 -6l-64 -321q-14 -66 -14 -121q0 -59 14 -102.5t47 -88.5l-205 -80q-51 58 -51 154q0 37 2 76q-106 -225 -254 -225q-70 0 -117.5 39.5t-66.5 94.5t-19 120zM367 883q0 -62 28 -62q36 0 78 94.5t68 202.5 l14 62q-10 2 -37 2q-40 0 -71.5 -33.5t-47.5 -83t-24 -97t-8 -85.5z" />
<glyph unicode="&#xab;" horiz-adv-x="1294" d="M72 502q198 215 524 465l133 -164l-305 -301q175 -278 211 -338l-170 -133q-30 30 -78 79.5t-153.5 175t-161.5 216.5zM596 502q198 215 524 465l133 -164l-305 -301q27 -45 104 -167t107 -171l-170 -133q-30 30 -78 79.5t-153.5 175t-161.5 216.5z" />
<glyph unicode="&#xac;" horiz-adv-x="1077" d="M86 594l47 250h858l-94 -500h-260l45 250h-596z" />
<glyph unicode="&#xad;" horiz-adv-x="819" d="M76 532l47 240h618l-43 -240h-622z" />
<glyph unicode="&#xae;" horiz-adv-x="1187" d="M137 823q0 115 41 222t114.5 190.5t184.5 133.5t242 50q178 0 284.5 -103.5t106.5 -279.5q0 -115 -41 -222.5t-114 -191t-184 -134t-241 -50.5q-178 0 -285.5 104t-107.5 281zM301 854q0 -121 64 -197.5t192 -76.5q166 0 277.5 124t111.5 302q0 123 -63.5 198.5 t-190.5 75.5q-165 0 -278 -124t-113 -302zM401 666l103 532l92 -14q50 8 82 8q71 0 114.5 -31t43.5 -90q0 -111 -115 -168q20 -62 96 -178l-110 -76q-63 103 -105 223q-6 0 -13 2.5t-9 2.5l-41 -211h-138zM600 983q19 0 31 2q67 12 67 64q0 22 -16 33.5t-39 11.5l-22 -2z " />
<glyph unicode="&#xaf;" horiz-adv-x="1013" d="M147 1235l39 240h691l-33 -240h-697z" />
<glyph unicode="&#xb0;" horiz-adv-x="536" d="M86 1167q0 125 87 214t220 89q103 0 162 -61.5t59 -157.5q0 -126 -86.5 -214.5t-220.5 -88.5q-103 0 -162 60.5t-59 158.5zM268 1182q0 -32 17.5 -51t48.5 -19q44 0 71 37t27 84q0 33 -16.5 53.5t-46.5 20.5q-44 0 -72.5 -38.5t-28.5 -86.5z" />
<glyph unicode="&#xb1;" horiz-adv-x="1163" d="M96 45l47 250h275l37 192h-277l47 250h275l53 285h266l-53 -285h278l-45 -250h-278l-35 -192h279l-47 -250h-822z" />
<glyph unicode="&#xb2;" horiz-adv-x="665" d="M45 645v203l133 117q104 92 138 129t34 61q0 27 -28 27q-46 0 -138 -43l-69 186q144 66 286 66q102 0 171 -46.5t69 -136.5q0 -81 -46 -145.5t-151 -147.5l-84 -67h238l-37 -203h-516z" />
<glyph unicode="&#xb3;" horiz-adv-x="708" d="M45 721l72 153q43 -22 62 -31t45 -16.5t50 -7.5q46 0 71.5 24.5t25.5 65.5q0 27 -12 37t-33 10t-95 -18l-38 154q138 42 169 60q32 20 33 42q0 23 -26 23q-46 0 -144 -50l-63 152q141 72 297 72q83 0 144 -40t61 -118q0 -119 -136 -158q109 -42 109 -166 q0 -113 -92 -190.5t-238 -77.5q-83 0 -142 20.5t-120 59.5z" />
<glyph unicode="&#xb4;" horiz-adv-x="1021" d="M233 1229q7 11 19.5 29.5t52.5 71t82.5 99t105 100t123.5 87.5q5 -3 12.5 -9t30.5 -26.5t43.5 -45t45.5 -65t43 -84.5q-98 -47 -203.5 -124.5t-161.5 -131.5l-57 -53z" />
<glyph unicode="&#xb5;" horiz-adv-x="1167" d="M-47 -455l280 1459h314l-125 -654q-2 -14 -2 -41q0 -28 16.5 -44.5t36.5 -16.5q52 0 106 69.5t92.5 166t57.5 194.5l66 332h315l-104 -525q-21 -102 -21 -174q0 -56 15.5 -110t26 -73.5t28.5 -49.5l-258 -103q-62 71 -62 179q0 35 15 145l-29 -68q-58 -133 -119.5 -191 t-150.5 -58q-83 0 -132 69q17 -127 -4 -233l-43 -232z" />
<glyph unicode="&#xb6;" horiz-adv-x="1171" d="M106 842q0 232 166 374t447 154l-162 -864q-223 0 -337 88t-114 248zM285 -236q136 63 202.5 136.5t90.5 197.5l245 1272h324l-244 -1268q-18 -93 -53.5 -168.5t-77.5 -128.5t-107 -103t-122.5 -83t-145.5 -76z" />
<glyph unicode="&#xb7;" horiz-adv-x="542" d="M76 664q0 85 56.5 142.5t150.5 57.5q92 0 138 -45.5t46 -128.5q0 -84 -58 -142.5t-151 -58.5q-90 0 -136 47.5t-46 127.5z" />
<glyph unicode="&#xb8;" horiz-adv-x="997" d="M246 -399l78 157q67 -51 137 -51q63 0 63 35q0 21 -21 38t-45.5 27.5t-45.5 32t-21 49.5q0 46 70 131h164q-33 -42 -33 -73q0 -18 24.5 -36.5t53.5 -34t53.5 -48.5t24.5 -76q0 -71 -43 -122t-103.5 -73t-128.5 -22q-121 0 -227 66z" />
<glyph unicode="&#xb9;" horiz-adv-x="606" d="M66 1237q203 53 301 149h192l-137 -739h-262l86 455q-52 -38 -103 -53z" />
<glyph unicode="&#xba;" horiz-adv-x="854" d="M106 887q0 209 114 348t298 139q132 0 200 -68.5t68 -197.5q0 -136 -50 -246t-144 -174.5t-215 -64.5q-133 0 -202 68t-69 196zM365 877q0 -33 10.5 -45.5t30.5 -12.5q37 0 67 59.5t43.5 127t13.5 114.5q0 58 -43 58q-36 0 -65.5 -59.5t-43 -127t-13.5 -114.5z" />
<glyph unicode="&#xbb;" horiz-adv-x="1294" d="M18 195l304 301q-187 301 -209 338l170 133q30 -30 77.5 -79.5t153.5 -175t162 -216.5q-198 -215 -524 -465zM541 195l305 301q-187 301 -209 338l168 133q30 -30 78 -79.5t154.5 -175t162.5 -216.5q-212 -229 -526 -465z" />
<glyph unicode="&#xbc;" horiz-adv-x="1591" d="M86 1051q203 53 301 149h193l-138 -739h-262l86 454q-52 -39 -102 -53zM233 0l768 1202h308l-770 -1202h-306zM883 150v153l243 434h240l-227 -391h86l71 186l185 41l-43 -227h94l-41 -196h-92l-27 -154h-221l29 154h-297z" />
<glyph unicode="&#xbd;" horiz-adv-x="1626" d="M86 1051q203 53 301 149h193l-138 -739h-262l86 454q-52 -39 -102 -53zM233 0l768 1202h308l-770 -1202h-306zM977 0v203l133 116q103 91 137.5 129t34.5 62q0 27 -29 27q-45 0 -137 -43l-69 186q142 65 286 65q102 0 171 -46t69 -136q0 -81 -46 -145.5t-151 -147.5 l-84 -67h238l-37 -203h-516z" />
<glyph unicode="&#xbe;" horiz-adv-x="1685" d="M59 539l70 153q42 -22 62 -31t46 -16.5t50 -7.5q46 0 71 24.5t25 65.5q0 27 -12 37t-33 10q-20 0 -94 -18l-39 153q142 43 174 63q28 19 29 40q0 22 -25 22q-49 0 -145 -49l-64 152q139 71 297 71q85 0 145 -39.5t60 -117.5q0 -119 -135 -158q110 -42 110 -166 q0 -113 -93 -190.5t-239 -77.5q-83 0 -142 20.5t-118 59.5zM330 0l768 1202h307l-770 -1202h-305zM977 150v153l244 434h239l-227 -391h86l74 186l182 41l-43 -227h96l-41 -196h-92l-29 -154h-221l31 154h-299z" />
<glyph unicode="&#xbf;" horiz-adv-x="868" d="M-63 -98q0 44 7.5 83t25 73.5t34.5 61t47.5 58.5t51.5 52t60 55t60 55q69 65 115.5 124.5t81.5 137.5l221 -61q-14 -81 -56.5 -157t-93 -132.5t-99 -108t-81 -103.5t-32.5 -99q0 -38 25 -60t65 -22q22 0 42.5 4t49 16.5t41 18.5t53.5 28.5t51 28.5l94 -227 q-83 -37 -137.5 -58.5t-130 -40t-137.5 -18.5q-173 0 -265.5 78.5t-92.5 212.5zM399 821q0 82 58 140.5t151 58.5q89 0 134.5 -47t45.5 -125q0 -85 -55 -143t-149 -58q-91 0 -138 45.5t-47 128.5z" />
<glyph unicode="&#xc0;" horiz-adv-x="1230" d="M-98 39l747 1331h283l262 -1370h-340l-51 328h-402l-176 -344zM348 1708q5 13 15.5 36t57.5 82.5t111 106.5q44 -57 98.5 -111.5t100.5 -91.5t85.5 -65.5t61.5 -42.5l23 -14l-113 -166q-11 3 -30.5 9t-75.5 29t-108 51t-116 75.5t-110 101.5zM526 575h238q-11 67 -51 373 z" />
<glyph unicode="&#xc1;" horiz-adv-x="1230" d="M-98 39l747 1331h283l262 -1370h-340l-51 328h-402l-176 -344zM526 575h238q-11 67 -51 373zM684 1616q8 9 23.5 25.5t64.5 60.5t98.5 82t120.5 80t137 65q4 -4 10.5 -11t25.5 -31.5t35 -52t33.5 -71.5t27.5 -90q-105 -29 -223 -86.5t-183 -100.5l-66 -42z" />
<glyph unicode="&#xc2;" horiz-adv-x="1230" d="M-98 39l747 1331h283l262 -1370h-340l-51 328h-402l-176 -344zM469 1645q26 22 70 58t159 118.5t203 130.5q56 -78 136 -156t132 -117l52 -39l-111 -167q-17 5 -45 15t-100.5 52t-128.5 96l-263 -163zM526 575h238q-11 67 -51 373z" />
<glyph unicode="&#xc3;" horiz-adv-x="1230" d="M-98 39l747 1331h283l262 -1370h-340l-51 328h-402l-176 -344zM526 575h238q-11 67 -51 373zM653 1620l29 133q49 29 115 29q23 0 62.5 -12.5t72.5 -12.5q20 0 47.5 4.5t44.5 9.5l18 5l-26 -134q-51 -28 -117 -28q-21 0 -60 12t-73 12q-20 0 -48.5 -4.5t-46.5 -9.5z" />
<glyph unicode="&#xc4;" horiz-adv-x="1230" d="M-98 39l747 1331h283l262 -1370h-340l-51 328h-402l-176 -344zM459 1657q0 72 46.5 120t125.5 48q76 0 114.5 -38.5t38.5 -109.5q0 -68 -48.5 -116t-127.5 -48q-74 0 -111.5 39t-37.5 105zM526 575h238q-11 67 -51 373zM905 1657q0 71 46.5 119.5t123.5 48.5t115.5 -38.5 t38.5 -109.5q0 -68 -48.5 -116t-125.5 -48q-74 0 -112 39t-38 105z" />
<glyph unicode="&#xc5;" horiz-adv-x="1230" d="M-98 39l739 1315q-57 54 -57 145q0 113 76 191.5t194 78.5q92 0 144.5 -54.5t52.5 -139.5q0 -68 -30 -126t-85 -97l258 -1352h-340l-51 328h-402l-176 -344zM526 575h238q-11 67 -51 373zM743 1513q0 -27 15.5 -44t42.5 -17q38 0 63 32.5t25 74.5q0 28 -15.5 45.5 t-42.5 17.5q-39 0 -63.5 -33.5t-24.5 -75.5z" />
<glyph unicode="&#xc6;" horiz-adv-x="1744" d="M-109 55l893 1315h1028l-53 -248h-504l-55 -280h410l-56 -248h-399l-72 -346h514v-248h-890l63 330h-321l-232 -363zM604 578h215l101 528h-9q-119 -232 -290 -506z" />
<glyph unicode="&#xc7;" horiz-adv-x="1073" d="M66 440q0 147 28.5 285.5t89 260.5t145.5 212.5t205.5 143.5t262.5 53q295 0 344 -258l-262 -115q-26 119 -117 119q-68 0 -126 -43t-96.5 -112t-66 -157.5t-39.5 -177.5t-12 -174q0 -254 186 -254q47 0 94 10t81 22t104 40l55 -236q-90 -39 -171.5 -60.5t-186.5 -25.5 q-4 -10 -4 -26q0 -15 16 -29t39 -27.5t45.5 -30.5t38.5 -45t16 -63q0 -71 -43 -122t-104 -73t-129 -22q-119 0 -228 66l80 157q67 -51 135 -51q66 0 66 35q0 21 -21 38t-45.5 27.5t-45.5 32t-21 49.5q0 42 37 95q-181 29 -265.5 144t-84.5 312z" />
<glyph unicode="&#xc8;" horiz-adv-x="1064" d="M14 0l267 1370h852l-56 -248h-512l-57 -280h420l-54 -248h-411l-70 -346h525v-248h-904zM238 1708q2 5 5.5 13.5t18 35t33 52t52.5 60t75 64.5q44 -57 98 -111.5t100 -91.5t85.5 -65.5t62.5 -42.5l23 -14l-113 -166q-11 3 -30.5 9t-75.5 29t-108 51t-116 75.5t-110 101.5 z" />
<glyph unicode="&#xc9;" horiz-adv-x="1064" d="M14 0l267 1370h852l-56 -248h-512l-57 -280h420l-54 -248h-411l-70 -346h525v-248h-904zM571 1616q9 9 24.5 25.5t64.5 60.5t99 82t121.5 80t137.5 65q4 -4 10.5 -11t25 -31.5t34.5 -52t33.5 -71.5t27.5 -90q-105 -29 -222.5 -86.5t-182.5 -100.5l-66 -42z" />
<glyph unicode="&#xca;" horiz-adv-x="1064" d="M14 0l267 1370h852l-56 -248h-512l-57 -280h420l-54 -248h-411l-70 -346h525v-248h-904zM358 1645q26 22 70.5 58t159.5 118.5t203 130.5q56 -78 135.5 -156t131.5 -117l52 -39l-111 -167q-17 5 -45.5 15t-101 52t-127.5 96l-262 -163z" />
<glyph unicode="&#xcb;" horiz-adv-x="1064" d="M14 0l267 1370h852l-56 -248h-512l-57 -280h420l-54 -248h-411l-70 -346h525v-248h-904zM348 1657q0 72 46.5 120t125.5 48q76 0 115 -38.5t39 -109.5q0 -68 -49 -116t-127 -48q-74 0 -112 39t-38 105zM795 1657q0 71 46.5 119.5t123.5 48.5q76 0 114.5 -38.5 t38.5 -109.5q0 -68 -48.5 -116t-125.5 -48q-74 0 -111.5 39t-37.5 105z" />
<glyph unicode="&#xcc;" horiz-adv-x="628" d="M-14 1708q2 5 5.5 13.5t17.5 35t33 52t52.5 60t73.5 64.5q44 -57 98.5 -111.5t101 -91.5t86 -65.5t62.5 -42.5l23 -14l-113 -166q-11 3 -30.5 9t-76 29t-108.5 51t-115.5 75.5t-109.5 101.5zM14 0l267 1370h331l-266 -1370h-332z" />
<glyph unicode="&#xcd;" horiz-adv-x="628" d="M14 0l267 1370h331l-266 -1370h-332zM319 1616q9 9 24.5 25.5t64 60.5t98.5 82t121.5 80t138.5 65q4 -4 10.5 -11t24.5 -31.5t33.5 -52t33 -71.5t27.5 -90q-105 -29 -222 -86.5t-182 -100.5l-65 -42z" />
<glyph unicode="&#xce;" horiz-adv-x="628" d="M14 0l267 1370h331l-266 -1370h-332zM106 1645q26 22 70 58t158.5 118.5t202.5 130.5q56 -78 136.5 -156t132.5 -117l52 -39l-113 -167q-17 5 -45 15t-100 52t-127 96l-262 -163z" />
<glyph unicode="&#xcf;" horiz-adv-x="628" d="M14 0l267 1370h331l-266 -1370h-332zM94 1657q0 72 46.5 120t125.5 48q76 0 115 -38.5t39 -109.5q0 -68 -48.5 -116t-125.5 -48q-75 0 -113.5 39t-38.5 105zM541 1657q0 71 46.5 119.5t123.5 48.5q76 0 114.5 -38.5t38.5 -109.5q0 -69 -47.5 -116.5t-126.5 -47.5 q-74 0 -111.5 39t-37.5 105z" />
<glyph unicode="&#xd0;" horiz-adv-x="1339" d="M-4 586l47 250h137l107 544l213 -16q152 31 299 31q475 0 475 -467q0 -168 -25.5 -304.5t-86.5 -255.5t-156.5 -199.5t-240.5 -126.5t-333 -46q-80 0 -183 2t-104 2h-125l113 586h-137zM403 256h86q111 0 196 51t135 140.5t75 202t25 245.5q0 250 -189 250 q-91 0 -160 -17l-57 -292h236l-50 -250h-235z" />
<glyph unicode="&#xd1;" horiz-adv-x="1404" d="M14 37l254 1333h275l303 -696q12 -27 40 -100t40 -101q8 126 20 195l115 721l317 -52l-252 -1339h-276l-311 704q-13 28 -74 189q-17 -165 -21 -193l-114 -710zM662 1620l26 133q51 29 117 29q21 0 60 -12.5t73 -12.5q20 0 48 4.5t46 9.5l19 5l-29 -134q-49 -28 -115 -28 q-23 0 -62.5 12t-72.5 12q-20 0 -47.5 -4.5t-44.5 -9.5z" />
<glyph unicode="&#xd2;" d="M66 440q0 148 28.5 285.5t90 260t149 213t214 143.5t277.5 53q478 0 478 -467q0 -147 -29 -285t-90.5 -261t-149.5 -214.5t-215 -145t-278 -53.5q-475 0 -475 471zM369 1708q2 5 5.5 13.5t17.5 35t33 52t52.5 60t73.5 64.5q44 -57 98.5 -111.5t101 -91.5t86 -65.5 t62.5 -42.5l23 -14l-113 -166q-11 3 -30.5 9t-76 29t-108.5 51t-115.5 75.5t-109.5 101.5zM422 477q0 -254 186 -254q68 0 125.5 43.5t96.5 114t66 160t39.5 179.5t12.5 175q0 246 -186 246q-68 0 -125.5 -43t-96.5 -112.5t-66 -157.5t-39.5 -177.5t-12.5 -173.5z" />
<glyph unicode="&#xd3;" d="M66 440q0 148 28.5 285.5t90 260t149 213t214 143.5t277.5 53q478 0 478 -467q0 -147 -29 -285t-90.5 -261t-149.5 -214.5t-215 -145t-278 -53.5q-475 0 -475 471zM422 477q0 -254 186 -254q68 0 125.5 43.5t96.5 114t66 160t39.5 179.5t12.5 175q0 246 -186 246 q-68 0 -125.5 -43t-96.5 -112.5t-66 -157.5t-39.5 -177.5t-12.5 -173.5zM702 1616q9 9 24.5 25.5t64 60.5t98.5 82t121.5 80t138.5 65q4 -4 10.5 -11t24.5 -31.5t33.5 -52t33 -71.5t27.5 -90q-105 -29 -222 -86.5t-182 -100.5l-65 -42z" />
<glyph unicode="&#xd4;" d="M66 440q0 148 28.5 285.5t90 260t149 213t214 143.5t277.5 53q478 0 478 -467q0 -147 -29 -285t-90.5 -261t-149.5 -214.5t-215 -145t-278 -53.5q-475 0 -475 471zM422 477q0 -254 186 -254q68 0 125.5 43.5t96.5 114t66 160t39.5 179.5t12.5 175q0 246 -186 246 q-68 0 -125.5 -43t-96.5 -112.5t-66 -157.5t-39.5 -177.5t-12.5 -173.5zM489 1645q26 22 70 58t158.5 118.5t202.5 130.5q56 -78 136.5 -156t132.5 -117l52 -39l-113 -167q-17 5 -45 15t-100 52t-127 96l-262 -163z" />
<glyph unicode="&#xd5;" d="M66 440q0 148 28.5 285.5t90 260t149 213t214 143.5t277.5 53q478 0 478 -467q0 -147 -29 -285t-90.5 -261t-149.5 -214.5t-215 -145t-278 -53.5q-475 0 -475 471zM422 477q0 -254 186 -254q68 0 125.5 43.5t96.5 114t66 160t39.5 179.5t12.5 175q0 246 -186 246 q-68 0 -125.5 -43t-96.5 -112.5t-66 -157.5t-39.5 -177.5t-12.5 -173.5zM674 1620l26 133q52 29 115 29q23 0 62.5 -12.5t72.5 -12.5q20 0 47.5 4.5t45.5 9.5l18 5l-27 -134q-51 -28 -114 -28q-23 0 -63 12t-73 12q-20 0 -47.5 -4.5t-44.5 -9.5z" />
<glyph unicode="&#xd6;" d="M66 440q0 148 28.5 285.5t90 260t149 213t214 143.5t277.5 53q478 0 478 -467q0 -147 -29 -285t-90.5 -261t-149.5 -214.5t-215 -145t-278 -53.5q-475 0 -475 471zM422 477q0 -254 186 -254q68 0 125.5 43.5t96.5 114t66 160t39.5 179.5t12.5 175q0 246 -186 246 q-68 0 -125.5 -43t-96.5 -112.5t-66 -157.5t-39.5 -177.5t-12.5 -173.5zM477 1657q0 72 46.5 120t125.5 48q77 0 115.5 -38.5t38.5 -109.5q0 -68 -48.5 -116t-125.5 -48q-75 0 -113.5 39t-38.5 105zM924 1657q0 71 46.5 119.5t123.5 48.5q76 0 114.5 -38.5t38.5 -109.5 q0 -69 -47.5 -116.5t-126.5 -47.5q-74 0 -111.5 39t-37.5 105z" />
<glyph unicode="&#xd7;" horiz-adv-x="1077" d="M66 358l294 252l-190 244l213 174l186 -240l287 246l154 -198l-283 -244l199 -254l-213 -174l-195 250l-295 -252z" />
<glyph unicode="&#xd8;" d="M66 440q0 148 28.5 285.5t90 260t149 213t214 143.5t277.5 53q60 0 131 -11l80 138l213 -117l-69 -121q123 -117 123 -356q0 -147 -29 -285t-90.5 -261t-149.5 -214.5t-215 -145t-278 -53.5q-45 0 -129 13l-76 -129l-211 110l68 117q-127 118 -127 360zM422 473l391 668 q-24 4 -51 4q-79 0 -144 -57t-105 -149t-63 -195t-28 -207v-64zM557 227q16 -4 51 -4q74 0 137 52t103 136t64.5 182.5t29.5 199.5l4 96z" />
<glyph unicode="&#xd9;" horiz-adv-x="1343" d="M76 383q0 65 16 147l164 840h332l-164 -838q-10 -49 -10 -106q0 -94 44.5 -145.5t121.5 -51.5q96 0 161.5 87t94.5 233l161 821h332l-166 -856q-17 -89 -49 -165t-84.5 -144t-122.5 -115.5t-168 -75.5t-215 -28q-120 0 -208.5 29.5t-140 84.5t-75.5 125t-24 158z M350 1708q2 5 5.5 13.5t17.5 35t33 52t52.5 60t73.5 64.5q44 -57 98.5 -111.5t101 -91.5t86 -65.5t62.5 -42.5l23 -14l-112 -166q-11 3 -31 9t-76.5 29t-108.5 51t-115.5 75.5t-109.5 101.5z" />
<glyph unicode="&#xda;" horiz-adv-x="1343" d="M76 383q0 65 16 147l164 840h332l-164 -838q-10 -49 -10 -106q0 -94 44.5 -145.5t121.5 -51.5q96 0 161.5 87t94.5 233l161 821h332l-166 -856q-17 -89 -49 -165t-84.5 -144t-122.5 -115.5t-168 -75.5t-215 -28q-120 0 -208.5 29.5t-140 84.5t-75.5 125t-24 158z M684 1616q8 9 23.5 25.5t64.5 60.5t98.5 82t121 80t138.5 65q4 -4 10.5 -11t25 -31.5t34 -52t33 -71.5t27.5 -90q-105 -29 -222 -86.5t-182 -100.5l-65 -42z" />
<glyph unicode="&#xdb;" horiz-adv-x="1343" d="M76 383q0 65 16 147l164 840h332l-164 -838q-10 -49 -10 -106q0 -94 44.5 -145.5t121.5 -51.5q96 0 161.5 87t94.5 233l161 821h332l-166 -856q-17 -89 -49 -165t-84.5 -144t-122.5 -115.5t-168 -75.5t-215 -28q-120 0 -208.5 29.5t-140 84.5t-75.5 125t-24 158z M471 1645q26 22 70 58t158 118.5t202 130.5q56 -78 136.5 -156t132.5 -117l53 -39l-113 -167q-17 5 -45 15t-100 52t-127 96l-263 -163z" />
<glyph unicode="&#xdc;" horiz-adv-x="1343" d="M76 383q0 65 16 147l164 840h332l-164 -838q-10 -49 -10 -106q0 -94 44.5 -145.5t121.5 -51.5q96 0 161.5 87t94.5 233l161 821h332l-166 -856q-17 -89 -49 -165t-84.5 -144t-122.5 -115.5t-168 -75.5t-215 -28q-120 0 -208.5 29.5t-140 84.5t-75.5 125t-24 158z M459 1657q0 72 46.5 120t125.5 48q76 0 114.5 -38.5t38.5 -109.5q0 -68 -48.5 -116t-125.5 -48q-75 0 -113 39t-38 105zM905 1657q0 71 46.5 119.5t123.5 48.5t115.5 -38.5t38.5 -109.5q0 -69 -47.5 -116.5t-126.5 -47.5q-74 0 -112 39t-38 105z" />
<glyph unicode="&#xdd;" horiz-adv-x="960" d="M57 1370h336l107 -434q83 160 188.5 277.5t212.5 189.5l197 -158q-62 -59 -99.5 -96.5t-92 -95t-87.5 -101t-75 -106t-67 -119t-52.5 -131.5t-42 -151.5t-24 -170t-9.5 -196.5v-78h-330v82q0 260 92 477zM475 1616q9 9 24.5 25.5t64.5 60.5t99 82t121.5 80t137.5 65 q4 -4 10.5 -11t25 -31.5t34.5 -52t33.5 -71.5t27.5 -90q-105 -29 -222.5 -86.5t-182.5 -100.5l-66 -42z" />
<glyph unicode="&#xde;" horiz-adv-x="1112" d="M14 0l265 1370h331l-45 -231q35 4 99 4q198 0 309.5 -80t111.5 -254q0 -105 -32.5 -194.5t-88 -152.5t-129.5 -107.5t-158 -65.5t-173 -21q-74 0 -107 2l-51 -270h-332zM449 526h59q97 0 163 62.5t66 167.5q0 149 -145 149q-42 0 -72 -6z" />
<glyph unicode="&#xdf;" horiz-adv-x="1193" d="M-252 -236q138 63 204.5 136.5t90.5 197.5l168 883q22 116 66.5 205t117.5 157.5t184.5 105t256.5 36.5q182 0 265 -69t83 -181q0 -56 -16 -103.5t-42 -80.5t-57 -61.5t-62.5 -51.5t-57.5 -44.5t-42 -46t-16 -50.5q0 -36 23.5 -70.5t56.5 -65.5t66.5 -66.5t57 -89 t23.5 -118.5q0 -166 -123 -283.5t-311 -117.5q-174 0 -276 71l112 215q63 -41 135 -41q63 0 96 29t33 82q0 33 -16 62.5t-39.5 51t-51 49t-51 55t-39.5 71t-16 94.5q0 63 21.5 117t53 88t69 66.5t69 55.5t53 51.5t21.5 57.5q0 36 -27 56t-73 20q-91 0 -144 -57t-75 -170 l-174 -908q-18 -93 -53 -168.5t-76 -128.5t-106 -103t-122.5 -83t-144.5 -76z" />
<glyph unicode="&#xe0;" horiz-adv-x="1087" d="M45 334q0 198 66.5 353.5t201.5 248t320 92.5q127 0 233 -49l164 -10l-86 -447q-20 -94 -20 -174q0 -83 19.5 -143.5t62.5 -126.5l-258 -103q-74 85 -74 197q0 72 6 127l-27 -57q-123 -260 -327 -260q-74 0 -130 31t-88 82.5t-47.5 112t-15.5 126.5zM268 1442 q3 4 8.5 11.5t26 29.5t45 42.5t65.5 46t87 44.5q29 -65 69 -130.5t76 -113t67.5 -85t50.5 -56.5l19 -19l-149 -135l-27.5 16.5t-67 47t-93 76t-94.5 101t-83 124.5zM377 328q0 -105 47 -105q39 0 87 77.5t85.5 181.5t62.5 210l21 92q-24 9 -62 9q-66 0 -116 -51t-75.5 -129 t-37.5 -150.5t-12 -134.5z" />
<glyph unicode="&#xe1;" horiz-adv-x="1087" d="M45 334q0 198 66.5 353.5t201.5 248t320 92.5q127 0 233 -49l164 -10l-86 -447q-20 -94 -20 -174q0 -83 19.5 -143.5t62.5 -126.5l-258 -103q-74 85 -74 197q0 72 6 127l-27 -57q-123 -260 -327 -260q-74 0 -130 31t-88 82.5t-47.5 112t-15.5 126.5zM377 328 q0 -105 47 -105q39 0 87 77.5t85.5 181.5t62.5 210l21 92q-24 9 -62 9q-66 0 -116 -51t-75.5 -129t-37.5 -150.5t-12 -134.5zM494 1229q7 11 19.5 29.5t52.5 71t82.5 99t105 100t123.5 87.5q5 -3 12.5 -9t30 -26.5t43 -45t45.5 -65t43 -84.5q-98 -47 -203 -124.5 t-161 -131.5l-56 -53z" />
<glyph unicode="&#xe2;" horiz-adv-x="1087" d="M45 334q0 198 66.5 353.5t201.5 248t320 92.5q127 0 233 -49l164 -10l-86 -447q-20 -94 -20 -174q0 -83 19.5 -143.5t62.5 -126.5l-258 -103q-74 85 -74 197q0 72 6 127l-27 -57q-123 -260 -327 -260q-74 0 -130 31t-88 82.5t-47.5 112t-15.5 126.5zM252 1229 q11 11 30 30.5t75.5 74.5t109.5 103t120.5 104t119.5 91q61 -92 138 -193t124 -155l47 -55l-150 -135q-13 8 -35.5 22.5t-82.5 63.5t-109 102l-236 -188zM377 328q0 -105 47 -105q39 0 87 77.5t85.5 181.5t62.5 210l21 92q-24 9 -62 9q-66 0 -116 -51t-75.5 -129 t-37.5 -150.5t-12 -134.5z" />
<glyph unicode="&#xe3;" horiz-adv-x="1087" d="M45 334q0 198 66.5 353.5t201.5 248t320 92.5q127 0 233 -49l164 -10l-86 -447q-20 -94 -20 -174q0 -83 19.5 -143.5t62.5 -126.5l-258 -103q-74 85 -74 197q0 72 6 127l-27 -57q-123 -260 -327 -260q-74 0 -130 31t-88 82.5t-47.5 112t-15.5 126.5zM297 1223l43 211 q10 6 27.5 14.5t69.5 22.5t100 14q46 0 135.5 -22.5t148.5 -22.5q40 0 88.5 8t76.5 16l28 9l-43 -211q-10 -6 -27.5 -14.5t-70 -23t-101.5 -14.5q-46 0 -136 22.5t-147 22.5q-40 0 -88 -8t-76 -16zM377 328q0 -105 47 -105q39 0 87 77.5t85.5 181.5t62.5 210l21 92 q-24 9 -62 9q-66 0 -116 -51t-75.5 -129t-37.5 -150.5t-12 -134.5z" />
<glyph unicode="&#xe4;" horiz-adv-x="1087" d="M45 334q0 198 66.5 353.5t201.5 248t320 92.5q127 0 233 -49l164 -10l-86 -447q-20 -94 -20 -174q0 -83 19.5 -143.5t62.5 -126.5l-258 -103q-74 85 -74 197q0 72 6 127l-27 -57q-123 -260 -327 -260q-74 0 -130 31t-88 82.5t-47.5 112t-15.5 126.5zM266 1307 q0 72 46.5 120t125.5 48q76 0 115 -38.5t39 -109.5q0 -68 -49 -116t-127 -48q-74 0 -112 39t-38 105zM377 328q0 -105 47 -105q39 0 87 77.5t85.5 181.5t62.5 210l21 92q-24 9 -62 9q-66 0 -116 -51t-75.5 -129t-37.5 -150.5t-12 -134.5zM711 1307q0 72 46.5 120t125.5 48 q76 0 114.5 -38.5t38.5 -109.5q0 -68 -48.5 -116t-125.5 -48q-75 0 -113 39t-38 105z" />
<glyph unicode="&#xe5;" horiz-adv-x="1083" d="M63 334q0 147 39 273.5t111.5 220t184.5 147t251 53.5q128 0 234 -49l166 -10l-88 -447q-19 -105 -19 -174q0 -84 19 -144.5t63 -125.5l-260 -103q-74 85 -74 197q0 45 6 127l-26 -57q-120 -260 -328 -260q-74 0 -129.5 31t-87 82.5t-47 112t-15.5 126.5zM393 328 q0 -105 49 -105q39 0 86.5 77t85.5 182t62 210l20 92q-24 9 -59 9q-54 0 -98 -35t-70.5 -87t-44 -117.5t-24.5 -122t-7 -103.5zM471 1313q0 113 76.5 191.5t195.5 78.5q91 0 143 -54t52 -140q0 -111 -76.5 -190t-195.5 -79q-91 0 -143 53.5t-52 139.5zM633 1327 q0 -27 15 -44t42 -17q37 0 61.5 32t24.5 74q0 28 -14.5 46t-40.5 18q-39 0 -63.5 -33t-24.5 -76z" />
<glyph unicode="&#xe6;" horiz-adv-x="1513" d="M45 334q0 198 66.5 353.5t201.5 248t320 92.5q140 0 270 -65q120 71 273 71q166 0 244.5 -67t78.5 -185q0 -171 -157.5 -286t-413.5 -140q0 -2 -2 -19t-2 -26q0 -49 27.5 -72.5t72.5 -23.5q35 0 111.5 21t136.5 42l59 21l68 -209q-26 -13 -70.5 -32.5t-159 -52 t-202.5 -32.5q-268 0 -344 213q-113 -204 -297 -204q-74 0 -130 31t-88 82.5t-47.5 112t-15.5 126.5zM377 328q0 -105 47 -105q39 0 87 77.5t85.5 181.5t62.5 210l21 92q-24 9 -62 9q-66 0 -116 -51t-75.5 -129t-37.5 -150.5t-12 -134.5zM958 580q103 13 165.5 62t62.5 99 q0 56 -60 56q-52 0 -97.5 -60t-70.5 -157z" />
<glyph unicode="&#xe7;" horiz-adv-x="823" d="M45 334q0 142 39 268.5t110.5 223t182.5 152.5t246 56q60 0 105.5 -18t74.5 -51t46.5 -71.5t29.5 -88.5l-234 -90q-1 4 -5.5 16.5t-6.5 17.5t-7.5 14.5t-10.5 13.5t-14.5 7.5t-20.5 3.5q-49 0 -89.5 -45t-65 -114t-37.5 -145t-13 -146q0 -123 96 -123q40 0 199 49 l71 -217q-11 -6 -41.5 -17.5t-98 -29t-130.5 -23.5q-8 -20 -8 -30q0 -15 16.5 -29t39.5 -27.5t46 -30.5t39.5 -45t16.5 -63q0 -71 -43.5 -122t-104.5 -73t-129 -22q-121 0 -227 66l80 157q67 -51 135 -51q65 0 65 35q0 21 -21 38t-46.5 27.5t-46.5 32t-21 49.5q0 37 41 99 q-92 19 -152 73.5t-83 122.5t-23 150z" />
<glyph unicode="&#xe8;" horiz-adv-x="960" d="M45 334q0 142 39 268.5t111 223t182.5 152.5t245.5 56q165 0 244 -67t79 -185q0 -171 -159 -286.5t-414 -139.5q0 -4 -1 -21t-1 -24q0 -49 27.5 -72.5t72.5 -23.5q34 0 110 21t135 42l60 21l70 -209q-10 -5 -27 -13t-68 -28t-100.5 -35.5t-116 -28t-122.5 -12.5 q-80 0 -144 20.5t-105 54.5t-68 81.5t-38.5 98t-11.5 106.5zM266 1450q3 4 8.5 11.5t25.5 29.5t44.5 42.5t66 46t87.5 44.5q29 -65 68.5 -130.5t75.5 -112.5t67 -84.5t50 -56.5l19 -19l-149 -136l-27.5 16.5t-67 47t-93 76t-93.5 101t-82 124.5zM406 580q103 13 165 62 t62 99q0 56 -60 56q-53 0 -97.5 -59.5t-69.5 -157.5z" />
<glyph unicode="&#xe9;" horiz-adv-x="960" d="M45 334q0 142 39 268.5t111 223t182.5 152.5t245.5 56q165 0 244 -67t79 -185q0 -171 -159 -286.5t-414 -139.5q0 -4 -1 -21t-1 -24q0 -49 27.5 -72.5t72.5 -23.5q34 0 110 21t135 42l60 21l70 -209q-10 -5 -27 -13t-68 -28t-100.5 -35.5t-116 -28t-122.5 -12.5 q-80 0 -144 20.5t-105 54.5t-68 81.5t-38.5 98t-11.5 106.5zM406 580q103 13 165 62t62 99q0 56 -60 56q-53 0 -97.5 -59.5t-69.5 -157.5zM504 1237q7 11 19.5 29.5t52.5 71t82.5 99t105 100t123.5 87.5q5 -3 12.5 -8.5t30 -26.5t43 -45t45.5 -64.5t43 -84.5 q-98 -47 -203.5 -124.5t-161.5 -131.5l-57 -54z" />
<glyph unicode="&#xea;" horiz-adv-x="960" d="M45 334q0 142 39 268.5t111 223t182.5 152.5t245.5 56q165 0 244 -67t79 -185q0 -171 -159 -286.5t-414 -139.5q0 -4 -1 -21t-1 -24q0 -49 27.5 -72.5t72.5 -23.5q34 0 110 21t135 42l60 21l70 -209q-10 -5 -27 -13t-68 -28t-100.5 -35.5t-116 -28t-122.5 -12.5 q-80 0 -144 20.5t-105 54.5t-68 81.5t-38.5 98t-11.5 106.5zM281 1237q30 31 79.5 80.5t170.5 158t204 164.5q61 -92 138 -193t124 -155l47 -55l-149 -135q-13 8 -35.5 22.5t-83 63.5t-108.5 102l-238 -188zM406 580q103 13 165 62t62 99q0 56 -60 56q-53 0 -97.5 -59.5 t-69.5 -157.5z" />
<glyph unicode="&#xeb;" horiz-adv-x="960" d="M45 334q0 142 39 268.5t111 223t182.5 152.5t245.5 56q165 0 244 -67t79 -185q0 -171 -159 -286.5t-414 -139.5q0 -4 -1 -21t-1 -24q0 -49 27.5 -72.5t72.5 -23.5q34 0 110 21t135 42l60 21l70 -209q-10 -5 -27 -13t-68 -28t-100.5 -35.5t-116 -28t-122.5 -12.5 q-80 0 -144 20.5t-105 54.5t-68 81.5t-38.5 98t-11.5 106.5zM293 1315q0 72 46.5 120t125.5 48q76 0 114.5 -38.5t38.5 -109.5q0 -68 -48.5 -116t-125.5 -48q-75 0 -113 39t-38 105zM406 580q103 13 165 62t62 99q0 56 -60 56q-53 0 -97.5 -59.5t-69.5 -157.5zM739 1315 q0 71 46.5 119.5t123.5 48.5t115.5 -38.5t38.5 -109.5q0 -69 -47.5 -116.5t-126.5 -47.5q-74 0 -112 39t-38 105z" />
<glyph unicode="&#xec;" horiz-adv-x="608" d="M55 184q0 18 8 64l152 756h313l-133 -678q-8 -47 -8 -54q0 -36 27 -36q26 0 92 22v-221q-12 -6 -33 -14.5t-80 -22.5t-110 -14q-106 0 -167 54t-61 144zM72 1477q11 9 32.5 24.5t87 53t132.5 61.5q41 -98 93.5 -204.5t84.5 -163.5l33 -58l-166 -113q-20 20 -53 55.5 t-112 140.5t-132 204z" />
<glyph unicode="&#xed;" horiz-adv-x="608" d="M55 184q0 18 8 64l152 756h313l-133 -678q-8 -47 -8 -54q0 -36 27 -36q26 0 92 22v-221q-12 -6 -33 -14.5t-80 -22.5t-110 -14q-106 0 -167 54t-61 144zM231 1192q4 10 12 27t34.5 68t56 100t75 113t93.5 116q5 -3 13.5 -8t34.5 -22.5t50.5 -37.5t58 -52t60.5 -66 q-75 -68 -155.5 -156t-123.5 -142l-43 -55z" />
<glyph unicode="&#xee;" horiz-adv-x="608" d="M55 184q0 18 8 64l152 756h313l-133 -678q-8 -47 -8 -54q0 -36 27 -36q26 0 92 22v-221q-12 -6 -33 -14.5t-80 -22.5t-110 -14q-106 0 -167 54t-61 144zM88 1202q10 12 27.5 32t69 76t100 105.5t110 106.5t109.5 92q50 -87 99.5 -194t74.5 -170l24 -64l-167 -113 q-55 74 -123 187q-42 -47 -85 -94t-65 -70l-22 -23z" />
<glyph unicode="&#xef;" horiz-adv-x="608" d="M55 184q0 18 8 64l152 756h313l-133 -678q-8 -47 -8 -54q0 -36 27 -36q26 0 92 22v-221q-12 -6 -33 -14.5t-80 -22.5t-110 -14q-106 0 -167 54t-61 144zM78 1331q0 70 46.5 117t123.5 47q75 0 113 -37t38 -106q0 -68 -48 -116t-124 -48q-74 0 -111.5 38.5t-37.5 104.5z M451 1331q0 70 45 117t122 47q75 0 113.5 -37t38.5 -106q0 -68 -47.5 -116t-124.5 -48q-73 0 -110 38.5t-37 104.5z" />
<glyph unicode="&#xf0;" horiz-adv-x="1026" d="M45 334q0 142 38 268.5t107 222.5t173.5 152.5t228.5 56.5q64 0 131 -43q-27 56 -68 111l-192 -60l-55 185l124 35l-53 61l197 164q82 -64 141 -141l203 57l51 -189l-156 -38q78 -177 78 -412q0 -120 -17 -229t-59.5 -213.5t-107 -180.5t-166.5 -122t-231 -46 q-80 0 -144 20.5t-105 54.5t-68 81.5t-38.5 98t-11.5 106.5zM375 319q0 -116 80 -116q61 0 109.5 82t70.5 190t22 209q0 121 -77 121q-47 0 -87.5 -48t-65.5 -122t-38.5 -157t-13.5 -159z" />
<glyph unicode="&#xf1;" horiz-adv-x="1130" d="M25 0l104 524q21 102 21 176q0 124 -64 232l258 100q57 -63 57 -170q0 -45 -14 -151l27 57q63 134 151.5 197t210.5 63q256 0 256 -254q0 -98 -31 -204t-61.5 -197t-30.5 -152q0 -99 27 -221h-320q-14 82 -14 156q0 82 28 183.5t55.5 197.5t27.5 165q0 64 -49 64 t-104 -70t-95 -168.5t-59 -195.5l-64 -332h-317zM440 1223l43 211q10 6 27.5 14.5t70 22.5t101.5 14q46 0 135 -22.5t148 -22.5q40 0 88 8t76 16l28 9l-43 -211q-10 -6 -27.5 -14.5t-70 -23t-101.5 -14.5q-46 0 -134.5 22.5t-147.5 22.5q-40 0 -88.5 -8t-76.5 -16z" />
<glyph unicode="&#xf2;" horiz-adv-x="1034" d="M45 334q0 142 39 268.5t110.5 223t182.5 152.5t246 56q100 0 174 -31t114.5 -84.5t59 -115t18.5 -133.5q0 -115 -24 -219t-72 -191t-116.5 -151t-162 -100t-202.5 -36q-80 0 -144 20.5t-105 54.5t-68 81.5t-38.5 98t-11.5 106.5zM262 1450q3 4 8.5 11.5t26 29.5t45 42.5 t65.5 46t87 44.5q29 -65 69 -130.5t76 -112.5t67.5 -84.5t50.5 -56.5l19 -19l-149 -136l-27.5 16.5t-67 47t-93 76t-94.5 101t-83 124.5zM375 319q0 -116 80 -116q61 0 109.5 82t70.5 190t22 209q0 121 -77 121q-47 0 -87.5 -48t-65.5 -122t-38.5 -157t-13.5 -159z" />
<glyph unicode="&#xf3;" horiz-adv-x="1034" d="M45 334q0 142 39 268.5t110.5 223t182.5 152.5t246 56q100 0 174 -31t114.5 -84.5t59 -115t18.5 -133.5q0 -115 -24 -219t-72 -191t-116.5 -151t-162 -100t-202.5 -36q-80 0 -144 20.5t-105 54.5t-68 81.5t-38.5 98t-11.5 106.5zM375 319q0 -116 80 -116q61 0 109.5 82 t70.5 190t22 209q0 121 -77 121q-47 0 -87.5 -48t-65.5 -122t-38.5 -157t-13.5 -159zM504 1237q7 11 19 29.5t52.5 71t82.5 99t105 100t124 87.5q5 -3 12.5 -8.5t30 -26.5t43 -45t45.5 -64.5t43 -84.5q-98 -47 -203.5 -124.5t-161.5 -131.5l-57 -54z" />
<glyph unicode="&#xf4;" horiz-adv-x="1034" d="M45 334q0 142 39 268.5t110.5 223t182.5 152.5t246 56q100 0 174 -31t114.5 -84.5t59 -115t18.5 -133.5q0 -115 -24 -219t-72 -191t-116.5 -151t-162 -100t-202.5 -36q-80 0 -144 20.5t-105 54.5t-68 81.5t-38.5 98t-11.5 106.5zM276 1237q11 11 30 30.5t75.5 74.5 t109.5 103t120.5 104t119.5 91q61 -92 138 -193t124 -155l47 -55l-149 -135q-13 8 -35.5 22.5t-82.5 63.5t-109 102l-236 -188zM375 319q0 -116 80 -116q61 0 109.5 82t70.5 190t22 209q0 121 -77 121q-47 0 -87.5 -48t-65.5 -122t-38.5 -157t-13.5 -159z" />
<glyph unicode="&#xf5;" horiz-adv-x="1034" d="M45 334q0 142 39 268.5t110.5 223t182.5 152.5t246 56q100 0 174 -31t114.5 -84.5t59 -115t18.5 -133.5q0 -115 -24 -219t-72 -191t-116.5 -151t-162 -100t-202.5 -36q-80 0 -144 20.5t-105 54.5t-68 81.5t-38.5 98t-11.5 106.5zM311 1231l43 211q10 6 27.5 14.5t70 22.5 t101.5 14q46 0 136 -22.5t147 -22.5q40 0 88 8t76 16l28 9l-43 -211q-10 -6 -27.5 -14.5t-69.5 -22.5t-100 -14q-46 0 -135.5 22.5t-148.5 22.5q-40 0 -88.5 -8t-76.5 -16zM375 319q0 -116 80 -116q61 0 109.5 82t70.5 190t22 209q0 121 -77 121q-47 0 -87.5 -48t-65.5 -122 t-38.5 -157t-13.5 -159z" />
<glyph unicode="&#xf6;" horiz-adv-x="1034" d="M45 334q0 142 39 268.5t110.5 223t182.5 152.5t246 56q100 0 174 -31t114.5 -84.5t59 -115t18.5 -133.5q0 -115 -24 -219t-72 -191t-116.5 -151t-162 -100t-202.5 -36q-80 0 -144 20.5t-105 54.5t-68 81.5t-38.5 98t-11.5 106.5zM291 1315q0 72 46.5 120t125.5 48 q76 0 114.5 -38.5t38.5 -109.5q0 -68 -49 -116t-127 -48q-74 0 -111.5 39t-37.5 105zM375 319q0 -116 80 -116q61 0 109.5 82t70.5 190t22 209q0 121 -77 121q-47 0 -87.5 -48t-65.5 -122t-38.5 -157t-13.5 -159zM735 1315q0 72 46.5 120t125.5 48q77 0 115.5 -38.5 t38.5 -109.5q0 -68 -48.5 -116t-125.5 -48q-75 0 -113.5 39t-38.5 105z" />
<glyph unicode="&#xf7;" horiz-adv-x="983" d="M45 526l47 250h836l-45 -250h-838zM268 262q0 71 47 118.5t127 47.5q75 0 113.5 -38t38.5 -105q0 -68 -47.5 -115t-124.5 -47q-76 0 -115 37.5t-39 101.5zM385 1010q0 70 47.5 118t124.5 48q76 0 114 -38.5t38 -107.5q0 -68 -46.5 -115t-123.5 -47q-76 0 -115 38.5 t-39 103.5z" />
<glyph unicode="&#xf8;" horiz-adv-x="1034" d="M45 334q0 142 39 268.5t110.5 223t182.5 152.5t246 56q63 0 133 -18l80 119l131 -88l-72 -111q94 -97 94 -266q0 -115 -24 -219t-72 -191t-116.5 -151t-162 -100t-202.5 -36q-64 0 -138 19l-79 -121l-134 90l76 111q-92 95 -92 262zM379 442l237 363q-13 8 -36 8 q-43 0 -80 -33.5t-61 -88t-39.5 -118.5t-20.5 -131zM414 203q16 -8 41 -8q56 0 100.5 58.5t67.5 140t30 173.5z" />
<glyph unicode="&#xf9;" horiz-adv-x="1120" d="M55 236q0 72 18.5 156t40 147t40 136t18.5 126q0 90 -20 157l274 68q57 -117 57 -238q0 -84 -53 -245t-53 -238q0 -61 47 -61q49 0 104 70t95 168.5t59 195.5l66 332h315l-105 -525q-20 -97 -20 -174q0 -56 15.5 -110t26 -73.5t28.5 -49.5l-258 -103q-62 71 -62 179 q0 39 12 145l-26 -57q-62 -134 -151 -197t-212 -63q-256 0 -256 254zM274 1442q3 4 8.5 11.5t26 29.5t45 42.5t66.5 46t88 44.5q29 -65 68 -130.5t75 -113t67.5 -85t50.5 -56.5l19 -19l-149 -135l-27.5 16.5t-67 47t-93 76t-94.5 101t-83 124.5z" />
<glyph unicode="&#xfa;" horiz-adv-x="1120" d="M55 236q0 72 18.5 156t40 147t40 136t18.5 126q0 90 -20 157l274 68q57 -117 57 -238q0 -84 -53 -245t-53 -238q0 -61 47 -61q49 0 104 70t95 168.5t59 195.5l66 332h315l-105 -525q-20 -97 -20 -174q0 -56 15.5 -110t26 -73.5t28.5 -49.5l-258 -103q-62 71 -62 179 q0 39 12 145l-26 -57q-62 -134 -151 -197t-212 -63q-256 0 -256 254zM516 1229q7 11 19.5 29.5t52.5 71t82.5 99t105 100t123.5 87.5q5 -3 12.5 -9t30 -26.5t43 -45t45.5 -65t43 -84.5q-98 -47 -203 -124.5t-161 -131.5l-56 -53z" />
<glyph unicode="&#xfb;" horiz-adv-x="1120" d="M55 236q0 72 18.5 156t40 147t40 136t18.5 126q0 90 -20 157l274 68q57 -117 57 -238q0 -84 -53 -245t-53 -238q0 -61 47 -61q49 0 104 70t95 168.5t59 195.5l66 332h315l-105 -525q-20 -97 -20 -174q0 -56 15.5 -110t26 -73.5t28.5 -49.5l-258 -103q-62 71 -62 179 q0 39 12 145l-26 -57q-62 -134 -151 -197t-212 -63q-256 0 -256 254zM291 1229q30 31 79.5 80.5t170 158t202.5 164.5q61 -92 138.5 -193t124.5 -155l47 -55l-150 -135q-13 8 -35.5 22.5t-82 63.5t-107.5 102l-238 -188z" />
<glyph unicode="&#xfc;" horiz-adv-x="1120" d="M55 236q0 72 18.5 156t40 147t40 136t18.5 126q0 90 -20 157l274 68q57 -117 57 -238q0 -84 -53 -245t-53 -238q0 -61 47 -61q49 0 104 70t95 168.5t59 195.5l66 332h315l-105 -525q-20 -97 -20 -174q0 -56 15.5 -110t26 -73.5t28.5 -49.5l-258 -103q-62 71 -62 179 q0 39 12 145l-26 -57q-62 -134 -151 -197t-212 -63q-256 0 -256 254zM303 1307q0 72 46.5 120t125.5 48q77 0 115.5 -38.5t38.5 -109.5q0 -68 -48.5 -116t-127.5 -48q-74 0 -112 39t-38 105zM750 1307q0 71 46.5 119.5t123.5 48.5q76 0 114.5 -38.5t38.5 -109.5 q0 -68 -48.5 -116t-125.5 -48q-74 0 -111.5 39t-37.5 105z" />
<glyph unicode="&#xfd;" horiz-adv-x="1126" d="M61 -332l115 244q225 -94 350 -94q80 0 124 45.5t44 111.5q0 22 -1 66.5t-1 85.5q0 21 2.5 49.5t7.5 68.5l7 56l-27 -59q-62 -134 -151 -197t-212 -63q-256 0 -256 254q0 72 18.5 156t40 147t40 136t18.5 126q0 90 -20 157l274 68q58 -119 58 -238q0 -84 -54.5 -245 t-54.5 -238q0 -61 49 -61t104 70t95 168.5t59 195.5l66 332h315q-11 -54 -25.5 -127.5t-23 -116.5t-19.5 -99.5t-17.5 -89.5t-14 -73.5t-11.5 -65t-7.5 -50t-5 -41.5t-1.5 -28q0 -71 16.5 -185.5t16.5 -188.5q0 -197 -115.5 -298.5t-318.5 -101.5q-78 0 -152.5 12t-140 34 t-104 38t-87.5 39zM510 1229q7 11 19 29.5t52.5 71t82.5 99t105 100t124 87.5l12 -9t30 -26.5t42.5 -45t45 -65t42.5 -84.5q-97 -47 -202 -124.5t-161 -131.5l-57 -53z" />
<glyph unicode="&#xfe;" horiz-adv-x="1079" d="M-47 -455l369 1899l319 41l-43 -234q-11 -61 -31.5 -126t-35 -102t-57 -135.5t-60.5 -142.5q84 155 165.5 219t174.5 64q59 0 107.5 -21t80 -55t53 -80.5t30.5 -95t9 -100.5q0 -198 -66.5 -353.5t-201.5 -248t-320 -92.5q-38 0 -96 8l-78 -404zM397 225q27 -8 64 -8 q66 0 116 51t75.5 129t37.5 150.5t12 134.5q0 104 -47 104q-58 0 -126 -150.5t-115 -342.5z" />
<glyph unicode="&#xff;" horiz-adv-x="1126" d="M61 -332l115 244q225 -94 350 -94q80 0 124 45.5t44 111.5q0 22 -1 66.5t-1 85.5q0 21 2.5 49.5t7.5 68.5l7 56l-27 -59q-62 -134 -151 -197t-212 -63q-256 0 -256 254q0 72 18.5 156t40 147t40 136t18.5 126q0 90 -20 157l274 68q58 -119 58 -238q0 -84 -54.5 -245 t-54.5 -238q0 -61 49 -61t104 70t95 168.5t59 195.5l66 332h315q-11 -54 -25.5 -127.5t-23 -116.5t-19.5 -99.5t-17.5 -89.5t-14 -73.5t-11.5 -65t-7.5 -50t-5 -41.5t-1.5 -28q0 -71 16.5 -185.5t16.5 -188.5q0 -197 -115.5 -298.5t-318.5 -101.5q-78 0 -152.5 12t-140 34 t-104 38t-87.5 39zM295 1307q0 72 46.5 120t125.5 48q77 0 115.5 -38.5t38.5 -109.5q0 -68 -49 -116t-126 -48q-75 0 -113 39t-38 105zM741 1307q0 71 46.5 119.5t123.5 48.5t115.5 -38.5t38.5 -109.5q0 -69 -47.5 -116.5t-126.5 -47.5q-74 0 -112 39t-38 105z" />
<glyph unicode="&#x152;" horiz-adv-x="1716" d="M66 440q0 147 28.5 284t89 257.5t146.5 210t208 141t267 51.5q71 0 139 -14h838l-53 -248h-504l-56 -280h410l-53 -248h-402l-69 -346h514v-248h-840q-93 -27 -188 -27q-248 0 -361.5 119t-113.5 348zM422 477q0 -254 186 -254q44 0 113 15l174 886q-61 17 -133 17 q-68 0 -126 -43t-96.5 -112t-66 -157.5t-39.5 -177.5t-12 -174z" />
<glyph unicode="&#x153;" horiz-adv-x="1544" d="M45 334q0 142 39 268.5t110.5 223t182.5 152.5t246 56q189 0 262 -114q130 114 319 114q167 0 246.5 -67t79.5 -185q0 -171 -159 -286.5t-415 -139.5q-2 -10 -2 -45q0 -49 27 -72.5t72 -23.5q35 0 111.5 21t135.5 42l60 21l70 -209q-10 -5 -27 -13t-68.5 -28 t-101.5 -35.5t-116.5 -28t-121.5 -12.5q-182 0 -264 111q-130 -111 -319 -111q-80 0 -144 20.5t-105 54.5t-68 81.5t-38.5 98t-11.5 106.5zM375 319q0 -116 80 -116q61 0 109.5 82t70.5 190t22 209q0 121 -77 121q-47 0 -87.5 -48t-65.5 -122t-38.5 -157t-13.5 -159z M987 580q105 13 167.5 61.5t62.5 99.5q0 56 -60 56q-53 0 -98 -59.5t-72 -157.5z" />
<glyph unicode="&#x178;" horiz-adv-x="960" d="M57 1370h336l107 -434q83 160 188.5 277.5t212.5 189.5l197 -158q-62 -59 -99.5 -96.5t-92 -95t-87.5 -101t-75 -106t-67 -119t-52.5 -131.5t-42 -151.5t-24 -170t-9.5 -196.5v-78h-330v82q0 260 92 477zM236 1657q0 72 46.5 120t125.5 48q76 0 114.5 -38.5t38.5 -109.5 q0 -68 -48.5 -116t-125.5 -48q-75 0 -113 39t-38 105zM682 1657q0 71 46.5 119.5t123.5 48.5q76 0 115 -38.5t39 -109.5q0 -69 -48 -116.5t-127 -47.5q-74 0 -111.5 39t-37.5 105z" />
<glyph unicode="&#x2c6;" horiz-adv-x="1021" d="M127 1212q30 31 80 81t171 158.5t204 164.5q61 -92 138 -193t124 -156l47 -55l-150 -135q-13 8 -35.5 23t-83 64t-108.5 102l-238 -189z" />
<glyph unicode="&#x2dc;" horiz-adv-x="1011" d="M145 1223l43 211q10 6 27.5 14.5t70 22.5t101.5 14q46 0 135 -22.5t148 -22.5q40 0 88 8t76 16l28 9l-43 -211q-10 -6 -27.5 -14.5t-69.5 -23t-101 -14.5q-46 0 -135 22.5t-148 22.5q-40 0 -88 -8t-76 -16z" />
<glyph unicode="&#x2000;" horiz-adv-x="976" />
<glyph unicode="&#x2001;" horiz-adv-x="1952" />
<glyph unicode="&#x2002;" horiz-adv-x="976" />
<glyph unicode="&#x2003;" horiz-adv-x="1952" />
<glyph unicode="&#x2004;" horiz-adv-x="650" />
<glyph unicode="&#x2005;" horiz-adv-x="488" />
<glyph unicode="&#x2006;" horiz-adv-x="325" />
<glyph unicode="&#x2007;" horiz-adv-x="325" />
<glyph unicode="&#x2008;" horiz-adv-x="244" />
<glyph unicode="&#x2009;" horiz-adv-x="390" />
<glyph unicode="&#x200a;" horiz-adv-x="108" />
<glyph unicode="&#x2010;" horiz-adv-x="829" d="M82 530l47 240h619l-46 -240h-620z" />
<glyph unicode="&#x2011;" horiz-adv-x="829" d="M82 530l47 240h619l-46 -240h-620z" />
<glyph unicode="&#x2012;" horiz-adv-x="829" d="M82 530l47 240h619l-46 -240h-620z" />
<glyph unicode="&#x2013;" horiz-adv-x="983" d="M-49 532l47 240h999l-43 -240h-1003z" />
<glyph unicode="&#x2014;" horiz-adv-x="1357" d="M-49 532l47 240h1374l-43 -240h-1378z" />
<glyph unicode="&#x2018;" horiz-adv-x="557" d="M201 1047q0 145 112 278.5t275 218.5l106 -174q-57 -36 -94 -72t-54 -72t-22.5 -66t-5.5 -70q0 -35 12 -146q-7 -5 -20.5 -12t-59.5 -19t-96 -12q-153 0 -153 146z" />
<glyph unicode="&#x2019;" horiz-adv-x="557" d="M121 1083q57 36 93.5 71.5t53 72t22 66t5.5 69.5q0 52 -10 145q7 5 20 12t58.5 19t95.5 12q81 0 117 -36.5t36 -108.5q0 -145 -110.5 -278.5t-274.5 -219.5z" />
<glyph unicode="&#x201a;" horiz-adv-x="581" d="M-84 -129q57 36 93.5 72t53 72.5t22 66.5t5.5 70q0 53 -10 145q7 5 20 12t58.5 19t95.5 12q154 0 154 -145t-111 -279.5t-274 -218.5z" />
<glyph unicode="&#x201c;" horiz-adv-x="954" d="M201 1047q0 145 112 278.5t275 218.5l106 -174q-57 -36 -94 -72t-54 -72t-22.5 -66t-5.5 -70q0 -35 12 -146q-7 -5 -20.5 -12t-59.5 -19t-96 -12q-153 0 -153 146zM645 1047q0 145 111 279t274 218l107 -174q-57 -36 -93.5 -72t-53 -72.5t-22 -66t-5.5 -69.5 q0 -54 10 -146q-7 -5 -20 -12t-58.5 -19t-95.5 -12q-154 0 -154 146z" />
<glyph unicode="&#x201d;" horiz-adv-x="954" d="M168 1079q57 36 93.5 72t53 72.5t22 66.5t5.5 70q0 56 -10 143q7 5 20 12t58.5 19t95.5 12q81 0 117 -36.5t36 -106.5q0 -145 -111 -279.5t-274 -218.5zM610 1079q57 36 94 72t54 72.5t22.5 66.5t5.5 70q0 56 -10 143q7 5 20 12t58.5 19t95.5 12q154 0 154 -143 q0 -145 -112 -279.5t-275 -218.5z" />
<glyph unicode="&#x201e;" horiz-adv-x="999" d="M-100 -129q57 36 94 72t54 72.5t22.5 66.5t5.5 70q0 53 -10 145q7 5 20 12t58.5 19t95.5 12q153 0 153 -145t-112 -279.5t-275 -218.5zM344 -129q57 36 93.5 72t53 72.5t22 66.5t5.5 70q0 53 -10 145q7 5 20 12t58.5 19t95.5 12q154 0 154 -145t-111 -279.5t-274 -218.5z " />
<glyph unicode="&#x2022;" horiz-adv-x="655" d="M74 608q0 110 72.5 185t193.5 75q117 0 176 -59t59 -166q0 -108 -73.5 -182t-194.5 -74q-116 0 -174.5 60t-58.5 161z" />
<glyph unicode="&#x202f;" horiz-adv-x="390" />
<glyph unicode="&#x2039;" horiz-adv-x="770" d="M72 502q198 215 524 465l133 -164l-305 -301q175 -278 211 -338l-170 -133q-30 30 -78 79.5t-153.5 175t-161.5 216.5z" />
<glyph unicode="&#x203a;" horiz-adv-x="770" d="M18 195l304 301q-187 301 -209 338l170 133q30 -30 78 -79.5t153.5 -175t161.5 -216.5q-198 -215 -524 -465z" />
<glyph unicode="&#x205f;" horiz-adv-x="488" />
<glyph unicode="&#x20ac;" horiz-adv-x="1251" d="M35 344l49 250h111q0 21 8 57h-109l49 250h140q89 189 245.5 302.5t372.5 113.5q102 0 171 -24.5t103 -61t60 -94.5l-242 -158q-24 47 -51.5 65.5t-81.5 18.5q-138 0 -231 -162h344l-88 -250h-338l-10 -57h327l-88 -250h-231q34 -121 162 -121q70 0 128.5 11.5 t141.5 41.5l63 -227q-184 -72 -401 -72q-205 0 -316 95t-133 272h-155z" />
<glyph unicode="&#xe000;" horiz-adv-x="1024" d="M0 0v1024h1024v-1024h-1024z" />
</font>
</defs>
</svg>
