<?xml version="1.0" standalone="no"?>
<!DOCTYPE svg PUBLIC "-//W3C//DTD SVG 1.1//EN" "http://www.w3.org/Graphics/SVG/1.1/DTD/svg11.dtd" >
<svg xmlns="http://www.w3.org/2000/svg">
<metadata></metadata>
<defs>
<font id="diavlobold" horiz-adv-x="1478" >
<font-face units-per-em="2048" ascent="1536" descent="-512" />
<missing-glyph horiz-adv-x="573" />
<glyph unicode="&#xfb01;" horiz-adv-x="1257" d="M123 119v1149q0 109 72.5 192.5t187.5 125.5t250 42q105 0 193.5 -17.5t149 -52t87 -81.5t5 -110.5t-94.5 -133.5q-1 49 -36 87.5t-88.5 60t-109 32t-106.5 10.5q-98 0 -171 -49.5t-73 -136.5v-385h244q99 0 167 56.5t68 125.5v35q15 0 33.5 -1t64.5 -8t80 -19.5 t61.5 -40t27.5 -64.5v-950q-6 0 -15.5 0.5t-37 3t-53 7t-56 14.5t-53 23.5t-37.5 35.5t-15 49v608q-3 -3 -8 -8.5t-25.5 -19t-45 -23.5t-66.5 -18.5t-90 -8.5h-244v-663q-11 0 -29 1t-63.5 8t-81 19.5t-64 40t-28.5 64.5z" />
<glyph unicode="&#xfb02;" horiz-adv-x="1257" d="M123 119v1149q0 108 71.5 192t182 126t235.5 42q56 0 137 -12t167.5 -34t147 -62t60.5 -88v-1059q0 -37 1 -62t5 -65.5t13.5 -67.5t25 -54.5t41.5 -41.5t60 -14q-61 -82 -170 -82q-118 0 -180 91.5t-62 229.5v1059q-84 57 -235 57q-101 0 -167.5 -55t-66.5 -145v-217h346 q0 -4 -0.5 -11.5t-3.5 -28.5t-8.5 -40t-17 -42.5t-27 -40.5t-40.5 -28.5t-56 -11.5h-193v-817q-11 0 -29 1t-63.5 8t-81 19.5t-64 40t-28.5 64.5z" />
<glyph unicode="&#xfb03;" horiz-adv-x="2002" d="M123 119v1067q0 109 66.5 192.5t172 125.5t230.5 42q118 0 202.5 -29.5t127.5 -80.5q63 91 187 141.5t269 50.5q105 0 193.5 -17.5t149 -52t87 -81.5t5 -110.5t-94.5 -133.5q-1 49 -36 87.5t-88.5 60t-109 32t-106.5 10.5q-98 0 -170.5 -49.5t-72.5 -136.5v-385h243 q99 0 167.5 56.5t68.5 125.5v35q14 0 33 -1t64.5 -8t79.5 -19.5t61.5 -40t27.5 -64.5v-950q-11 0 -29 1t-63.5 8t-81 19.5t-64 40t-28.5 64.5v606q-76 -76 -236 -76h-243v-663q-6 0 -15.5 0.5t-37 3t-53 7t-56 14.5t-53 23.5t-37.5 35.5t-15 49v530h-479v-663q-11 0 -29 1 t-63.5 8t-81 19.5t-64 40t-28.5 64.5zM389 852h479v319q-3 48 -27.5 82.5t-64 53t-82.5 26.5t-92 8q-98 0 -155.5 -54t-57.5 -146v-289z" />
<glyph unicode="&#xfb04;" horiz-adv-x="2002" d="M123 119v1067q0 109 66.5 192.5t172 125.5t230.5 42q118 0 202.5 -29.5t127.5 -80.5q62 92 183 142t257 50q77 0 164.5 -14t164.5 -39t128 -63t51 -80v-1059q0 -32 0.5 -52.5t3.5 -56t8 -59t16 -52t26 -45.5t38 -28.5t53 -11.5q-61 -82 -170 -82q-118 0 -179.5 91.5 t-61.5 229.5v1059q-84 57 -236 57q-100 0 -166.5 -55t-66.5 -145v-217h346q0 -8 -1 -22t-9.5 -49t-23 -61.5t-46 -48.5t-74.5 -22h-192v-817q-6 0 -15.5 0.5t-37 3t-53 7t-56 14.5t-53 23.5t-37.5 35.5t-15 49v684h-479v-817q-11 0 -29 1t-63.5 8t-81 19.5t-64 40 t-28.5 64.5zM389 1006h479v165q-3 48 -27.5 82.5t-64 53t-82.5 26.5t-92 8q-98 0 -155.5 -54t-57.5 -146v-135z" />
<glyph horiz-adv-x="2048" />
<glyph horiz-adv-x="2048" />
<glyph unicode="&#xd;" horiz-adv-x="2048" />
<glyph unicode=" "  horiz-adv-x="573" />
<glyph unicode="&#x09;" horiz-adv-x="573" />
<glyph unicode="&#xa0;" horiz-adv-x="573" />
<glyph unicode="!" horiz-adv-x="593" d="M205 514v971q11 0 29 -1t63.5 -8t81 -19.5t64 -40t28.5 -64.5v-971q-11 0 -29 0.5t-63.5 7t-81 19t-64 40.5t-28.5 66zM215 63v193h168q32 0 56 -19.5t24 -43.5v-193h-166q-34 0 -58 18.5t-24 44.5z" />
<glyph unicode="&#x22;" horiz-adv-x="901" d="M84 1057l7.5 2.5t15.5 12t20 27t16 50.5t7 78v237h108q72 0 98.5 -35.5t26.5 -97.5v-65q0 -54 -8 -99t-26.5 -85.5t-54.5 -63.5t-87 -23q-36 0 -67 15.5t-44 31.5zM483 1057l7.5 2.5t15.5 12t20 27t16 50.5t7 78v237h108q72 0 98.5 -35.5t26.5 -97.5v-65q0 -54 -8 -99 t-26.5 -85.5t-54.5 -63.5t-87 -23q-36 0 -67 15.5t-43 31.5z" />
<glyph unicode="#" horiz-adv-x="1423" d="M37 424q0 20 2.5 39t11 39.5t21.5 35.5t35.5 25t52.5 10h121q10 43 29 130t34 145h-184q-6 24 -6 59q0 27 5 50t17 47t37.5 38.5t62.5 14.5h117q69 276 109 440q39 0 94 -23.5t96.5 -66.5t30.5 -86l-64 -264h265q46 184 108 440q41 0 96.5 -23.5t95.5 -66.5t29 -88 l-63 -262h190q6 -29 6 -64q0 -145 -120 -145h-127q-10 -40 -29.5 -128t-34.5 -147h189q6 -28 6 -63q0 -26 -5 -49t-17 -46t-37.5 -36.5t-61.5 -13.5h-125l-92 -390q-39 0 -94 22t-96.5 64t-30.5 86l51 218h-268l-93 -390q-42 0 -97 22.5t-95 65t-29 87.5l51 215h-188 q-6 24 -6 59zM545 573h266q10 43 29 130t34 145h-266z" />
<glyph unicode="$" horiz-adv-x="1318" d="M78 1055q0 90 24 161t67 119.5t106.5 81.5t137.5 49.5t165 20.5v160q1 -2 13.5 0.5t32 -3.5t38 -15.5t32 -34t13.5 -60.5v-47q104 -3 181 -17.5t136 -43t89 -76.5t30 -115q0 -83 -68 -207q0 54 -18.5 96t-51 69t-80 45t-100.5 26t-118 10v-387q62 -9 105 -18t98 -25.5 t92 -38t76 -55.5t62 -77.5t37.5 -105t14.5 -137.5q0 -208 -125.5 -321.5t-359.5 -128.5v-189q-5 0 -14 0.5t-31 5.5t-39 15.5t-31 33t-14 54.5v80q-96 3 -176 18t-147.5 43.5t-105.5 77.5t-38 114q0 85 73 191q0 -219 394 -236v453q-51 8 -82.5 13.5t-79 16.5t-78 22 t-69.5 29t-64 38.5t-51.5 50t-41.5 64.5t-24.5 80.5t-9.5 99.5zM360 1085q0 -81 53.5 -119t164.5 -59v367q-108 -9 -163 -54.5t-55 -134.5zM707 193q115 13 157.5 66t42.5 153q0 93 -46.5 137t-153.5 67v-423z" />
<glyph unicode="%" horiz-adv-x="1658" d="M70 1032v234q0 101 89.5 159t241.5 58t242 -58t90 -159v-234q0 -102 -89 -156.5t-243 -54.5t-242.5 54.5t-88.5 156.5zM283 297q0 44 34 78l949 948q32 -32 50 -52.5t37 -54t19 -61.5q0 -41 -37 -78l-948 -948q-104 100 -104 168zM293 1085q0 -49 21.5 -71.5t86.5 -22.5 q64 0 86.5 23t22.5 71v134q0 47 -23 70.5t-86 23.5q-64 0 -86 -23t-22 -71v-134zM926 190v234q0 101 89.5 159t241.5 58t242 -58t90 -159v-234q0 -102 -89 -156t-243 -54t-242.5 54t-88.5 156zM1149 244q0 -49 21.5 -71.5t86.5 -22.5q64 0 86.5 23t22.5 71v133 q0 47 -23 70.5t-86 23.5q-64 0 -86 -23t-22 -71v-133z" />
<glyph unicode="&#x26;" horiz-adv-x="1255" d="M113 383v61q0 105 55.5 196.5t150.5 117.5q-86 24 -136 106.5t-50 182.5v51q0 181 148.5 286t386.5 105q105 0 194.5 -18.5t153 -51t102.5 -78.5t48.5 -99t-14 -114.5t-81.5 -123.5q1 79 -35 135t-98 84.5t-128 40.5t-142 12q-128 0 -194 -56t-66 -153q0 -116 43.5 -168 t150.5 -59v247q10 0 26 -1t57.5 -9t73 -20.5t57.5 -40t26 -64.5v-114h213q0 -8 -1 -22t-9.5 -50t-23 -63t-46 -49.5t-74.5 -22.5h-59v-111q0 -41 9 -84t19 -66l9 -22q-58 6 -103.5 19.5t-74 28t-49 35t-30 36.5t-14.5 37.5t-5.5 32t-0.5 26.5v6v62h-8q-207 -23 -207 -217 q0 -101 70 -163.5t211 -62.5q83 0 154 12.5t134 41t99.5 82t36.5 127.5q81 -93 89 -180.5t-49 -152.5t-178 -104t-286 -39q-249 0 -402 112t-153 296z" />
<glyph unicode="'" horiz-adv-x="501" d="M84 1057l7.5 2.5t15.5 12t20 27t16 50.5t7 78v237h108q72 0 98.5 -35.5t26.5 -97.5v-65q0 -54 -8 -99t-26.5 -85.5t-54.5 -63.5t-87 -23q-36 0 -67 15.5t-44 31.5z" />
<glyph unicode="(" horiz-adv-x="688" d="M82 541q0 201 35.5 389t93 323.5t134 217t155.5 81.5q33 0 62 -9t47.5 -22t32.5 -26t20 -22l6 -9q-104 -15 -177 -147.5t-106 -330.5t-33 -441q0 -247 33 -448t106 -335t177 -149q-2 -4 -6 -9.5t-19.5 -21t-33 -27t-47 -21t-62.5 -9.5q-106 0 -202.5 138t-156 374 t-59.5 504z" />
<glyph unicode=")" horiz-adv-x="688" d="M20 -387q104 15 177 149t106 335t33 448q0 243 -33 441t-106 330.5t-177 147.5q2 4 6 9.5t19.5 21t33 27t47 21t62.5 9.5q79 0 155.5 -81.5t134 -217t93 -323.5t35.5 -389q0 -268 -59.5 -504t-156 -374t-202.5 -138q-33 0 -62 9t-47.5 22t-32.5 26t-20 22z" />
<glyph unicode="*" horiz-adv-x="858" d="M68 1239q0 51 37 88t120 37q36 0 115 -27q-34 121 -160 142q2 3 7 8.5t19.5 20t30.5 25t39.5 19.5t47.5 9q50 0 96.5 -49t60.5 -154q58 65 58 131q0 35 -15 78q6 -1 17 -2.5t38 -10.5t48 -22.5t38 -40.5t17 -61q0 -94 -111 -185q27 -8 58 -8q83 0 145 76q17 -46 17 -103 q0 -51 -37.5 -88t-120.5 -37q-38 0 -117 27q40 -126 162 -141q-2 -3 -7 -8.5t-20 -20t-30.5 -25t-39 -19.5t-46.5 -9q-51 0 -95.5 47.5t-64.5 155.5q-58 -65 -58 -131q0 -29 17 -78l-17.5 2.5t-38 10.5t-48.5 22.5t-38.5 40.5t-17.5 61q0 38 31 98q24 41 82 86q-30 6 -56 6 q-86 0 -147 -75q-16 47 -16 104z" />
<glyph unicode="+" horiz-adv-x="1067" d="M124.5 461q-1.5 22 0 41.5t8.5 44t19.5 41.5t36.5 29t57 12h157v262q10 2 27 5t60 4.5t76 -5t60 -31.5t27 -67v-168h283q1 -4 2.5 -11.5t3 -29.5t0.5 -41.5t-8 -44t-19.5 -41.5t-36.5 -29t-57 -12h-168v-293q-5 -1 -14 -2.5t-35 -4t-49.5 -2.5t-52.5 5t-50 15.5t-35 31.5 t-14 51v199h-274q-1 4 -2 11.5t-2.5 29.5z" />
<glyph unicode="," horiz-adv-x="501" d="M53 -229q40 10 66 40t32.5 64.5t9.5 69t-3 53.5l-45 258h67h107q39 0 63.5 -20t24.5 -58v-153q0 -70 -8.5 -121t-29.5 -92.5t-59.5 -62.5t-95.5 -21q-76 0 -129 43z" />
<glyph unicode="-" horiz-adv-x="1005" d="M124 503.5q1 18.5 7 41.5t17 39.5t32.5 27.5t50.5 11h643q2 -8 4 -21.5t2 -47.5t-7.5 -59.5t-32.5 -47t-66 -21.5h-645q-1 4 -2 11t-2.5 27.5t-0.5 39z" />
<glyph unicode="." horiz-adv-x="501" d="M127 63v193h168q32 0 56 -19.5t24 -43.5v-193h-166q-34 0 -58 18.5t-24 44.5z" />
<glyph unicode="/" horiz-adv-x="681" d="M18 -328l439 1897q5 -1 13.5 -3t32.5 -8.5t45.5 -15t47 -22.5t42 -30t25.5 -39t3 -48l-439 -1895q-5 1 -13.5 2.5t-32.5 8.5t-45.5 15t-47 22t-42 30t-25.5 38.5t-3 47.5z" />
<glyph unicode="0" horiz-adv-x="1355" d="M123 377v710q0 196 149.5 299t405.5 103t405.5 -103t149.5 -299v-710q0 -196 -149.5 -299t-405.5 -103t-405.5 103t-149.5 299zM397 408q0 -121 66.5 -175.5t214.5 -54.5t214 54.5t66 175.5v649q0 121 -66 175t-214 54t-214.5 -54t-66.5 -175v-649z" />
<glyph unicode="1" horiz-adv-x="1134" d="M72 1274q0 84 75.5 137t223.5 53q86 0 189.5 7t164.5 15l61 7q-26 -147 -26 -231v-1049h348q6 -28 6 -63q0 -27 -5 -50.5t-17 -47.5t-37.5 -38t-61.5 -14h-858q-6 26 -6 59q0 27 5 51t17.5 49t38.5 39.5t64 14.5h238v1040q-24 1 -55 0t-64 -0.5t-65 -9t-57 -25.5 t-40.5 -51t-15.5 -84q0 -27 2 -41q-125 116 -125 232z" />
<glyph unicode="2" horiz-adv-x="1261" d="M92 0v211q0 81 27 148.5t72.5 114.5t104 87t124 70.5t130.5 59.5t123.5 61t104 68t72.5 86t27 110v35q0 100 -67 162.5t-194 62.5q-76 0 -142 -12t-128 -40.5t-98 -84.5t-35 -135q-58 62 -81.5 123.5t-14 114.5t48.5 99t102.5 78.5t153 51t194.5 18.5q236 0 385.5 -110 t149.5 -292v-81q0 -83 -27 -152.5t-73 -118t-105 -89t-125 -70.5t-131.5 -58t-124.5 -56.5t-105 -60t-73 -74t-27 -94.5v-20h623q60 0 109.5 10.5t68.5 21.5l19 11q0 -5 -0.5 -14.5t-4 -36t-9.5 -50.5t-19 -53.5t-30.5 -51t-46 -36t-64.5 -14.5h-914z" />
<glyph unicode="3" horiz-adv-x="1284" d="M104.5 270.5q9.5 93.5 98.5 200.5q0 -80 36.5 -137.5t100 -88t134 -44t153.5 -13.5q141 0 210.5 62.5t69.5 163.5q0 108 -50.5 166.5t-156.5 70.5q-19 3 -31 6t-33 15.5t-33 33t-20 60t-5 92.5h65q134 0 189 48t55 161q0 97 -66 153t-194 56q-60 0 -113.5 -7 t-108.5 -25.5t-94 -48t-64 -78.5t-24 -113q-86 92 -95.5 181.5t47.5 155.5t176 107t276 41q238 0 386 -105t148 -286v-51q0 -100 -50 -182.5t-136 -106.5q95 -26 151 -118t56 -196v-61q0 -184 -153 -296t-402 -112q-167 0 -289 36.5t-182.5 101t-51 158z" />
<glyph unicode="4" horiz-adv-x="1191" d="M10 387q6 111 77.5 259.5t167 281.5t202 260.5t177 201.5t99.5 99q10 0 27 -1.5t60 -9t76 -20.5t60 -39.5t27 -62.5v-770h178q0 -11 -1 -26t-9.5 -48.5t-23.5 -59t-46 -45.5t-73 -20h-25v-407q-15 0 -35.5 1t-66.5 8.5t-81 20t-63 39.5t-28 64v274h-699zM328 586h381v458 q0 19 2.5 47.5t4.5 46.5l3 19q-48 -73 -68 -96q-235 -270 -323 -475z" />
<glyph unicode="5" horiz-adv-x="1222" d="M63.5 270.5q9.5 93.5 98.5 200.5q0 -80 36.5 -137.5t100 -88t134 -44t153.5 -13.5q149 0 214.5 51t65.5 171v118q0 236 -280 236h-260q-57 0 -105 -1.5t-67 -2.5l-19 -2q17 80 17 176v338q0 4 0.5 11t3 27t8 38t17 40t27 38t41 27t56.5 11h563q64 0 113.5 7t66.5 15l17 7 q0 -5 -0.5 -13.5t-4 -34t-9.5 -48t-19 -50.5t-30.5 -48t-46 -34t-64.5 -14h-465v-194q0 -19 -2 -41.5t-4 -35.5l-2 -13h164q129 0 230 -24t175.5 -72.5t114 -128.5t39.5 -187v-172q0 -197 -150 -302.5t-405 -105.5q-167 0 -289 36.5t-182.5 101t-51 158z" />
<glyph unicode="6" horiz-adv-x="1345" d="M123 377v710q0 196 149.5 299t405.5 103q170 0 293 -37t182 -101.5t48 -156t-99 -195.5q3 80 -30 136t-95 86t-134.5 42.5t-164.5 12.5q-150 0 -215.5 -49.5t-65.5 -169.5v-109q0 -21 -2.5 -47t-4.5 -41l-3 -16q4 3 11 9t34.5 21t60 26t88 20.5t117.5 9.5q158 0 277 -44 t188.5 -135.5t69.5 -222.5v-151q0 -196 -149.5 -299t-405.5 -103t-405.5 103t-149.5 299zM397 408q0 -121 66.5 -175.5t214.5 -54.5t214 54.5t66 175.5v90q0 120 -63 174.5t-197 54.5q-141 0 -219 -50.5t-82 -166.5v-102z" />
<glyph unicode="7" horiz-adv-x="1171" d="M0 1223q0 5 0.5 13.5t4 33.5t9.5 48t19 51t30.5 48t46 33.5t64.5 13.5h985q3 -140 -33 -268t-96.5 -228t-134.5 -194t-149.5 -182t-139.5 -175t-106 -191t-47 -212q-66 -34 -115 -34q-154 0 -154 106q0 89 31 177t83 165.5t115.5 155t132.5 156.5t130 156.5t111.5 170.5 t74.5 184h-665q-64 0 -113.5 -7t-66.5 -14z" />
<glyph unicode="8" horiz-adv-x="1355" d="M123 377v57q0 107 53 191.5t148 117.5q-78 32 -129.5 117.5t-51.5 181.5v45q0 131 69.5 222.5t188.5 135.5t277 44t276.5 -44t188 -135.5t69.5 -222.5v-45q0 -96 -51 -181.5t-129 -117.5q95 -33 148 -117.5t53 -191.5v-51q0 -197 -150 -302.5t-405 -105.5 q-256 0 -405.5 103t-149.5 299zM397 401q0 -120 66 -171.5t215 -51.5q148 0 214 53.5t66 176.5t-66 178t-214 55t-214.5 -56.5t-66.5 -183.5zM418 1065q0 -119 55 -170t189 -51h32q134 0 189 51t55 170t-62.5 170t-197.5 51t-197.5 -51t-62.5 -170z" />
<glyph unicode="9" horiz-adv-x="1345" d="M113 936v151q0 196 149.5 299t405.5 103t405.5 -103t149.5 -299v-710q0 -196 -149.5 -299t-405.5 -103q-170 0 -293 37t-182 101.5t-48 156t99 195.5q-3 -80 30 -136t95 -86t134.5 -42.5t164.5 -12.5q150 0 215 50t65 170v108q0 21 2.5 47t5.5 42l2 16q-4 -3 -11 -9 t-34.5 -21t-60 -26t-88 -20.5t-117.5 -9.5q-158 0 -276.5 43.5t-188 135t-69.5 222.5zM387 967q0 -120 63.5 -175t196.5 -55q141 0 219 50.5t82 166.5v103q0 121 -66 175t-214 54t-214.5 -54t-66.5 -175v-90z" />
<glyph unicode=":" horiz-adv-x="501" d="M158 63v193h168q32 0 56 -19.5t24 -43.5v-193h-166q-34 0 -58 18.5t-24 44.5zM158 762v192h168q32 0 56 -19.5t24 -43.5v-193h-166q-34 0 -58 19t-24 45z" />
<glyph unicode=";" horiz-adv-x="501" d="M84 -229q40 10 66 40t32.5 64.5t9 69t-3.5 53.5l-45 258h68h106q39 0 64 -20t25 -58v-153q0 -70 -8.5 -121t-29.5 -92.5t-59.5 -62.5t-95.5 -21q-76 0 -129 43zM158 762v192h168q32 0 56 -19.5t24 -43.5v-193h-166q-34 0 -58 19t-24 45z" />
<glyph unicode="&#x3c;" horiz-adv-x="874" d="M103.5 522.5q0.5 56.5 60.5 116.5l411 412q29 -18 50 -33t43 -37.5t30.5 -43.5t2.5 -47.5t-31 -51.5l-314 -316l375 -375q-20 -41 -60.5 -71t-87 -35.5t-85.5 31.5l-336 336q-59 58 -58.5 114.5z" />
<glyph unicode="=" horiz-adv-x="1030" d="M133 254q-24 72 6 134.5t107 62.5h655q5 -46 3.5 -90t-31 -75.5t-85.5 -31.5h-655zM133 610q-24 72 6 134.5t107 62.5h655q5 -46 3.5 -90t-31 -75.5t-85.5 -31.5h-655z" />
<glyph unicode="&#x3e;" horiz-adv-x="874" d="M143 147l375 375l-313 316q-31 31 -34.5 62.5t19 59.5t47.5 48.5t62 42.5l412 -412q117 -117 2 -231l-336 -336q-40 -37 -86 -31.5t-87 35.5t-61 71z" />
<glyph unicode="?" horiz-adv-x="1136" d="M128.5 1207.5q-19.5 79.5 20 141t142 101t250.5 39.5q240 0 387 -100t147 -281v-51q0 -70 -26 -128.5t-67.5 -99.5t-91.5 -76.5t-100.5 -66.5t-92 -62.5t-67.5 -71t-26 -85.5v-98q-5 0 -14.5 0.5t-36.5 3t-51 7.5t-54 15t-51.5 24.5t-36 37.5t-14.5 51v33q0 51 25 96 t65 79t88.5 65t97.5 62t89 63t65 74.5t25 90.5q0 96 -65.5 150.5t-194.5 54.5q-63 0 -116.5 -12.5t-98 -38t-70 -70.5t-25.5 -104q-83 77 -102.5 156.5zM350 63v193h168q32 0 56 -19.5t24 -43.5v-193h-166q-34 0 -58 18.5t-24 44.5z" />
<glyph unicode="@" horiz-adv-x="1890" d="M123 199v651q0 113 46 211.5t130.5 171t212 114.5t281.5 42h305q204 0 357.5 -72.5t232.5 -194t79 -272.5v-367q0 -508 -731 -508q-113 0 -205 16.5t-170 53t-121.5 103.5t-43.5 159q0 73 25.5 126.5t69.5 84t97.5 52t113.5 36t114.5 29t104 38.5t77.5 58q0 35 -5.5 58 t-22 44t-51 31t-87.5 10q-264 0 -293 -210q-92 100 -92 190q0 102 113 163.5t272 61.5q216 0 324 -94t108 -266v-246q0 -13 -1 -25t-7.5 -34.5t-18 -42t-34 -43t-53 -41t-78.5 -32.5t-107 -22q4 7 10.5 21t17.5 63.5t11 106.5v102q-15 -30 -58 -48t-91 -27t-95 -21.5 t-77.5 -41.5t-30.5 -77q0 -70 80.5 -109.5t209.5 -39.5q83 0 148 9t125 32.5t99.5 62t63 100.5t23.5 144v313q0 77 -22.5 141.5t-69 117t-126.5 82.5t-187 30h-305q-105 0 -184.5 -30t-126 -82.5t-69 -117t-22.5 -141.5v-598q0 -155 64.5 -257.5t175.5 -102.5q40 0 79.5 8.5 t59.5 16.5l20 8q-1 -8 -3.5 -21.5t-19.5 -48t-43 -60.5t-79.5 -47.5t-124.5 -21.5q-114 0 -206 70t-140.5 184t-48.5 246z" />
<glyph unicode="A" horiz-adv-x="1396" d="M0 8q38 56 115 300q8 25 12 38l174 539q39 119 91.5 225t98.5 172.5t93.5 120.5t73 76.5t40.5 31.5q15 -9 40.5 -31.5t73.5 -76.5t94 -120.5t98.5 -172.5t91.5 -225l174 -539q73 -230 100 -289q14 -29 27 -49q-68 -22 -115 -22q-39 0 -72 10t-57 23t-46 39.5t-35.5 47 t-29.5 58t-23.5 60l-21.5 64.5q-4 11 -6 17l-35 109h-516l-34 -109q-2 -6 -6 -17q-14 -43 -21.5 -64.5t-23.5 -59.5t-29.5 -58.5t-35.5 -47t-46 -39.5t-57 -23t-72 -10q-21 0 -49.5 5.5t-47.5 10.5zM500 618h397l-63 213q-23 76 -57 163t-57 136l-22 48q-59 -92 -135 -347z " />
<glyph unicode="B" horiz-adv-x="1273" d="M143 133v1331h473q535 0 535 -372v-52q0 -96 -45.5 -181.5t-114.5 -117.5q79 -35 129.5 -122t50.5 -187v-51q0 -130 -71 -217t-192.5 -125.5t-291.5 -38.5h-251q-9 0 -24 1t-53.5 8.5t-67.5 20t-53 39.5t-24 64zM418 203h198q149 0 215 48t66 161q0 114 -64 170.5 t-200 56.5h-215v-436zM418 842h215q131 0 187.5 56.5t56.5 172.5q0 110 -61 150.5t-200 40.5h-198v-420z" />
<glyph unicode="C" horiz-adv-x="1413" d="M123 479v506q0 109 34 195.5t92 143.5t139 94.5t170.5 54t191.5 16.5q107 0 203 -14.5t179 -48.5q82 -34 130 -85q48 -52 49 -132q0 -79 -60 -177q-15 54 -53 97t-88 70t-112.5 45t-123.5 25t-124 7q-353 0 -353 -320v-446q0 -324 353 -324q425 0 501 246q39 -69 49 -129 q4 -23 4 -43q0 -34 -11 -63q-16 -46 -53.5 -83.5t-90.5 -63t-118.5 -42.5t-135.5 -25t-145 -8q-102 0 -191.5 16.5t-170.5 54t-139 94.5t-92 143.5t-34 195.5z" />
<glyph unicode="D" horiz-adv-x="1497" d="M143 133v1331h594q104 0 193 -14t172.5 -49.5t142 -91.5t94 -144.5t35.5 -203.5v-457q0 -115 -35.5 -204t-94 -144.5t-142 -91.5t-172.5 -50t-193 -14h-375q-13 0 -31.5 1.5t-54 9t-63 20.5t-49 39.5t-21.5 62.5zM418 203h319q363 0 363 321v418q0 320 -363 320h-319 v-1059z" />
<glyph unicode="E" horiz-adv-x="1220" d="M143 133v1331h1006q0 -4 -0.5 -11.5t-3.5 -28.5t-8 -40t-16.5 -42t-27.5 -40t-41.5 -28.5t-56.5 -11.5h-577v-379h422q78 0 135 8t75 16l17 8q0 -36 -4 -65.5t-16 -62.5t-32.5 -55.5t-57 -37t-85.5 -14.5h-454v-477h731q0 -10 -1.5 -26t-10 -50t-23 -60t-46 -46.5 t-73.5 -20.5h-628q-9 0 -24 1t-54 8t-68.5 19.5t-53.5 40t-24 64.5z" />
<glyph unicode="F" horiz-adv-x="1071" d="M143 113v1351h944q0 -4 -0.5 -11.5t-3 -28.5t-8 -40t-17 -42t-27 -40t-41 -28.5t-56.5 -11.5h-516v-379h340q60 0 117 5.5t83 11.5l27 5q0 -36 -3.5 -64.5t-16 -60t-33 -52.5t-56.5 -34.5t-85 -13.5h-373v-700q-11 0 -29.5 1t-66 8t-84 19.5t-66 40t-29.5 64.5z" />
<glyph unicode="G" d="M123 479v506q0 109 33 195.5t89 143.5t135.5 94.5t168 54t190.5 16.5q108 0 206 -15.5t182 -47.5t134 -87.5t50 -128.5q0 -80 -64 -180q-18 68 -70.5 118t-126 76.5t-151 39t-160.5 12.5q-163 0 -252.5 -73.5t-89.5 -246.5v-446q0 -173 90 -247.5t252 -74.5q66 0 113.5 6 t93 25t73.5 51.5t45 87.5t17 131v66h-235q-170 0 -170 229q55 -26 205 -26h475v-299q0 -106 -33 -190t-89.5 -138.5t-136 -90t-168 -50.5t-190.5 -15t-190.5 16.5t-168 54t-135.5 94.5t-89 143.5t-33 195.5z" />
<glyph unicode="H" horiz-adv-x="1505" d="M143 113v1372q11 0 29.5 -1t66 -8t84 -19.5t66 -40t29.5 -64.5v-508h669v641q11 0 29.5 -1t66 -8t84 -19.5t66 -40t29.5 -64.5v-1372q-11 0 -29.5 1t-66 8t-84 19.5t-66 40t-29.5 64.5v526h-669v-659q-11 0 -29.5 1t-66 8t-84 19.5t-66 40t-29.5 64.5z" />
<glyph unicode="I" horiz-adv-x="561" d="M143 113v1372q11 0 29.5 -1t66 -8t84 -19.5t66 -40t29.5 -64.5v-1372q-11 0 -29.5 1t-66 8t-84 19.5t-66 40t-29.5 64.5z" />
<glyph unicode="J" horiz-adv-x="604" d="M-14 -311q54 0 95 31.5t62.5 81.5t32 101t10.5 99v1483h19t39.5 -2.5t54.5 -7.5t56.5 -15t53.5 -24t37 -37t15 -51v-1416q0 -143 -68 -241.5t-184 -98.5q-117 0 -223 97z" />
<glyph unicode="K" horiz-adv-x="1318" d="M143 113v1372q11 0 29.5 -1t66 -8t84 -19.5t66 -40t29.5 -64.5v-478q147 30 258.5 147t232.5 335q72 133 236 133q23 0 54 -4.5t51 -9.5l20 -5q-35 -56 -91.5 -156t-98.5 -169t-99 -147.5t-123.5 -133.5t-142.5 -84q65 -18 129 -63.5t114 -100.5t100.5 -130t84.5 -137.5 t71 -137.5q75 -146 117 -207q-82 -20 -125 -20t-85.5 9.5t-92 41t-76.5 82.5q-15 27 -47.5 87.5t-50 92t-51 85.5t-59 85t-64 72t-75.5 66t-85.5 47t-101.5 32v-704q-11 0 -29.5 1t-66 8t-84 19.5t-66 40t-29.5 64.5z" />
<glyph unicode="L" horiz-adv-x="1114" d="M143 133v1352q11 0 29.5 -1t66 -8t84 -19.5t66 -40t29.5 -64.5v-1149h456q77 0 134 8.5t76 16.5l18 8q0 -44 -7 -82.5t-23 -74.5t-47.5 -57.5t-76.5 -21.5h-581q-9 0 -24 1t-54 8t-68.5 19.5t-53.5 40t-24 64.5z" />
<glyph unicode="M" horiz-adv-x="1705" d="M143 113v1351h176q10 0 18.5 -0.5t37 -6.5t50.5 -17t48.5 -36.5t42.5 -60.5l334 -714q65 137 200.5 417.5t200.5 417.5q312 0 312 -133v-1351q-11 0 -29.5 1t-66 8t-84 19.5t-66 40t-29.5 64.5v692q0 42 5 94.5t11 84.5l5 32l-373 -760q-7 0 -18.5 1t-44.5 8t-62.5 19 t-64.5 39t-58 64l-289 617q19 -105 19 -199v-825q-11 0 -29.5 1t-66 8t-84 19.5t-66 40t-29.5 64.5z" />
<glyph unicode="N" horiz-adv-x="1507" d="M143 113v1351q55 0 81 -0.5t71 -3.5t69.5 -10t56 -19.5t53.5 -33.5t40 -49l600 -940q-24 117 -24 217v839q11 0 29.5 -1t66 -8t83.5 -19.5t65.5 -40t29.5 -64.5v-1351q-87 0 -157 15t-108.5 37t-64.5 43.5t-34 36.5l-9 15l-596 946q23 -117 23 -217v-876q-11 0 -29.5 1 t-66 8t-84 19.5t-66 40t-29.5 64.5z" />
<glyph unicode="O" d="M123 461v543q0 233 153 359t463 126q309 0 463 -126.5t154 -358.5v-543q0 -233 -154 -359.5t-463 -126.5q-310 0 -463 126.5t-153 359.5zM397 487q0 -63 8 -107.5t29.5 -85t59.5 -64.5t98.5 -38t144.5 -14q85 0 146.5 14t99.5 38t60 64.5t30 85t8 107.5v490 q0 63 -8 107.5t-30 85t-60 64.5t-99.5 38t-146.5 14q-84 0 -144.5 -14t-98.5 -38t-59.5 -64.5t-29.5 -85t-8 -107.5v-490z" />
<glyph unicode="P" horiz-adv-x="1251" d="M143 113v1351h412q106 0 191 -11.5t166.5 -44t136.5 -84.5t88.5 -137.5t33.5 -199.5v-37q0 -481 -616 -481h-137v-489q-11 0 -29.5 1t-66 8t-84 19.5t-66 40t-29.5 64.5zM418 672h137q66 0 113.5 6t93 24t73.5 50t45 86.5t17 130.5q0 71 -16.5 123.5t-45.5 84.5 t-73.5 51.5t-93.5 26.5t-113 7h-137v-590z" />
<glyph unicode="Q" d="M123 461v543q0 233 153 359t463 126q309 0 463 -126.5t154 -358.5v-543q0 -205 -129 -330t-377 -149v-31q0 -67 44 -115.5t108.5 -70t138.5 -21.5q43 0 75.5 2t75 7.5t74.5 18t63.5 31.5t53.5 49.5t33 71.5q34 -69 34 -137q0 -121 -114 -188.5t-297 -67.5 q-99 0 -191.5 25t-167 72t-119.5 123t-45 169v64q-246 24 -369.5 147.5t-123.5 329.5zM397 487q0 -63 8 -107.5t29.5 -85t59.5 -64.5t98.5 -38t144.5 -14q85 0 146.5 14t99.5 38t60 64.5t30 85t8 107.5v490q0 63 -8 107.5t-30 85t-60 64.5t-99.5 38t-146.5 14 q-84 0 -144.5 -14t-98.5 -38t-59.5 -64.5t-29.5 -85t-8 -107.5v-490z" />
<glyph unicode="R" horiz-adv-x="1249" d="M143 113v1351h473q122 0 216 -19t167.5 -60.5t112.5 -114.5t39 -176v-62q0 -166 -103.5 -271.5t-267.5 -105.5q87 -50 161.5 -138.5t117.5 -169t98 -185t92 -158.5q-82 -20 -125 -20q-174 0 -243 133q-11 21 -40 76.5t-42.5 81t-43 74.5t-50 75.5t-55 64.5t-66.5 60.5 t-75.5 45t-90.5 36.5v-651q-11 0 -29.5 1t-66 9t-84 20.5t-66 39.5t-29.5 63zM418 838h215q132 0 188 54.5t56 170.5q0 111 -62 155t-199 44h-198v-424z" />
<glyph unicode="S" horiz-adv-x="1339" d="M82 1055q0 97 30.5 172.5t83 124t128 80t160.5 44.5t186 13q538 0 538 -254q0 -85 -67 -207q0 248 -469 248q-142 0 -224.5 -46t-82.5 -145q0 -54 30.5 -90t82 -54.5t118.5 -31t141 -23.5t148 -26.5t141 -46.5t118.5 -77t82 -124t30.5 -182q0 -148 -79 -251.5 t-212.5 -152.5t-310.5 -49q-102 0 -193.5 13.5t-171.5 41.5t-127.5 80t-47.5 121q0 85 73 191q0 -57 30 -100.5t76.5 -68.5t111 -41t124 -21t125.5 -5q157 0 237.5 59t80.5 165q0 60 -30.5 102t-82 64.5t-118.5 37t-141 26.5t-147.5 26.5t-140.5 42t-118.5 68.5t-82 111.5 t-30.5 164.5z" />
<glyph unicode="T" horiz-adv-x="1181" d="M4 1497q71 -33 227 -33h719q69 0 126 8t80 16l22 9q0 -36 -4 -65.5t-16 -62.5t-32.5 -55.5t-57 -37t-85.5 -14.5h-258v-1282q-11 0 -29.5 1t-66 8t-83.5 19.5t-65.5 40t-29.5 64.5v1149h-252q-49 0 -85.5 14.5t-57 37t-32.5 55.5t-16 62.5t-4 65.5z" />
<glyph unicode="U" d="M123 438v1047q11 0 29.5 -1t66 -8t83.5 -19.5t65.5 -40t29.5 -64.5v-883q0 -135 93.5 -208t248.5 -73t248.5 73t93.5 208v1016q11 0 29.5 -1t66 -8t84 -19.5t66 -40t29.5 -64.5v-914q0 -112 -50 -202t-136 -146t-196 -85.5t-235 -29.5t-235 29.5t-195.5 85.5t-135.5 146 t-50 202z" />
<glyph unicode="V" horiz-adv-x="1458" d="M10 1454q68 23 115 23q39 0 72 -9.5t57 -24t45.5 -39t36 -47.5t29 -57.5t24 -60.5t21.5 -64l6 -18l178 -526q25 -76 59 -155.5t55 -121.5l21 -41q61 94 135 318l178 526l6 18q45 138 82 193q72 109 203 109q21 0 49.5 -5.5t47.5 -11.5l18 -6q-38 -56 -115 -300 q-3 -8 -4 -12.5t-3.5 -12l-4.5 -13.5l-180 -538q-40 -118 -94.5 -224t-102.5 -173t-97.5 -121.5t-76 -76.5t-41.5 -32q-15 10 -41.5 32t-76 76.5t-97.5 121.5t-102.5 173t-94.5 224l-180 538q-73 230 -100 289q-14 30 -27 49z" />
<glyph unicode="W" horiz-adv-x="2109" d="M10 1454q68 23 113 23q38 0 70.5 -9t56 -23.5t44.5 -38t35 -46.5t28 -55.5t23.5 -59t21.5 -62.5q1 -6 2.5 -9t3 -8t2.5 -9l176 -526q24 -76 60 -156t60 -122l23 -42q12 13 33.5 40t76 122t97.5 205q-8 33 -20.5 88t-33 189t-20.5 227q0 128 71 195t206 67 q-13 -114 -13 -203q0 -151 26 -302.5t63 -259.5t74 -194.5t63 -130.5l26 -43q87 146 142 320l176 526q2 7 7 22q14 42 21.5 63.5t23 59t29 57.5t35 46t45 39.5t55.5 23t70 9.5q21 0 49.5 -5.5t46.5 -11.5l19 -6q-12 -18 -23.5 -42.5t-25 -61t-23 -65.5t-27 -83t-28.5 -86 l-180 -538q-39 -118 -96 -225.5t-110.5 -177.5t-100.5 -123t-76 -77l-29 -24q-8 7 -22.5 19.5t-56 55t-79.5 90t-85.5 122t-81.5 151.5q-35 -81 -81.5 -156.5t-87.5 -124.5t-77.5 -86t-58.5 -54l-21 -17q-11 8 -30 24.5t-73.5 74.5t-103 125t-106.5 176t-97 227l-180 538 q-9 28 -28 86t-28 84.5t-22.5 64.5t-25 61.5t-23.5 41.5z" />
<glyph unicode="X" horiz-adv-x="1290" d="M4 -2q55 86 134.5 238.5t154.5 274.5t166 214q-91 107 -166.5 233t-151 268.5t-131.5 229.5q74 19 125 19q162 0 232 -134q81 -151 110 -203.5t78 -130.5t90 -124q41 46 89 122t80.5 134.5t109.5 201.5q70 134 231 134q23 0 54 -4.5t51 -9.5l20 -5q-56 -87 -131.5 -229.5 t-151 -268.5t-166.5 -233q91 -92 166 -214t154.5 -274.5t134.5 -238.5q-74 -18 -125 -18q-65 0 -128.5 30.5t-102.5 102.5q-146 277 -285 456q-130 -161 -285 -456q-39 -72 -102.5 -102.5t-128.5 -30.5q-23 0 -54 4.5t-51 9.5z" />
<glyph unicode="Y" horiz-adv-x="1277" d="M4 1458q74 19 125 19q166 0 231 -134l95 -190q5 -11 30 -62t32 -65.5t27.5 -54t32.5 -59t29 -46.5t33 -47q22 29 47.5 73t39.5 71t48 96t43 86l101 198q68 134 231 134q19 0 50.5 -5.5t52.5 -10.5l22 -5q-50 -84 -113.5 -212.5t-109.5 -225t-119.5 -210.5t-155.5 -198 v-630q-11 0 -29.5 1t-66 8t-83.5 19.5t-65.5 40t-29.5 64.5v497q-85 85 -157.5 198.5t-116 210t-105.5 223.5t-119 216z" />
<glyph unicode="Z" horiz-adv-x="1214" d="M57 0q-2 25 -2 49q-1 89 23 171q30 104 86 188t127 163t151.5 158t153.5 156.5t138.5 176t101.5 200.5h-750q0 4 0.5 11.5t3.5 28.5t8.5 40t17 42t27.5 40t41.5 28.5t57.5 11.5h907q0 -97 -24.5 -193.5t-67 -179.5t-97.5 -163.5t-117.5 -151.5t-125 -137.5t-121.5 -126.5 t-106 -113.5t-79.5 -104.5t-41.5 -93h598q77 0 133.5 8.5t73.5 17.5l18 9q-2 -36 -6 -65t-14.5 -62.5t-26.5 -56t-43 -37.5t-62 -15h-983z" />
<glyph unicode="[" horiz-adv-x="638" d="M143 -92v1556h475q0 -4 -0.5 -10.5t-3 -26.5t-8 -37.5t-17 -39t-27 -37.5t-41 -26.5t-56.5 -10.5h-78v-1313h78q43 0 74 -19.5t45.5 -44t23 -56.5t9.5 -45.5t1 -22.5h-272q-4 0 -11.5 0.5t-28.5 3t-40 7t-42.5 14.5t-40.5 23.5t-28.5 35.5t-11.5 49z" />
<glyph unicode="\" horiz-adv-x="743" d="M-25 1542q39 13 77 20t82.5 7t78 -21t45.5 -63l559 -1925q-242 -80 -280 53z" />
<glyph unicode="]" horiz-adv-x="638" d="M20 -225q0 5 0.5 12.5t3.5 27t8.5 37.5t17 39t27 36t41 25.5t56.5 10.5h78v1313h-78q-43 0 -75 19.5t-46.5 47t-22.5 55t-9 46.5l-1 20h476v-1556q0 -37 -21 -64.5t-50.5 -40t-59.5 -19.5t-51 -8l-21 -1h-273z" />
<glyph unicode="^" horiz-adv-x="1157" d="M41 985l428 428q59 59 134.5 61t137.5 -59l334 -334q102 -102 -100 -227l-369 369l-321 -320q-40 -39 -88 -32t-89 38.5t-67 75.5z" />
<glyph unicode="_" horiz-adv-x="1218" d="M0 -160q0 53 28 92t99 39h1083q9 -45 9 -80q0 -129 -127 -129h-1084q-8 41 -8 78z" />
<glyph unicode="`" horiz-adv-x="1001" d="M317.5 1473.5q9.5 46.5 55 82.5t119.5 46q-26 -42 0 -87.5t104 -123.5l68 -68q25 -27 21.5 -49t-26.5 -39t-50 -28t-49 -17l-21 -6l-121 90q-59 44 -84.5 98.5t-16 101z" />
<glyph unicode="a" horiz-adv-x="1093" d="M86 297q0 78 30.5 136t80.5 91.5t111.5 56.5t126.5 38t121.5 29.5t101 37.5t61.5 55q0 140 -199 140q-67 0 -124 -12.5t-103.5 -38.5t-73 -72.5t-26.5 -108.5q-78 106 -78 199q0 63 39 110.5t102.5 72.5t130 36.5t135.5 11.5q224 0 342.5 -91t118.5 -259v-749 q-63 32 -158 32q-49 0 -155 -18.5t-166 -18.5q-84 0 -155 16.5t-132 52.5t-96 100.5t-35 152.5zM350 301q0 -68 48 -103.5t137 -35.5q48 0 95.5 9t71.5 19l23 9v333q-13 -29 -56.5 -47.5t-96 -29t-103.5 -25t-85 -46.5t-34 -83z" />
<glyph unicode="b" horiz-adv-x="1148" d="M123 49v1512h21t39 -3t52.5 -8.5t54 -16.5t50.5 -27t34.5 -41.5t14.5 -57.5v-289q0 -23 -4 -52.5t-8 -47.5l-4 -19q4 3 11.5 8.5t32.5 19.5t53.5 24.5t73.5 19t93 8.5q171 0 290.5 -97t119.5 -257v-393q0 -171 -124 -264t-358 -93q-89 0 -228 35.5t-214 38.5zM389 203 q74 -33 172 -33q123 0 171 45.5t48 146.5v332q0 96 -46.5 143.5t-123.5 47.5q-87 0 -154 -48.5t-67 -121.5v-512z" />
<glyph unicode="c" horiz-adv-x="1042" d="M102 336v383q0 168 122 264t341 96q65 0 129 -12t124.5 -37.5t98 -73.5t37.5 -112q0 -87 -80 -203q0 116 -77.5 177t-184.5 61q-121 0 -183 -46t-62 -167v-277q0 -110 58 -160.5t181 -50.5q134 0 222.5 59t89.5 150q63 -92 63 -168q0 -111 -114 -177.5t-292 -66.5 q-219 0 -346 96t-127 265z" />
<glyph unicode="d" horiz-adv-x="1148" d="M102 332v393q0 160 119.5 257t290.5 97q48 0 92.5 -8t74.5 -20t53 -24t34 -20l10 -8q-16 68 -16 119v443h21t39 -3t52.5 -8.5t54 -16.5t50.5 -27t34.5 -41.5t14.5 -57.5v-1432q-69 35 -164 35q-57 0 -158 -17.5t-141 -17.5q-220 0 -340.5 93.5t-120.5 263.5zM369 362 q0 -101 48 -146.5t171 -45.5q41 0 84 6t66 12l22 7v520q0 73 -67 121.5t-154 48.5q-77 0 -123.5 -47.5t-46.5 -143.5v-332z" />
<glyph unicode="e" horiz-adv-x="1083" d="M102 336v383q0 170 117.5 265t335.5 95q214 0 323 -90.5t109 -249.5q0 -55 -13 -102t-44 -91t-78.5 -75t-122 -49.5t-168.5 -18.5q-102 0 -192 37v-73q0 -187 227 -187q152 0 246 58t96 151q63 -89 63 -168q0 -110 -113.5 -178t-291.5 -68q-233 0 -363.5 96t-130.5 265z M369 629q95 -19 153 -19q106 0 152.5 32.5t46.5 96.5q0 146 -174 146q-99 0 -138.5 -48.5t-39.5 -148.5v-59z" />
<glyph unicode="f" horiz-adv-x="745" d="M125 119v1149q0 107 71.5 191t182 126.5t235.5 42.5q172 0 282 -55t110 -150q0 -75 -99 -155q0 51 -42 87t-104 52t-136 16q-99 0 -167.5 -55t-68.5 -145v-217h367q0 -8 -1 -21.5t-9.5 -48.5t-23 -61.5t-45.5 -48t-73 -21.5h-215v-819q-11 0 -28.5 1t-63 8t-80.5 19.5 t-63.5 40t-28.5 64.5z" />
<glyph unicode="g" horiz-adv-x="1079" d="M70 193q0 57 26.5 105.5t83.5 115.5q-39 38 -62.5 106t-23.5 129v96q0 88 34.5 154.5t93.5 104.5t130 56.5t152 18.5q58 0 164.5 -21.5t154.5 -21.5q72 0 174 41v-428q0 -172 -116 -267t-334 -95q-68 0 -132.5 14.5t-94.5 28.5l-31 14q-13 -43 -13 -80q0 -34 16 -55.5 t50 -32t73 -14.5t97 -4h68h4q55 0 83 -0.5t78 -4t77.5 -11t66.5 -20.5t60.5 -35t43.5 -51.5t31.5 -72.5t9.5 -96q0 -169 -122 -266t-365 -97q-208 0 -328.5 61t-120.5 163q0 82 70 172q22 -201 360 -201q246 0 246 154q0 28 -10 48t-26 31t-43.5 17t-54.5 8t-67 2h-100 q-72 0 -125 4.5t-108.5 18.5t-90.5 39t-57 68.5t-22 103.5zM358 680q0 -103 40 -151t149 -48q108 0 147 48t39 151v174q-92 35 -182 35q-104 0 -148.5 -40t-44.5 -134v-35z" />
<glyph unicode="h" horiz-adv-x="1169" d="M123 119v1442h20t38 -2.5t53.5 -7.5t53.5 -16.5t51.5 -27t34.5 -41.5t15 -59v-285q0 -23 -4 -53.5t-8 -50.5l-4 -19q4 3 11.5 8.5t33.5 19.5t54.5 24.5t73.5 19t91 8.5q84 0 157 -22t130 -64.5t90 -111.5t33 -156v-739q-6 0 -15.5 0.5t-37 3.5t-53 7.5t-56 15t-53 24 t-37.5 35t-15 47.5v575q0 96 -46.5 143.5t-123.5 47.5q-87 0 -154 -48.5t-67 -121.5v-729q-11 0 -29 1t-63.5 8t-81 19.5t-64 40t-28.5 64.5z" />
<glyph unicode="i" horiz-adv-x="512" d="M123 119v950q15 0 35 -1t64.5 -8.5t78.5 -20t61 -39.5t27 -64v-950q-11 0 -29 1t-63.5 8t-81 19.5t-64 40t-28.5 64.5zM129 1278v170h180q25 0 50.5 -19t25.5 -40v-170h-180q-31 0 -53.5 18t-22.5 41z" />
<glyph unicode="j" horiz-adv-x="512" d="M-68 -397q51 0 90 30t60 76.5t31 95t10 93.5v1171q11 0 29 -1t63.5 -8t81 -19.5t64 -40t28.5 -64.5v-1104q0 -134 -66 -227.5t-176 -93.5t-215 92zM131 1278v170h180q25 0 50.5 -19t25.5 -40v-170h-180q-31 0 -53.5 18t-22.5 41z" />
<glyph unicode="k" horiz-adv-x="1085" d="M123 119v1446q11 0 29 -1t63.5 -8t81 -19.5t64 -40t28.5 -64.5v-746q86 13 146 77.5t135 205.5q53 100 196 100q66 0 146 -25q-32 -43 -78.5 -122.5t-79.5 -134.5t-89 -111t-120 -82q73 -26 130 -66t92 -82.5t66 -99.5t50 -106.5t47.5 -115t54.5 -112.5 q-110 -26 -151 -26q-51 0 -87.5 18.5t-57.5 49t-40.5 70.5t-34.5 83t-41.5 86.5t-60 80.5t-91 66t-132.5 41v-495q-11 0 -29 1t-63.5 8t-81 19.5t-64 40t-28.5 64.5z" />
<glyph unicode="l" horiz-adv-x="512" d="M113 307v1258q15 0 35 -1t64.5 -8.5t78.5 -20t61 -39.5t27 -64v-1059q0 -32 0.5 -52.5t3.5 -56t8 -59t16 -52t26 -45.5t38 -28.5t53 -11.5q-61 -82 -170 -82q-118 0 -179.5 91.5t-61.5 229.5z" />
<glyph unicode="m" horiz-adv-x="1826" d="M123 119v960q80 -43 184 -43q49 0 148.5 21.5t156.5 21.5q212 0 324 -88q4 4 12 9.5t38 21t66.5 27t99 21t134.5 9.5q116 0 208.5 -37.5t151 -119t58.5 -197.5v-739q-11 0 -29 1t-63.5 9t-81 20.5t-64 39.5t-28.5 63v575q0 96 -46.5 143.5t-123.5 47.5q-88 0 -153 -38 t-68 -106v-755q-6 0 -15.5 0.5t-37 3.5t-53 7.5t-56 15t-53 24t-37.5 35t-15 47.5v592q0 85 -45.5 127.5t-150.5 42.5q-46 0 -95 -7.5t-75 -14.5l-25 -7v-866q-11 0 -29 1t-63.5 8t-81 19.5t-64 40t-28.5 64.5z" />
<glyph unicode="n" horiz-adv-x="1169" d="M123 119v960q80 -43 184 -43q49 0 148.5 21.5t156.5 21.5q67 0 126.5 -9.5t117.5 -33.5t99 -61t66.5 -97t25.5 -137v-755q-6 0 -15.5 0.5t-37 3.5t-53 7.5t-56 15t-53 24t-37.5 35t-15 47.5v592q0 85 -45.5 127.5t-150.5 42.5q-46 0 -95 -7.5t-75 -14.5l-25 -7v-866 q-11 0 -29 1t-63.5 8t-81 19.5t-64 40t-28.5 64.5z" />
<glyph unicode="o" horiz-adv-x="1191" d="M102 336v383q0 173 123.5 266.5t370.5 93.5t370.5 -93.5t123.5 -266.5v-383q0 -173 -123.5 -267t-370.5 -94t-370.5 94t-123.5 267zM369 367q0 -102 47 -149.5t180 -47.5t180 47.5t47 149.5v321q0 102 -47 149.5t-180 47.5t-180 -47.5t-47 -149.5v-321z" />
<glyph unicode="p" horiz-adv-x="1148" d="M123 -352v1431q77 -39 164 -39q57 0 158 19.5t141 19.5q220 0 340.5 -93t120.5 -263v-393q0 -160 -119.5 -257.5t-290.5 -97.5q-48 0 -92.5 8t-74.5 20t-53 24t-33 20l-11 8q16 -67 16 -118v-443h-21t-39 3t-52.5 8.5t-54 16.5t-50.5 27t-34.5 41.5t-14.5 57.5zM389 340 q0 -73 67 -121.5t154 -48.5q78 0 124 47t46 143v332q0 101 -48 147t-171 46q-41 0 -84 -6.5t-65 -12.5l-23 -6v-520z" />
<glyph unicode="q" horiz-adv-x="1148" d="M102 330v393q0 170 120.5 263t340.5 93q40 0 141 -19.5t158 -19.5q87 0 164 39v-1585h-21t-39 3t-52.5 8.5t-54 16.5t-50.5 27t-34.5 41.5t-14.5 57.5v289q0 23 4 52.5t8 47.5l4 18q-4 -3 -11.5 -8.5t-32.5 -19.5t-53.5 -24.5t-73.5 -19t-93 -8.5q-171 0 -290.5 97.5 t-119.5 257.5zM369 360q0 -96 46 -143t124 -47q87 0 154 48.5t67 121.5v520q-80 25 -172 25q-123 0 -171 -46t-48 -147v-332z" />
<glyph unicode="r" horiz-adv-x="856" d="M123 119v958q81 -41 158 -41q41 0 139 21.5t162 21.5q119 0 197.5 -47t78.5 -145q0 -35 -13 -71t-27 -57t-33 -45.5t-21 -27.5q0 92 -62.5 139t-158.5 47q-31 0 -62 -4t-61 -11l-31 -7v-864q-11 0 -29 1t-63.5 8t-81 19.5t-64 40t-28.5 64.5z" />
<glyph unicode="s" horiz-adv-x="1046" d="M61 739q0 169 116.5 254.5t336.5 85.5q191 0 303.5 -53.5t112.5 -153.5q0 -85 -78 -184q0 91 -90 140t-227 49q-108 0 -159.5 -30t-51.5 -95q0 -35 28.5 -56.5t75 -29t106 -15.5t121 -14.5t121 -28.5t106 -55.5t75 -97t28.5 -150.5q0 -156 -119.5 -243t-351.5 -87 q-197 0 -316.5 58t-119.5 162q0 91 96 192q1 -62 32 -106t83 -66t106.5 -31.5t118.5 -9.5q49 0 93.5 11t81 44.5t36.5 85.5q0 46 -36.5 72t-95 35.5t-129.5 15.5t-142 20.5t-129.5 42t-95 88t-36.5 150.5z" />
<glyph unicode="t" horiz-adv-x="911" d="M125 336v917q22 0 39 -1t52.5 -5t61.5 -15.5t53.5 -29.5t42.5 -50t15 -73v-73h418q0 -8 -1 -21.5t-9.5 -48.5t-23 -61.5t-45.5 -48t-73 -21.5h-266v-412q0 -110 42 -163.5t153 -53.5q102 0 171.5 51t69.5 164q86 -95 86 -182q0 -100 -94 -167t-270 -67q-201 0 -311.5 95 t-110.5 266z" />
<glyph unicode="u" horiz-adv-x="1169" d="M123 313v756q11 0 29 -1t63.5 -9t81 -20.5t64 -39.5t28.5 -63v-592q0 -85 46 -127.5t151 -42.5q46 0 94.5 7t73.5 15l26 7v866q6 0 15.5 -0.5t37 -3t53 -7t56 -14.5t53 -23.5t37.5 -35.5t15 -49v-961q-81 43 -185 43q-49 0 -148.5 -21.5t-156.5 -21.5q-67 0 -126.5 9.5 t-117 33.5t-98.5 61t-66.5 97t-25.5 137z" />
<glyph unicode="v" horiz-adv-x="1071" d="M41 1069q10 0 27.5 -1t63 -7.5t81 -19t67 -39t35.5 -62.5l41 -311q10 -83 32 -155.5t46.5 -116t47.5 -75t38 -44.5l15 -13q6 5 16 14.5t36.5 45.5t48.5 78.5t44.5 114t32.5 151.5l41 311q4 36 34 62.5t69.5 39t79 19t66.5 7.5l27 1l-45 -403q-10 -97 -40.5 -189 t-69.5 -160.5t-87 -130t-89.5 -101.5t-81.5 -71.5t-58.5 -43.5t-23.5 -15q-5 3 -24 15t-59 43.5t-82 71.5t-90 101.5t-87 130t-69 160.5t-40 189z" />
<glyph unicode="w" horiz-adv-x="1667" d="M43 1069q94 0 173 -30q92 -34 101 -101l41 -311q11 -84 33.5 -156.5t47 -116t47.5 -75t38 -43.5l15 -13q6 3 15.5 9.5t36 27.5t50.5 43.5t50.5 56.5t43.5 68q-45 137 -45 326q0 139 62.5 209.5t203.5 76.5q-22 -178 -22 -292q0 -106 20.5 -199t50 -150.5t58.5 -99 t49 -59.5l21 -17q6 7 16.5 20.5t38.5 56.5t51 88t45.5 110.5t30.5 128.5l41 311q4 36 33.5 62.5t68.5 39t77 20t65 8.5l26 1l-41 -405q-10 -97 -40 -189t-70.5 -160.5t-87 -128.5t-91 -101t-81 -71t-58.5 -44l-22 -13l-21 10.5t-51 31t-73.5 52t-78.5 72t-75 92.5 q-33 -46 -76 -90t-81 -73t-70.5 -51.5t-52.5 -32.5l-19 -11q-8 5 -22.5 14t-56.5 42.5t-81.5 71.5t-89 100.5t-88 130t-69.5 159.5t-42 189z" />
<glyph unicode="x" horiz-adv-x="1019" d="M0 2q29 37 49 65.5t27.5 41t34.5 59.5l141 242q22 37 47.5 65t40.5 37l14 10q-73 74 -102 123l-156 264q-48 83 -96 144q92 16 135 16q57 0 119 -27t98 -86l158 -266l158 266q36 59 98 86t119 27q19 0 53 -4t58 -8l24 -4q-48 -61 -96 -144l-156 -264q-13 -22 -38.5 -52.5 t-44.5 -50.5l-19 -20q6 -3 16 -10t37 -36t49 -66l141 -242q3 -5 11 -19l10 -17.5t8.5 -14.5t9 -15t8.5 -13.5t10 -15t10.5 -14.5t12.5 -17t14 -18.5t17 -21.5q-92 -16 -135 -16q-59 0 -123 26t-98 86l-154 271l-154 -271q-34 -60 -98 -86t-123 -26q-19 0 -53 4t-58 8z" />
<glyph unicode="y" horiz-adv-x="1091" d="M63 1069q10 0 27 -0.5t61.5 -9t80 -24t67.5 -50t39 -82.5l41 -276q10 -71 32.5 -133.5t46 -100.5t46.5 -66t37 -39.5t16 -11.5l7 6q8 7 22 21t30.5 34t35 49.5t35 64t30 80.5t20.5 96l37 274q6 46 37.5 80.5t71 50.5t78.5 25.5t65 10.5l27 1l-45 -405q-11 -96 -45.5 -187 t-82.5 -162.5t-97 -125t-99 -91.5l-80 -61q-59 -46 -93.5 -76.5t-70.5 -72t-52.5 -85t-16.5 -92.5q0 -83 43 -178q-56 -29 -109 -29q-79 0 -133.5 58t-54.5 172q0 67 21 124.5t65.5 108.5t86.5 87t111 87q-103 62 -188 207t-104 316z" />
<glyph unicode="z" horiz-adv-x="972" d="M47 88q0 67 24 130t65.5 115.5t92.5 102t108.5 99t109.5 97t100 105t76 115.5h-551q0 4 0.5 11.5t3 28.5t8 40t17 42.5t27 40.5t41 28.5t56.5 11.5h713q-10 -34 -23.5 -99t-19.5 -90q-21 -77 -71.5 -152t-115 -138t-130.5 -121t-133 -125.5t-107 -126.5h604q0 -8 -1 -22 t-9 -49t-22.5 -61.5t-46.5 -48.5t-75 -22h-729q-12 55 -12 88z" />
<glyph unicode="{" horiz-adv-x="548" d="M20 557q5 3 12 8t26.5 23.5t34 39.5t26.5 56.5t12 73.5v553q0 89 39.5 151t98 81t129.5 -9t130 -104q-40 0 -68 -11t-43 -26.5t-23 -43.5t-9.5 -51t-1.5 -61v-489q0 -115 -107 -193q107 -74 107 -193v-489q0 -38 1.5 -60.5t9.5 -51t23 -43.5t43 -26t68 -11 q-47 -62 -103 -93.5t-107 -28t-93.5 30.5t-68 82.5t-25.5 126.5v553q0 29 -11.5 61t-27.5 56.5t-32.5 45t-27.5 31.5z" />
<glyph unicode="|" horiz-adv-x="552" d="M143 -362v1929q6 0 15.5 -0.5t37 -3t53 -7t56 -14.5t53 -23.5t37.5 -35.5t15 -49v-1930q-6 0 -15.5 0.5t-37 3t-53 7t-56 15t-53 24t-37.5 35.5t-15 49z" />
<glyph unicode="}" horiz-adv-x="548" d="M20 -319q34 0 59 6.5t40.5 20.5t25.5 29.5t14 40t5.5 44.5t1.5 51v489q0 120 106 193q-106 78 -106 193v489q0 38 -1.5 61t-9.5 51t-23 43.5t-43.5 26.5t-68.5 11q47 61 103 92t107 28t94 -30t68.5 -82t25.5 -127v-553q0 -38 11.5 -73t27.5 -57.5t32 -39t27 -24.5l12 -7 l-11.5 -11.5t-26.5 -30.5t-33.5 -46t-26.5 -55.5t-12 -61.5v-553q0 -71 -25.5 -126.5t-68.5 -82.5t-93.5 -30.5t-107 28t-103.5 93.5z" />
<glyph unicode="~" horiz-adv-x="1349" d="M82 612q-44 140 11 215.5t202 75.5q128 0 382.5 -53t387.5 -53q40 0 65 3.5t65 25.5t77 65q76 -301 -217 -301q-129 0 -383 53t-385 53q-62 0 -110 -16.5t-95 -67.5z" />
<glyph unicode="&#xa1;" horiz-adv-x="593" d="M205 113v970q11 0 29 -0.5t63.5 -7t81 -19t64 -40.5t28.5 -66v-970q-11 0 -29 1t-63.5 8t-81 19.5t-64 40t-28.5 64.5zM213 1272v192h166q34 0 58 -18.5t24 -44.5v-193h-168q-32 0 -56 20t-24 44z" />
<glyph unicode="&#xa2;" horiz-adv-x="1062" d="M102 336v383q0 166 110 260t318 100v121q5 0 14.5 -0.5t32.5 -6t40.5 -15t32 -30.5t14.5 -50v-27q77 -10 139 -34t105.5 -73t43.5 -116q0 -91 -78 -207q0 98 -56 154.5t-154 74.5v-684q115 15 183.5 70t70.5 133q63 -89 63 -168q0 -96 -87 -161t-230 -80v-136 q-5 0 -14.5 0.5t-32.5 6.5t-40.5 15.5t-32 30.5t-14.5 50v30q-199 9 -313.5 104.5t-114.5 254.5zM369 387q0 -99 36.5 -147.5t124.5 -57.5v695q-86 -6 -123.5 -53t-37.5 -156v-281z" />
<glyph unicode="&#xa3;" horiz-adv-x="1318" d="M143 57q29 117 29 193v956q0 165 133.5 263t339.5 98q126 0 215 -23t133.5 -62t55.5 -90t-12 -108.5t-76 -116.5q-4 57 -29 96.5t-68.5 61.5t-96.5 31.5t-122 9.5q-97 0 -148 -49t-51 -141v-230h400q0 -8 -1 -22t-9.5 -49t-23 -61.5t-46 -48.5t-74.5 -22h-246v-436 l-8 -114q21 -6 58 -14.5t142.5 -23t201.5 -14.5q116 0 206.5 65t122.5 191q55 -76 69 -148.5t-11 -129.5t-77 -100.5t-129.5 -67t-166.5 -23.5q-169 0 -323 30.5t-388 98.5z" />
<glyph unicode="&#xa5;" horiz-adv-x="1318" d="M25 1458q74 19 125 19q166 0 231 -134l94 -190q5 -11 30 -62t32 -65.5t27.5 -54t32.5 -59t29 -46.5t33 -47q17 24 35 51.5t38 66t33 63t38 75.5t35 70l100 198q68 134 231 134q19 0 50.5 -5.5t52.5 -10.5l22 -5q-56 -92 -127 -242t-141 -282t-149 -232h174q7 -33 5 -64.5 t-11.5 -56.5t-36.5 -40t-70 -15h-141v-141h254q7 -33 5 -64.5t-11.5 -56.5t-36.5 -40t-70 -15h-141v-227q-11 0 -29.5 1t-66 8t-84 19.5t-66 40t-29.5 64.5v94h-239q-23 71 5.5 123.5t106.5 52.5h127v141h-239q-23 71 5.5 123.5t106.5 52.5h45q-79 100 -147 232.5 t-136.5 279.5t-131.5 246z" />
<glyph unicode="&#xa6;" horiz-adv-x="552" d="M143 -362v751q6 0 15.5 -0.5t37 -3t53 -7t56 -14.5t53 -23.5t37.5 -35.5t15 -49v-752q-6 0 -15.5 0.5t-37 3t-53 7t-56 15t-53 24t-37.5 35.5t-15 49zM143 815v750q6 0 15.5 -0.5t37 -3t53 -7t56 -14.5t53 -23.5t37.5 -35.5t15 -49v-750q-6 0 -15.5 0.5t-37 3t-53 7 t-56 14.5t-53 23.5t-37.5 35.5t-15 49z" />
<glyph unicode="&#xa7;" horiz-adv-x="1230" d="M115 1167q0 398 506 398q240 0 368.5 -67.5t128.5 -194.5q0 -94 -69 -211q-46 280 -428 280q-58 0 -101 -7t-70 -22.5t-44.5 -33t-25.5 -44.5t-10.5 -50.5t-2.5 -57.5q0 -54 31 -91.5t81.5 -57.5t115 -38t131.5 -31.5t131.5 -39.5t115 -60.5t81.5 -96t31 -144.5 q0 -97 -36 -161.5t-117 -100.5q12 88 12 106q0 66 -28.5 114.5t-76.5 76.5t-110 49t-130.5 38t-137.5 36t-131 51t-110 76t-76.5 116.5t-28.5 167.5zM121 -215q0 94 69 211q46 -281 428 -281q58 0 101 7t70 22.5t44.5 33t25.5 44.5t10.5 50.5t2.5 57.5q0 54 -31 91.5 t-81.5 57.5t-115 38t-131.5 31.5t-131.5 39.5t-115 60.5t-81.5 96t-31 144.5q0 97 36 162t117 101q-12 -88 -12 -107q0 -66 28.5 -114.5t76.5 -76.5t110 -49t131 -38t137.5 -36t130.5 -51t110 -76t76.5 -116.5t28.5 -167.5q0 -397 -506 -397q-240 0 -368.5 67.5 t-128.5 194.5z" />
<glyph unicode="&#xa8;" horiz-adv-x="946" d="M172 1278v172h164q30 0 51 -19t21 -40v-170h-164q-32 0 -52 17t-20 40zM539 1278v172h163q30 0 51 -19t21 -40v-170h-164q-32 0 -51.5 17t-19.5 40z" />
<glyph unicode="&#xa9;" horiz-adv-x="1728" d="M123 479v522q0 232 200 366t541 134t541.5 -134t200.5 -366v-522q0 -232 -200.5 -365.5t-541.5 -133.5t-541 133.5t-200 365.5zM354 547q0 -92 25 -160t82 -119.5t156.5 -77.5t242.5 -26q146 0 247.5 26t159 77.5t82.5 119.5t25 160v387q0 92 -25 160t-82.5 119.5 t-159 77.5t-247.5 26q-143 0 -242.5 -26t-156.5 -77.5t-82 -119.5t-25 -160v-387zM487 596v291q0 303 402 303q159 0 245.5 -47t86.5 -125q0 -64 -60 -146q-18 45 -46.5 74t-67.5 42t-74 17.5t-84 4.5q-33 0 -57 -5t-48.5 -19t-37.5 -46t-13 -80v-235q0 -49 13 -81 t37.5 -46.5t48.5 -19.5t57 -5q48 0 82.5 4.5t72.5 18t65.5 43t45.5 75.5q53 -86 53 -151q0 -84 -84.5 -128t-234.5 -44q-402 0 -402 305z" />
<glyph unicode="&#xaa;" horiz-adv-x="976" d="M123 885q0 65 30.5 111t76.5 69.5t103.5 41.5t110 28t97.5 28.5t63 44.5q-2 45 -34.5 74t-100.5 29q-104 0 -162.5 -30.5t-62.5 -106.5q-76 67 -76 139q0 74 83 123t238 49q175 0 270 -73.5t95 -205.5v-542q-63 18 -131 18q-48 0 -145 -17.5t-162 -17.5q-123 0 -208 60 t-85 178zM373 899q0 -40 30 -64t89 -24q35 0 65 5.5t43 11.5l12 6v206q-17 -28 -58.5 -44.5t-80.5 -23t-69.5 -24.5t-30.5 -49z" />
<glyph unicode="&#xab;" horiz-adv-x="1386" d="M103.5 522.5q0.5 56.5 60.5 116.5l411 412q29 -18 50 -33t43 -37.5t30.5 -43.5t2.5 -47.5t-31 -51.5l-314 -316l375 -375q-20 -41 -60.5 -71t-87 -35.5t-85.5 31.5l-336 336q-59 58 -58.5 114.5zM615.5 522.5q0.5 56.5 60.5 116.5l411 412q29 -18 50 -33t43 -37.5 t30.5 -43.5t2.5 -47.5t-31 -51.5l-314 -316l375 -375q-20 -41 -60.5 -71t-87 -35.5t-85.5 31.5l-336 336q-59 58 -58.5 114.5z" />
<glyph unicode="&#xac;" horiz-adv-x="1398" d="M47 733q0 43 12 90h1014q110 0 146 -38.5t36 -131.5v-503q-3 -107 -131 -107q-50 0 -108 14v543l-842 2q-127 0 -127 131z" />
<glyph unicode="&#xad;" horiz-adv-x="1005" d="M124 503.5q1 18.5 7 41.5t17 39.5t32.5 27.5t50.5 11h643q2 -8 4 -21.5t2 -47.5t-7.5 -59.5t-32.5 -47t-66 -21.5h-645q-1 4 -2 11t-2.5 27.5t-0.5 39z" />
<glyph unicode="&#xae;" horiz-adv-x="1026" d="M80 831v332q0 137 117 216t315 79q199 0 316.5 -79t117.5 -216v-332q0 -137 -117.5 -216.5t-316.5 -79.5q-198 0 -315 79.5t-117 216.5zM242 862q0 -89 65.5 -139.5t200.5 -50.5q139 0 206.5 50.5t67.5 139.5v264q0 89 -67.5 142t-206.5 53q-134 0 -200 -53t-66 -142 v-264zM346 831v408h133q99 0 155 -33.5t56 -122.5q0 -41 -32.5 -85t-77.5 -54q47 -16 81.5 -62.5t51.5 -101.5q-66 -20 -95 -20q-21 0 -36 15t-23 35.5t-27 47.5t-45 45v-141q-6 0 -15.5 0.5t-33.5 4t-43 10t-34 20.5t-15 34zM487 1026h7q12 0 23.5 3.5t24.5 19t13 41.5 q0 24 -13 38.5t-24.5 17.5t-23.5 3h-7v-123z" />
<glyph unicode="&#xaf;" horiz-adv-x="899" d="M134.5 1272.5q-1.5 18.5 0 35.5t8.5 38t19.5 36t36.5 25t57 10h516q1 -4 2.5 -10.5t3 -25t0.5 -35.5t-8 -38t-19.5 -36t-36.5 -25t-57 -10h-518q-1 4 -2 10.5t-2.5 25z" />
<glyph unicode="&#xb0;" horiz-adv-x="796" d="M82 1176v186q0 94 86 149.5t229 55.5q145 0 231.5 -55.5t86.5 -149.5v-186q0 -98 -85 -150.5t-233 -52.5q-146 0 -230.5 52.5t-84.5 150.5zM303 1223q0 -44 19 -64t75 -20q55 0 76 20.5t21 63.5v94q0 42 -21 63t-76 21q-56 0 -75 -20.5t-19 -63.5v-94z" />
<glyph unicode="&#xb1;" horiz-adv-x="1067" d="M124.5 602q-1.5 22 0 41.5t8.5 44t19.5 41.5t36.5 29t57 12h157v231q10 2 27 5t60 4.5t76 -5t60 -31.5t27 -67v-137h283q1 -4 2.5 -11.5t3 -29.5t0.5 -41.5t-8 -44t-19.5 -41.5t-36.5 -29t-57 -12h-168v-221q-5 -1 -14 -2.5t-35 -4t-49.5 -2.5t-52.5 5t-50 15.5t-35 31.5 t-14 51v127h-274q-1 4 -2 11.5t-2.5 29.5zM160.5 125.5q1.5 18.5 8.5 41.5t19.5 39.5t36 28t56.5 11.5h628q1 -4 2.5 -11t3 -28t0.5 -39.5t-7.5 -41.5t-19 -39.5t-36.5 -28t-57 -11.5h-629q-1 4 -2 11t-3 28t-0.5 39.5z" />
<glyph unicode="&#xb2;" horiz-adv-x="800" d="M102 700v117q0 69 39 119t94.5 78.5t111.5 53.5t95 59.5t39 80.5v15q0 43 -25.5 68.5t-74.5 25.5q-22 0 -35 -0.5t-36 -3.5t-37.5 -8t-32 -16t-28 -26.5t-17.5 -39.5t-7 -54q-77 64 -77 140q0 66 74.5 104.5t195.5 38.5q125 0 204 -58t79 -153v-39q0 -51 -20.5 -92.5 t-53.5 -68t-73.5 -48t-81 -38.5t-74 -33.5t-56 -38.5t-24.5 -49h294q33 0 61 8t40 16l12 8v-21t-5.5 -39t-15 -50.5t-30.5 -38t-51 -17.5h-484z" />
<glyph unicode="&#xb3;" horiz-adv-x="774" d="M102 1307q0 67 74.5 106t188.5 39q126 0 204 -54.5t78 -150.5v-26q0 -47 -19.5 -88.5t-56.5 -55.5q42 -22 64 -62.5t22 -84.5v-29q0 -95 -80.5 -154t-211.5 -59q-118 0 -188.5 41t-70.5 107t56 125q28 -138 203 -138q56 0 84 27.5t28 71.5q0 39 -12 60.5t-30 25t-39 7.5 t-39 8.5t-30 27t-12 63.5v8q0 1 1 9t1 10h56q51 0 72.5 22.5t21.5 67.5q0 86 -102 86q-36 0 -63 -5t-55.5 -19t-47.5 -45t-25 -77q-72 59 -72 136z" />
<glyph unicode="&#xb4;" horiz-adv-x="1001" d="M264 1305q6 9 15 18l67 68q79 79 105 124t0 87q98 -13 144.5 -68.5t27 -128t-98.5 -131.5l-121 -90l-55 17q-118 45 -84 104z" />
<glyph unicode="&#xb6;" horiz-adv-x="1228" d="M41 690v410q0 171 118 267.5t335 96.5h268h13h40.5t47.5 1t54 3t54.5 5.5t55.5 10t50 14.5t44.5 20t33 27t21.5 35t4 44q50 -55 72 -107.5t13 -97.5t-46 -79.5t-111.5 -54t-177.5 -19.5h-142q9 -35 9 -101v-1339q0 -145 -61.5 -232.5t-160.5 -87.5q-93 0 -194 91 q51 7 86.5 37.5t52.5 76.5t24 89t7 91v359q0 25 2 49.5t4 36.5l2 12q-24 -14 -90 -14q-174 0 -301 100.5t-127 255.5zM877 -436q2 1 5 5t10.5 24.5t13.5 49.5t11 87t5 131v1343q8 -3 21 -9.5t46.5 -28t59 -45t46.5 -61.5t21 -77v-1024v-46q3 -38 0.5 -76t-7 -72.5t-20.5 -66 t-41 -57.5t-68.5 -46t-102.5 -31z" />
<glyph unicode="&#xb7;" horiz-adv-x="440" d="M96 496v192h168q32 0 56 -19.5t24 -43.5v-193h-166q-34 0 -58 19t-24 45z" />
<glyph unicode="&#xb8;" horiz-adv-x="1705" d="M418 -211q8 37 20 74l80 219q59 0 90 -20t25 -64l-10 -74l41 -4q88 -9 139 -61t51 -138q0 -91 -71 -145.5t-167 -54.5q-57 0 -98.5 19.5t-60.5 48t-27 51t-8 38.5q15 -8 52 -17t77 -9q46 0 78.5 20.5t32.5 61.5q0 78 -125 78q-28 0 -57.5 -6t-45.5 -12z" />
<glyph unicode="&#xb9;" horiz-adv-x="692" d="M59 1335q0 47 42 78t124 31q41 0 99.5 4.5t96.5 9.5l38 4q-15 -96 -15 -133v-493h158q8 -25 8 -45q0 -89 -82 -89h-436q-8 26 -8 46q0 88 88 88h90v473q-115 0 -115 -111q-88 74 -88 137z" />
<glyph unicode="&#xba;" horiz-adv-x="1032" d="M123 930v276q0 134 98 206.5t295 72.5q196 0 294.5 -73t98.5 -206v-276q0 -133 -98.5 -206t-294.5 -73q-197 0 -295 72.5t-98 206.5zM371 952q0 -70 30 -102.5t115 -32.5t114 32t29 103v232q0 71 -29 103t-114 32t-115 -32.5t-30 -102.5v-232z" />
<glyph unicode="&#xbb;" horiz-adv-x="1386" d="M143 147l375 375l-313 316q-31 31 -34.5 62.5t19 59.5t47.5 48.5t62 42.5l412 -412q117 -117 2 -231l-336 -336q-40 -37 -86 -31.5t-87 35.5t-61 71zM655 147l375 375l-313 316q-31 31 -34.5 62.5t19 59.5t47.5 48.5t62 42.5l412 -412q117 -117 2 -231l-336 -336 q-40 -37 -86 -31.5t-87 35.5t-61 71z" />
<glyph unicode="&#xbc;" horiz-adv-x="1443" d="M59 1335q0 47 42 78t124 31q41 0 99.5 4.5t96.5 9.5l38 4q-15 -96 -15 -133v-493h158q8 -25 8 -45q0 -89 -82 -89h-436q-8 26 -8 46q0 88 88 88h90v473q-115 0 -115 -111q-88 74 -88 137zM337.5 381.5q4.5 26.5 27.5 50.5l725 721q24 -23 40 -42.5t31.5 -47t11.5 -54.5 t-28 -51l-725 -720q-26 25 -42 44.5t-30.5 46t-10 53zM776 199q3 59 39.5 136.5t84 145t101.5 132.5t88.5 101.5t49.5 49.5q6 0 17 -1t38 -5.5t47.5 -12.5t37.5 -24t17 -37v-358h84q0 -7 -2.5 -21.5t-10 -39t-26 -43.5t-45.5 -23v-199q-14 0 -34.5 2t-58.5 8.5t-63.5 25 t-25.5 46.5v117h-338zM971 326h143v206q-104 -120 -143 -206z" />
<glyph unicode="&#xbd;" horiz-adv-x="1576" d="M59 1335q0 47 42 78t124 31q41 0 99.5 4.5t96.5 9.5l38 4q-15 -96 -15 -133v-493h158q8 -25 8 -45q0 -89 -82 -89h-436q-8 26 -8 46q0 88 88 88h90v473q-115 0 -115 -111q-88 74 -88 137zM337.5 381.5q4.5 26.5 27.5 50.5l725 721q24 -23 40 -42.5t31.5 -47t11.5 -54.5 t-28 -51l-725 -720q-26 25 -42 44.5t-30.5 46t-10 53zM932 -10v116q0 51 21 91.5t54.5 66.5t73.5 47.5t80.5 40t74 38t54.5 47t21 61.5v14q0 43 -26 68.5t-75 25.5q-32 0 -50 -1t-49 -8.5t-48.5 -22t-31 -44t-13.5 -71.5q-78 65 -78 139q0 66 74.5 104.5t195.5 38.5 q125 0 204 -58t79 -153v-38q0 -51 -20.5 -92.5t-53.5 -68t-73.5 -48.5t-81 -39t-74 -33.5t-56 -38.5t-24.5 -49h295q33 0 61 8.5t40 16.5l12 8q0 -11 -0.5 -20.5t-5.5 -39.5t-14.5 -50.5t-31 -38t-51.5 -17.5h-483z" />
<glyph unicode="&#xbe;" horiz-adv-x="1447" d="M102 1307q0 67 74.5 106t188.5 39q126 0 204 -54.5t78 -150.5v-26q0 -47 -19.5 -88.5t-56.5 -55.5q42 -22 64 -62.5t22 -84.5v-29q0 -95 -80.5 -154t-211.5 -59q-118 0 -188.5 41t-70.5 107t56 125q28 -138 203 -138q56 0 84 27.5t28 71.5q0 39 -12 60.5t-30 25t-39 7.5 t-39 8.5t-30 27t-12 63.5v8q0 1 1 9t1 10h56q51 0 72.5 22.5t21.5 67.5q0 86 -102 86q-36 0 -63 -5t-55.5 -19t-47.5 -45t-25 -77q-72 59 -72 136zM361.5 381.5q4.5 26.5 27.5 50.5l725 721q24 -23 40 -42.5t31.5 -47t11.5 -54.5t-28 -51l-725 -720q-26 25 -42 44.5 t-30.5 46t-10 53zM778 199q3 59 39.5 136.5t84 145t101.5 132.5t88.5 101.5t49.5 49.5q6 0 17 -1t38 -5.5t47.5 -12.5t37.5 -24t17 -37v-358h84q0 -7 -2.5 -21.5t-10 -39t-26 -43.5t-45.5 -23v-199q-14 0 -34.5 2t-58.5 8.5t-63.5 25t-25.5 46.5v117h-338zM973 326h143v206 q-104 -120 -143 -206z" />
<glyph unicode="&#xbf;" horiz-adv-x="1136" d="M61 354v52q0 70 26 128.5t67.5 99.5t92 76.5t100.5 66.5t91.5 62t67.5 70.5t26 85.5v99q5 0 14.5 -0.5t36.5 -3t51.5 -7.5t54.5 -15.5t51.5 -25t36 -37.5t14.5 -51v-32q0 -51 -25 -96t-65 -79t-88.5 -65.5t-97.5 -62t-89 -63t-65 -75t-25 -90.5q0 -96 65.5 -150.5 t194.5 -54.5q62 0 116 12.5t98 38.5t69.5 71t25.5 104q55 -51 83 -105t27.5 -102t-28.5 -91t-80 -74t-132 -49t-179 -18q-240 0 -387.5 100t-147.5 281zM539 1270v192h166q34 0 57.5 -18.5t23.5 -44.5v-193h-168q-31 0 -55 20t-24 44z" />
<glyph unicode="&#xc0;" horiz-adv-x="1396" d="M0 8q38 56 115 300q8 25 12 38l174 539q39 119 91.5 225t98.5 172.5t93.5 120.5t73 76.5t40.5 31.5q15 -9 40.5 -31.5t73.5 -76.5t94 -120.5t98.5 -172.5t91.5 -225l174 -539q73 -230 100 -289q14 -29 27 -49q-68 -22 -115 -22q-39 0 -72 10t-57 23t-46 39.5t-35.5 47 t-29.5 58t-23.5 60l-21.5 64.5q-4 11 -6 17l-35 109h-516l-34 -109q-2 -6 -6 -17q-14 -43 -21.5 -64.5t-23.5 -59.5t-29.5 -58.5t-35.5 -47t-46 -39.5t-57 -23t-72 -10q-21 0 -49.5 5.5t-47.5 10.5zM467.5 1850.5q9.5 46.5 55 82.5t119.5 46q-26 -42 0 -87.5t104 -123.5 l68 -68q25 -27 21.5 -49t-26.5 -39t-50 -28t-49 -17l-21 -6l-121 90q-59 44 -84.5 98.5t-16 101zM500 618h397l-63 213q-23 76 -57 163t-57 136l-22 48q-59 -92 -135 -347z" />
<glyph unicode="&#xc1;" horiz-adv-x="1396" d="M0 8q38 56 115 300q8 25 12 38l174 539q39 119 91.5 225t98.5 172.5t93.5 120.5t73 76.5t40.5 31.5q15 -9 40.5 -31.5t73.5 -76.5t94 -120.5t98.5 -172.5t91.5 -225l174 -539q73 -230 100 -289q14 -29 27 -49q-68 -22 -115 -22q-39 0 -72 10t-57 23t-46 39.5t-35.5 47 t-29.5 58t-23.5 60l-21.5 64.5q-4 11 -6 17l-35 109h-516l-34 -109q-2 -6 -6 -17q-14 -43 -21.5 -64.5t-23.5 -59.5t-29.5 -58.5t-35.5 -47t-46 -39.5t-57 -23t-72 -10q-21 0 -49.5 5.5t-47.5 10.5zM500 618h397l-63 213q-23 76 -57 163t-57 136l-22 48q-59 -92 -135 -347z M567 1682q6 9 15 18l67 67q79 79 105 124t0 87q98 -13 144.5 -68.5t27 -127.5t-98.5 -131l-120 -90l-56 17q-118 45 -84 104z" />
<glyph unicode="&#xc2;" horiz-adv-x="1396" d="M0 8q38 56 115 300q8 25 12 38l174 539q39 119 91.5 225t98.5 172.5t93.5 120.5t73 76.5t40.5 31.5q15 -9 40.5 -31.5t73.5 -76.5t94 -120.5t98.5 -172.5t91.5 -225l174 -539q73 -230 100 -289q14 -29 27 -49q-68 -22 -115 -22q-39 0 -72 10t-57 23t-46 39.5t-35.5 47 t-29.5 58t-23.5 60l-21.5 64.5q-4 11 -6 17l-35 109h-516l-34 -109q-2 -6 -6 -17q-14 -43 -21.5 -64.5t-23.5 -59.5t-29.5 -58.5t-35.5 -47t-46 -39.5t-57 -23t-72 -10q-21 0 -49.5 5.5t-47.5 10.5zM394 1694q-6 20 10.5 47t37 49.5t65.5 56.5t85 61.5t106 70.5 q66 -43 106.5 -70t85.5 -61t65.5 -56.5t37.5 -49.5t11.5 -47.5t-23 -43t-56 -43t-96.5 -41.5q17 28 10 58t-30 60t-47.5 53.5t-43.5 38.5l-20 15q-2 -2 -6.5 -5t-16.5 -12.5t-23.5 -20t-26.5 -25.5t-26.5 -29.5t-22 -32t-15 -34t-3 -34t10.5 -32.5q-57 21 -95.5 41.5t-56 43 t-23.5 42.5zM500 618h397l-63 213q-23 76 -57 163t-57 136l-22 48q-59 -92 -135 -347z" />
<glyph unicode="&#xc3;" horiz-adv-x="1396" d="M0 8q38 56 115 300q8 25 12 38l174 539q39 119 91.5 225t98.5 172.5t93.5 120.5t73 76.5t40.5 31.5q15 -9 40.5 -31.5t73.5 -76.5t94 -120.5t98.5 -172.5t91.5 -225l174 -539q73 -230 100 -289q14 -29 27 -49q-68 -22 -115 -22q-39 0 -72 10t-57 23t-46 39.5t-35.5 47 t-29.5 58t-23.5 60l-21.5 64.5q-4 11 -6 17l-35 109h-516l-34 -109q-2 -6 -6 -17q-14 -43 -21.5 -64.5t-23.5 -59.5t-29.5 -58.5t-35.5 -47t-46 -39.5t-57 -23t-72 -10q-21 0 -49.5 5.5t-47.5 10.5zM386 1693q-2 41 11.5 78t46.5 63t76 26q54 0 184.5 -47.5t192.5 -47.5 q36 0 57.5 12t42.5 42q19 -33 22 -74.5t-8.5 -78.5t-44.5 -62t-81 -25q-56 0 -185.5 47t-189.5 47q-39 0 -60.5 -11.5t-41.5 -39.5q-20 30 -22 71zM500 618h397l-63 213q-23 76 -57 163t-57 136l-22 48q-59 -92 -135 -347z" />
<glyph unicode="&#xc4;" horiz-adv-x="1396" d="M0 8q38 56 115 300q8 25 12 38l174 539q39 119 91.5 225t98.5 172.5t93.5 120.5t73 76.5t40.5 31.5q15 -9 40.5 -31.5t73.5 -76.5t94 -120.5t98.5 -172.5t91.5 -225l174 -539q73 -230 100 -289q14 -29 27 -49q-68 -22 -115 -22q-39 0 -72 10t-57 23t-46 39.5t-35.5 47 t-29.5 58t-23.5 60l-21.5 64.5q-4 11 -6 17l-35 109h-516l-34 -109q-2 -6 -6 -17q-14 -43 -21.5 -64.5t-23.5 -59.5t-29.5 -58.5t-35.5 -47t-46 -39.5t-57 -23t-72 -10q-21 0 -49.5 5.5t-47.5 10.5zM397 1655v172h164q30 0 51 -19t21 -40v-170h-164q-32 0 -52 17t-20 40z M500 618h397l-63 213q-23 76 -57 163t-57 136l-22 48q-59 -92 -135 -347zM764 1655v172h163q30 0 51 -19t21 -40v-170h-164q-32 0 -51.5 17t-19.5 40z" />
<glyph unicode="&#xc5;" horiz-adv-x="1396" d="M0 8q38 56 115 300q8 25 12 38l174 539q39 119 91.5 225t98.5 172.5t93.5 120.5t73 76.5t40.5 31.5q15 -9 40.5 -31.5t73.5 -76.5t94 -120.5t98.5 -172.5t91.5 -225l174 -539q73 -230 100 -289q14 -29 27 -49q-68 -22 -115 -22q-39 0 -72 10t-57 23t-46 39.5t-35.5 47 t-29.5 58t-23.5 60l-21.5 64.5q-4 11 -6 17l-35 109h-516l-34 -109q-2 -6 -6 -17q-14 -43 -21.5 -64.5t-23.5 -59.5t-29.5 -58.5t-35.5 -47t-46 -39.5t-57 -23t-72 -10q-21 0 -49.5 5.5t-47.5 10.5zM489 1700v98q0 62 57 98.5t152 36.5q96 0 152.5 -36t56.5 -99v-98 q0 -64 -56 -98.5t-153 -34.5q-96 0 -152.5 35t-56.5 98zM500 618h397l-63 213q-23 76 -57 163t-57 136l-22 48q-59 -92 -135 -347zM629 1722q0 -26 13 -36.5t54 -10.5t56.5 11t15.5 36v54q0 49 -72 49q-41 0 -54 -12t-13 -37v-54z" />
<glyph unicode="&#xc6;" horiz-adv-x="1748" d="M0 8q39 68 129 363l166 532q34 108 82 204.5t100 164.5t101 116t94 76h1005q0 -4 -0.5 -11.5t-3 -28.5t-8 -40t-17 -42t-27 -40t-41 -28.5t-56.5 -11.5h-475v-379h319q78 0 135 8t75 16l17 8q0 -36 -3.5 -65.5t-16 -62.5t-32.5 -55.5t-56.5 -37t-85.5 -14.5h-352v-477 h628q0 -11 -1 -26.5t-9.5 -49.5t-23.5 -60t-46 -46.5t-73 -20.5h-527q-9 0 -24 1t-53.5 8t-68 19.5t-53.5 40t-24 64.5v293h-340l-33 -111q-3 -11 -10 -33q-11 -40 -17.5 -61t-20.5 -57.5t-27 -57t-34.5 -47t-45.5 -40t-57.5 -23.5t-73.5 -10q-21 0 -49.5 5.5t-47.5 10.5z M494 629h280v624q-64 -54 -122.5 -170t-96.5 -249q-12 -43 -33.5 -114.5t-27.5 -90.5z" />
<glyph unicode="&#xc7;" horiz-adv-x="1413" d="M123 479v506q0 109 34 195.5t92 143.5t139 94.5t170.5 54t191.5 16.5q107 0 203 -14.5t179 -48.5t130.5 -85t48 -130.5t-59.5 -178.5q-15 54 -53 97t-88 70t-112.5 45t-123.5 25t-124 7q-353 0 -353 -320v-446q0 -324 353 -324q425 0 501 246q51 -91 52 -166t-39.5 -126 t-113 -87.5t-160 -54t-187.5 -21.5l-6 -53l41 -4q88 -9 139 -61t51 -138q0 -91 -70.5 -145.5t-166.5 -54.5q-46 0 -83 13.5t-57 32.5t-33.5 42.5t-17.5 40t-4 28.5q15 -8 52 -17t77 -9q46 0 78.5 20.5t32.5 61.5q0 78 -125 78q-28 0 -57.5 -6t-45.5 -12l-16 -5q8 37 20 74 l41 117q-89 8 -165.5 29t-144.5 61t-116 95.5t-76 135.5t-28 178z" />
<glyph unicode="&#xc8;" horiz-adv-x="1220" d="M143 133v1331h1006q0 -4 -0.5 -11.5t-3.5 -28.5t-8 -40t-16.5 -42t-27.5 -40t-41.5 -28.5t-56.5 -11.5h-577v-379h422q78 0 135 8t75 16l17 8q0 -36 -4 -65.5t-16 -62.5t-32.5 -55.5t-57 -37t-85.5 -14.5h-454v-477h731q0 -10 -1.5 -26t-10 -50t-23 -60t-46 -46.5 t-73.5 -20.5h-628q-9 0 -24 1t-54 8t-68.5 19.5t-53.5 40t-24 64.5zM436.5 1850.5q9.5 46.5 55 82.5t119.5 46q-26 -42 0 -87.5t104 -123.5l68 -68q25 -27 21.5 -49t-26.5 -39t-50 -28t-48 -17l-22 -6l-121 90q-59 44 -84.5 98.5t-16 101z" />
<glyph unicode="&#xc9;" horiz-adv-x="1220" d="M143 133v1331h1006q0 -4 -0.5 -11.5t-3.5 -28.5t-8 -40t-16.5 -42t-27.5 -40t-41.5 -28.5t-56.5 -11.5h-577v-379h422q78 0 135 8t75 16l17 8q0 -36 -4 -65.5t-16 -62.5t-32.5 -55.5t-57 -37t-85.5 -14.5h-454v-477h731q0 -10 -1.5 -26t-10 -50t-23 -60t-46 -46.5 t-73.5 -20.5h-628q-9 0 -24 1t-54 8t-68.5 19.5t-53.5 40t-24 64.5zM536 1682q6 9 15 18l67 67q79 79 105 124t0 87q74 -10 119.5 -45.5t55 -82.5t-16 -101t-84.5 -98l-121 -90l-56 17q-118 45 -84 104z" />
<glyph unicode="&#xca;" horiz-adv-x="1220" d="M143 133v1331h1006q0 -4 -0.5 -11.5t-3.5 -28.5t-8 -40t-16.5 -42t-27.5 -40t-41.5 -28.5t-56.5 -11.5h-577v-379h422q78 0 135 8t75 16l17 8q0 -36 -4 -65.5t-16 -62.5t-32.5 -55.5t-57 -37t-85.5 -14.5h-454v-477h731q0 -10 -1.5 -26t-10 -50t-23 -60t-46 -46.5 t-73.5 -20.5h-628q-9 0 -24 1t-54 8t-68.5 19.5t-53.5 40t-24 64.5zM363 1694q-6 20 10.5 47t37 49.5t65.5 56.5t85 61.5t106 70.5q66 -43 106.5 -70t85.5 -61t65.5 -56.5t37.5 -49.5t11.5 -47.5t-23 -43t-56 -43t-96.5 -41.5q17 28 10 58t-30 60t-47.5 53.5t-44.5 38.5 l-19 15q-2 -2 -6.5 -5t-16.5 -12.5t-23.5 -20t-26.5 -25.5t-26.5 -29.5t-22 -32t-15 -34t-3 -34t10.5 -32.5q-57 21 -95.5 41.5t-56 43t-23.5 42.5z" />
<glyph unicode="&#xcb;" horiz-adv-x="1220" d="M143 133v1331h1006q0 -4 -0.5 -11.5t-3.5 -28.5t-8 -40t-16.5 -42t-27.5 -40t-41.5 -28.5t-56.5 -11.5h-577v-379h422q78 0 135 8t75 16l17 8q0 -36 -4 -65.5t-16 -62.5t-32.5 -55.5t-57 -37t-85.5 -14.5h-454v-477h731q0 -10 -1.5 -26t-10 -50t-23 -60t-46 -46.5 t-73.5 -20.5h-628q-9 0 -24 1t-54 8t-68.5 19.5t-53.5 40t-24 64.5zM367 1655v172h163q30 0 51 -19.5t21 -40.5v-170h-164q-32 0 -51.5 17.5t-19.5 40.5zM733 1655v172h164q30 0 51 -19.5t21 -40.5v-170h-164q-32 0 -52 17.5t-20 40.5z" />
<glyph unicode="&#xcc;" horiz-adv-x="561" d="M49.5 1850.5q9.5 46.5 55 82.5t119.5 46q-26 -42 0 -87.5t104 -123.5l68 -68q25 -27 21.5 -49t-26.5 -39t-50 -28t-49 -17l-21 -6l-121 90q-59 44 -84.5 98.5t-16 101zM143 113v1372q11 0 29.5 -1t66 -8t84 -19.5t66 -40t29.5 -64.5v-1372q-11 0 -29.5 1t-66 8t-84 19.5 t-66 40t-29.5 64.5z" />
<glyph unicode="&#xcd;" horiz-adv-x="561" d="M143 113v1372q11 0 29.5 -1t66 -8t84 -19.5t66 -40t29.5 -64.5v-1372q-11 0 -29.5 1t-66 8t-84 19.5t-66 40t-29.5 64.5zM149 1682q6 9 15 18l67 67q79 79 105 124t0 87q74 -10 119.5 -45.5t55 -82.5t-16 -101t-84.5 -98l-121 -90l-56 17q-118 45 -84 104z" />
<glyph unicode="&#xce;" horiz-adv-x="561" d="M-24 1694q-6 20 10.5 47t37 49.5t65.5 56.5t85 61.5t106 70.5q66 -43 106.5 -70t85.5 -61t65.5 -56.5t37.5 -49.5t11.5 -47.5t-23 -43t-56 -43t-96.5 -41.5q17 28 10 58t-30 60t-47.5 53.5t-43.5 38.5l-20 15q-2 -2 -6.5 -5t-16.5 -12.5t-23.5 -20t-26.5 -25.5 t-26.5 -29.5t-22 -32t-15 -34t-3 -34t10.5 -32.5q-57 21 -95.5 41.5t-56 43t-23.5 42.5zM143 113v1372q11 0 29.5 -1t66 -8t84 -19.5t66 -40t29.5 -64.5v-1372q-11 0 -29.5 1t-66 8t-84 19.5t-66 40t-29.5 64.5z" />
<glyph unicode="&#xcf;" horiz-adv-x="561" d="M-20 1655v172h163q30 0 51 -19.5t21 -40.5v-170h-164q-32 0 -51.5 17.5t-19.5 40.5zM143 113v1372q11 0 29.5 -1t66 -8t84 -19.5t66 -40t29.5 -64.5v-1372q-11 0 -29.5 1t-66 8t-84 19.5t-66 40t-29.5 64.5zM346 1655v172h164q30 0 51 -19.5t21 -40.5v-170h-164 q-32 0 -52 17.5t-20 40.5z" />
<glyph unicode="&#xd0;" horiz-adv-x="1497" d="M-0.5 699q0.5 34 8.5 60t33 47t65 21h37v637h594q104 0 193 -14t172.5 -49.5t142 -91.5t94 -144.5t35.5 -203.5v-457q0 -115 -35.5 -204t-94 -144.5t-142 -91.5t-172.5 -50t-193 -14h-375q-13 0 -31.5 1.5t-54 9t-63 20.5t-49 39.5t-21.5 62.5v498h-139q-2 8 -3.5 21 t-1 47zM418 203h319q363 0 363 321v418q0 320 -363 320h-319v-435h332q2 -8 4 -21t1.5 -47t-8 -60t-32.5 -47t-66 -21h-231v-428z" />
<glyph unicode="&#xd1;" horiz-adv-x="1507" d="M143 113v1351q55 0 81 -0.5t71 -3.5t69.5 -10t56 -19.5t53.5 -33.5t40 -49l600 -940q-24 117 -24 217v839q11 0 29.5 -1t66 -8t83.5 -19.5t65.5 -40t29.5 -64.5v-1351q-87 0 -157 15t-108.5 37t-64.5 43.5t-34 36.5l-9 15l-596 946q23 -117 23 -217v-876q-11 0 -29.5 1 t-66 8t-84 19.5t-66 40t-29.5 64.5zM443 1693q-2 41 11.5 78t46.5 63t76 26q54 0 184.5 -47t192.5 -47q36 0 57.5 11.5t42.5 41.5q19 -33 22 -74.5t-8.5 -78.5t-44.5 -62t-81 -25q-56 0 -185.5 47t-189.5 47q-39 0 -60.5 -11.5t-41.5 -39.5q-20 30 -22 71z" />
<glyph unicode="&#xd2;" d="M123 461v543q0 233 153 359t463 126q309 0 463 -126.5t154 -358.5v-543q0 -233 -154 -359.5t-463 -126.5q-310 0 -463 126.5t-153 359.5zM397 487q0 -63 8 -107.5t29.5 -85t59.5 -64.5t98.5 -38t144.5 -14q85 0 146.5 14t99.5 38t60 64.5t30 85t8 107.5v490 q0 63 -8 107.5t-30 85t-60 64.5t-99.5 38t-146.5 14q-84 0 -144.5 -14t-98.5 -38t-59.5 -64.5t-29.5 -85t-8 -107.5v-490zM510.5 1850.5q9.5 46.5 55 82.5t119.5 46q-26 -42 0 -87.5t104 -123.5l68 -68q25 -27 21.5 -49t-26.5 -39t-50 -28t-48 -17l-22 -6l-121 90 q-59 44 -84.5 98.5t-16 101z" />
<glyph unicode="&#xd3;" d="M123 461v543q0 233 153 359t463 126q309 0 463 -126.5t154 -358.5v-543q0 -233 -154 -359.5t-463 -126.5q-310 0 -463 126.5t-153 359.5zM397 487q0 -63 8 -107.5t29.5 -85t59.5 -64.5t98.5 -38t144.5 -14q85 0 146.5 14t99.5 38t60 64.5t30 85t8 107.5v490 q0 63 -8 107.5t-30 85t-60 64.5t-99.5 38t-146.5 14q-84 0 -144.5 -14t-98.5 -38t-59.5 -64.5t-29.5 -85t-8 -107.5v-490zM610 1682q6 9 15 18l67 67q79 79 105 124t0 87q98 -13 144.5 -68.5t27 -127.5t-98.5 -131l-120 -90l-56 17q-118 45 -84 104z" />
<glyph unicode="&#xd4;" d="M123 461v543q0 233 153 359t463 126q309 0 463 -126.5t154 -358.5v-543q0 -233 -154 -359.5t-463 -126.5q-310 0 -463 126.5t-153 359.5zM397 487q0 -63 8 -107.5t29.5 -85t59.5 -64.5t98.5 -38t144.5 -14q85 0 146.5 14t99.5 38t60 64.5t30 85t8 107.5v490 q0 63 -8 107.5t-30 85t-60 64.5t-99.5 38t-146.5 14q-84 0 -144.5 -14t-98.5 -38t-59.5 -64.5t-29.5 -85t-8 -107.5v-490zM437 1694q-6 20 10.5 47t37 49.5t65.5 56.5t85 61.5t106 70.5q66 -43 106.5 -70t85.5 -61t65.5 -56.5t37.5 -49.5t11.5 -47.5t-23 -43t-56 -43 t-96.5 -41.5q17 28 10 58t-30 60t-47.5 53.5t-44.5 38.5l-19 15q-2 -2 -6.5 -5t-16.5 -12.5t-23.5 -20t-26.5 -25.5t-26.5 -29.5t-22 -32t-15 -34t-3 -34t10.5 -32.5q-57 21 -95.5 41.5t-56 43t-23.5 42.5z" />
<glyph unicode="&#xd5;" d="M123 461v543q0 233 153 359t463 126q309 0 463 -126.5t154 -358.5v-543q0 -233 -154 -359.5t-463 -126.5q-310 0 -463 126.5t-153 359.5zM397 487q0 -63 8 -107.5t29.5 -85t59.5 -64.5t98.5 -38t144.5 -14q85 0 146.5 14t99.5 38t60 64.5t30 85t8 107.5v490 q0 63 -8 107.5t-30 85t-60 64.5t-99.5 38t-146.5 14q-84 0 -144.5 -14t-98.5 -38t-59.5 -64.5t-29.5 -85t-8 -107.5v-490zM429 1693q-2 41 11.5 78t46.5 63t76 26q54 0 184.5 -47.5t192.5 -47.5q36 0 57.5 12t42.5 42q19 -33 22 -74.5t-8.5 -78.5t-44.5 -62t-81 -25 q-56 0 -185.5 47t-189.5 47q-39 0 -60.5 -11.5t-41.5 -39.5q-20 30 -22 71z" />
<glyph unicode="&#xd6;" d="M123 461v543q0 233 153 359t463 126q309 0 463 -126.5t154 -358.5v-543q0 -233 -154 -359.5t-463 -126.5q-310 0 -463 126.5t-153 359.5zM397 487q0 -63 8 -107.5t29.5 -85t59.5 -64.5t98.5 -38t144.5 -14q85 0 146.5 14t99.5 38t60 64.5t30 85t8 107.5v490 q0 63 -8 107.5t-30 85t-60 64.5t-99.5 38t-146.5 14q-84 0 -144.5 -14t-98.5 -38t-59.5 -64.5t-29.5 -85t-8 -107.5v-490zM440 1655v172h164q30 0 51 -19t21 -40v-170h-164q-32 0 -52 17t-20 40zM807 1655v172h163q30 0 51 -19t21 -40v-170h-164q-32 0 -51.5 17t-19.5 40z " />
<glyph unicode="&#xd7;" horiz-adv-x="985" d="M123 758q5 8 14 20.5t36.5 40t55 42.5t66 12.5t72.5 -35.5l120 -117q34 35 104.5 104.5t96.5 96.5q4 -3 11 -7.5t25.5 -19.5t33.5 -30t30 -37t21.5 -42t1.5 -44t-25 -44l-135 -137l211 -211q-5 -8 -14.5 -20.5t-38.5 -40t-57.5 -42.5t-66.5 -12.5t-71 35.5l-125 125 l-198 -200q-4 3 -11 7.5t-25.5 20t-33.5 31t-30 38t-21.5 43.5t-1.5 45t25 44l133 135z" />
<glyph unicode="&#xd8;" d="M104 94q3 29 25 56l53 61q-59 101 -59 250v543q0 233 153 359t463 126q293 0 453 -119l104 121q5 -4 13 -10.5t25 -26.5t26 -41t5.5 -50t-26.5 -56l-45 -54q62 -106 62 -249v-543q0 -233 -154 -359.5t-463 -126.5q-299 0 -454 121l-111 -127q-5 3 -13 9.5t-25 26.5 t-26 40t-6 49zM397 457l635 729q-71 100 -295 100q-84 0 -144.5 -14t-98.5 -38t-59.5 -64.5t-29.5 -85t-8 -107.5v-490v-30zM444 279q69 -101 293 -101q85 0 146.5 14t99.5 38t60 64.5t30 85t8 107.5v490v33z" />
<glyph unicode="&#xd9;" d="M123 438v1047q11 0 29.5 -1t66 -8t83.5 -19.5t65.5 -40t29.5 -64.5v-883q0 -135 93.5 -208t248.5 -73t248.5 73t93.5 208v1016q11 0 29.5 -1t66 -8t84 -19.5t66 -40t29.5 -64.5v-914q0 -112 -50 -202t-136 -146t-196 -85.5t-235 -29.5t-235 29.5t-195.5 85.5t-135.5 146 t-50 202zM510.5 1850.5q9.5 46.5 55 82.5t119.5 46q-26 -42 0 -87.5t104 -123.5l68 -68q25 -27 21.5 -49t-26.5 -39t-50 -28t-48 -17l-22 -6l-121 90q-59 44 -84.5 98.5t-16 101z" />
<glyph unicode="&#xda;" d="M123 438v1047q11 0 29.5 -1t66 -8t83.5 -19.5t65.5 -40t29.5 -64.5v-883q0 -135 93.5 -208t248.5 -73t248.5 73t93.5 208v1016q11 0 29.5 -1t66 -8t84 -19.5t66 -40t29.5 -64.5v-914q0 -112 -50 -202t-136 -146t-196 -85.5t-235 -29.5t-235 29.5t-195.5 85.5t-135.5 146 t-50 202zM610 1682q6 9 15 18l67 67q79 79 105 124t0 87q98 -13 144.5 -68.5t27 -127.5t-98.5 -131l-120 -90l-56 17q-118 45 -84 104z" />
<glyph unicode="&#xdb;" d="M123 438v1047q11 0 29.5 -1t66 -8t83.5 -19.5t65.5 -40t29.5 -64.5v-883q0 -135 93.5 -208t248.5 -73t248.5 73t93.5 208v1016q11 0 29.5 -1t66 -8t84 -19.5t66 -40t29.5 -64.5v-914q0 -112 -50 -202t-136 -146t-196 -85.5t-235 -29.5t-235 29.5t-195.5 85.5t-135.5 146 t-50 202zM437 1694q-6 20 10.5 47t37 49.5t65.5 56.5t85 61.5t106 70.5q66 -43 106.5 -70t85.5 -61t65.5 -56.5t37.5 -49.5t11.5 -47.5t-23 -43t-56 -43t-96.5 -41.5q17 28 10 58t-30 60t-47.5 53.5t-44.5 38.5l-19 15q-2 -2 -6.5 -5t-16.5 -12.5t-23.5 -20t-26.5 -25.5 t-26.5 -29.5t-22 -32t-15 -34t-3 -34t10.5 -32.5q-57 21 -95.5 41.5t-56 43t-23.5 42.5z" />
<glyph unicode="&#xdc;" d="M123 438v1047q11 0 29.5 -1t66 -8t83.5 -19.5t65.5 -40t29.5 -64.5v-883q0 -135 93.5 -208t248.5 -73t248.5 73t93.5 208v1016q11 0 29.5 -1t66 -8t84 -19.5t66 -40t29.5 -64.5v-914q0 -112 -50 -202t-136 -146t-196 -85.5t-235 -29.5t-235 29.5t-195.5 85.5t-135.5 146 t-50 202zM440 1655v172h164q30 0 51 -19.5t21 -40.5v-170h-164q-32 0 -52 17.5t-20 40.5zM807 1655v172h164q30 0 50.5 -19.5t20.5 -40.5v-170h-163q-32 0 -52 17.5t-20 40.5z" />
<glyph unicode="&#xdd;" horiz-adv-x="1277" d="M4 1458q74 19 125 19q166 0 231 -134l95 -190q5 -11 30 -62t32 -65.5t27.5 -54t32.5 -59t29 -46.5t33 -47q22 29 47.5 73t39.5 71t48 96t43 86l101 198q68 134 231 134q19 0 50.5 -5.5t52.5 -10.5l22 -5q-50 -84 -113.5 -212.5t-109.5 -225t-119.5 -210.5t-155.5 -198 v-630q-11 0 -29.5 1t-66 8t-83.5 19.5t-65.5 40t-29.5 64.5v497q-85 85 -157.5 198.5t-116 210t-105.5 223.5t-119 216zM508 1682q6 9 15 18l67 68q79 79 105 124t0 87q98 -13 144.5 -68.5t27 -128t-98.5 -131.5l-121 -90l-55 17q-118 45 -84 104z" />
<glyph unicode="&#xde;" horiz-adv-x="1251" d="M143 113v1452q11 0 29.5 -1t66 -8t84 -19.5t66 -40t29.5 -64.5v-125h137q105 0 190.5 -12t167 -44t136.5 -84.5t88.5 -138t33.5 -199.5v-36q0 -482 -616 -482h-137v-331q-11 0 -29.5 1t-66 8t-84 19.5t-66 40t-29.5 64.5zM418 514h137q66 0 113.5 6t93 24t73.5 50 t45 86.5t17 130.5q0 71 -16.5 123.5t-45.5 84.5t-73.5 51.5t-93.5 26.5t-113 7h-137v-590z" />
<glyph unicode="&#xdf;" horiz-adv-x="1366" d="M123 113v1032q0 76 30.5 144t82.5 118t120 86.5t144.5 55t154.5 18.5q108 0 196.5 -18.5t158.5 -56.5t108.5 -102.5t38.5 -150.5q0 -57 -23.5 -107.5t-59 -84.5t-77 -67.5t-77 -59.5t-59 -58t-23.5 -65q0 -36 27 -58.5t70 -36t95 -26.5t103.5 -37t94.5 -59.5t70 -102.5 t27 -158q0 -158 -121.5 -251t-351.5 -93q-55 0 -112 13.5t-108.5 37.5t-86.5 61t-48.5 81.5t7.5 102t80 118.5q-7 -48 17 -89t66.5 -66.5t91 -39.5t93.5 -14q118 0 162.5 39.5t44.5 110.5q0 46 -26.5 78.5t-68.5 51.5t-93 35.5t-101.5 36.5t-92.5 47.5t-68.5 76t-26.5 114.5 q0 61 32 119t78 100.5t91.5 80.5t77.5 74t32 66q0 80 -63.5 119t-167.5 39q-127 0 -200 -71t-73 -193v-1124q-11 0 -29 1t-63.5 8t-81 19.5t-64 40t-28.5 64.5z" />
<glyph unicode="&#xe0;" horiz-adv-x="1093" d="M86 297q0 78 30.5 136t80.5 91.5t111.5 56.5t126.5 38t121.5 29.5t101 37.5t61.5 55q0 140 -199 140q-67 0 -124 -12.5t-103.5 -38.5t-73 -72.5t-26.5 -108.5q-78 106 -78 199q0 63 39 110.5t102.5 72.5t130 36.5t135.5 11.5q224 0 342.5 -91t118.5 -259v-749 q-63 32 -158 32q-49 0 -155 -18.5t-166 -18.5q-84 0 -155 16.5t-132 52.5t-96 100.5t-35 152.5zM311.5 1473.5q9.5 46.5 55 82.5t119.5 46q-26 -42 0 -87.5t104 -123.5l68 -68q25 -27 21.5 -49t-26.5 -39t-50 -28t-49 -17l-21 -6l-121 90q-59 44 -84.5 98.5t-16 101z M350 301q0 -68 48 -103.5t137 -35.5q48 0 95.5 9t71.5 19l23 9v333q-13 -29 -56.5 -47.5t-96 -29t-103.5 -25t-85 -46.5t-34 -83z" />
<glyph unicode="&#xe1;" horiz-adv-x="1093" d="M86 297q0 78 30.5 136t80.5 91.5t111.5 56.5t126.5 38t121.5 29.5t101 37.5t61.5 55q0 140 -199 140q-67 0 -124 -12.5t-103.5 -38.5t-73 -72.5t-26.5 -108.5q-78 106 -78 199q0 63 39 110.5t102.5 72.5t130 36.5t135.5 11.5q224 0 342.5 -91t118.5 -259v-749 q-63 32 -158 32q-49 0 -155 -18.5t-166 -18.5q-84 0 -155 16.5t-132 52.5t-96 100.5t-35 152.5zM350 301q0 -68 48 -103.5t137 -35.5q48 0 95.5 9t71.5 19l23 9v333q-13 -29 -56.5 -47.5t-96 -29t-103.5 -25t-85 -46.5t-34 -83zM411 1305q6 9 15 18l68 68q78 78 104 123.5 t0 87.5q74 -10 119.5 -46t55 -82.5t-16 -101t-84.5 -98.5l-121 -90l-56 17q-118 45 -84 104z" />
<glyph unicode="&#xe2;" horiz-adv-x="1093" d="M86 297q0 78 30.5 136t80.5 91.5t111.5 56.5t126.5 38t121.5 29.5t101 37.5t61.5 55q0 140 -199 140q-67 0 -124 -12.5t-103.5 -38.5t-73 -72.5t-26.5 -108.5q-78 106 -78 199q0 63 39 110.5t102.5 72.5t130 36.5t135.5 11.5q224 0 342.5 -91t118.5 -259v-749 q-63 32 -158 32q-49 0 -155 -18.5t-166 -18.5q-84 0 -155 16.5t-132 52.5t-96 100.5t-35 152.5zM238 1317q-6 20 10.5 47t37 49.5t65.5 56.5t85 61.5t106 70.5q66 -43 106.5 -70t85.5 -61t65.5 -56.5t37.5 -49.5t11.5 -47.5t-23 -43t-56 -43t-96.5 -41.5q17 28 10 58t-30 60 t-47.5 53.5t-43.5 38.5l-20 15q-2 -2 -6.5 -5t-16.5 -12.5t-23.5 -20t-26.5 -25.5t-26.5 -29.5t-22 -32t-15 -34t-3 -34t10.5 -32.5q-57 21 -95.5 41.5t-56 43t-23.5 42.5zM350 301q0 -68 48 -103.5t137 -35.5q48 0 95.5 9t71.5 19l23 9v333q-13 -29 -56.5 -47.5t-96 -29 t-103.5 -25t-85 -46.5t-34 -83z" />
<glyph unicode="&#xe3;" horiz-adv-x="1093" d="M86 297q0 78 30.5 136t80.5 91.5t111.5 56.5t126.5 38t121.5 29.5t101 37.5t61.5 55q0 140 -199 140q-67 0 -124 -12.5t-103.5 -38.5t-73 -72.5t-26.5 -108.5q-78 106 -78 199q0 63 39 110.5t102.5 72.5t130 36.5t135.5 11.5q224 0 342.5 -91t118.5 -259v-749 q-63 32 -158 32q-49 0 -155 -18.5t-166 -18.5q-84 0 -155 16.5t-132 52.5t-96 100.5t-35 152.5zM230 1315.5q-2 41.5 12 78.5t47 63t76 26q54 0 184 -47t192 -47q36 0 58.5 11.5t42.5 41.5q19 -33 22 -74.5t-9 -78.5t-45 -62t-81 -25q-56 0 -185.5 47t-189.5 47 q-39 0 -60.5 -11.5t-41.5 -39.5q-20 29 -22 70.5zM350 301q0 -68 48 -103.5t137 -35.5q48 0 95.5 9t71.5 19l23 9v333q-13 -29 -56.5 -47.5t-96 -29t-103.5 -25t-85 -46.5t-34 -83z" />
<glyph unicode="&#xe4;" horiz-adv-x="1093" d="M86 297q0 78 30.5 136t80.5 91.5t111.5 56.5t126.5 38t121.5 29.5t101 37.5t61.5 55q0 140 -199 140q-67 0 -124 -12.5t-103.5 -38.5t-73 -72.5t-26.5 -108.5q-78 106 -78 199q0 63 39 110.5t102.5 72.5t130 36.5t135.5 11.5q224 0 342.5 -91t118.5 -259v-749 q-63 32 -158 32q-49 0 -155 -18.5t-166 -18.5q-84 0 -155 16.5t-132 52.5t-96 100.5t-35 152.5zM242 1278v172h164q30 0 51 -19t21 -40v-170h-164q-32 0 -52 17t-20 40zM350 301q0 -68 48 -103.5t137 -35.5q48 0 95.5 9t71.5 19l23 9v333q-13 -29 -56.5 -47.5t-96 -29 t-103.5 -25t-85 -46.5t-34 -83zM609 1278v172h163q30 0 51 -19t21 -40v-170h-164q-32 0 -51.5 17t-19.5 40z" />
<glyph unicode="&#xe5;" horiz-adv-x="1093" d="M86 297q0 78 30.5 136t80.5 91.5t111.5 56.5t126.5 38t121.5 29.5t101 37.5t61.5 55q0 140 -199 140q-67 0 -124 -12.5t-103.5 -38.5t-73 -72.5t-26.5 -108.5q-78 106 -78 199q0 63 39 110.5t102.5 72.5t130 36.5t135.5 11.5q224 0 342.5 -91t118.5 -259v-749 q-63 32 -158 32q-49 0 -155 -18.5t-166 -18.5q-84 0 -155 16.5t-132 52.5t-96 100.5t-35 152.5zM334 1323v98q0 62 57 98.5t152 36.5q96 0 152.5 -36t56.5 -99v-98q0 -64 -56 -98.5t-153 -34.5q-96 0 -152.5 35t-56.5 98zM350 301q0 -68 48 -103.5t137 -35.5q48 0 95.5 9 t71.5 19l23 9v333q-13 -29 -56.5 -47.5t-96 -29t-103.5 -25t-85 -46.5t-34 -83zM473 1346q0 -26 13.5 -37t54.5 -11t56 11.5t15 36.5v53q0 24 -15.5 36.5t-55.5 12.5q-41 0 -54.5 -12t-13.5 -37v-53z" />
<glyph unicode="&#xe6;" horiz-adv-x="1699" d="M82 297q0 50 13.5 92t33 72.5t54.5 56.5t65.5 42t79 32t82 24.5t86.5 20.5q90 19 145.5 41.5t73.5 62.5q0 138 -199 138q-91 0 -162 -22.5t-118.5 -78t-47.5 -137.5q-77 115 -77 207q0 63 39.5 110.5t103 72.5t130 36.5t134.5 11.5q215 0 334 -84q116 84 319 84 q214 0 323.5 -91t109.5 -249q0 -55 -13 -102t-44 -91t-78.5 -75t-122 -49.5t-168.5 -18.5q-103 0 -193 37v-73q0 -187 227 -187q152 0 246 58t96 151q64 -91 64 -168q0 -110 -114 -178t-292 -68q-89 0 -161 15t-110.5 36.5t-64.5 43t-34 36.5l-8 15q-3 -6 -10 -16t-35 -35 t-62 -44t-94.5 -35t-130.5 -16q-66 0 -125 10t-114 33.5t-94.5 59.5t-63 92t-23.5 127zM348 295q0 -127 182 -127q50 0 87.5 16t56 37t29.5 50t13.5 47.5t2.5 37.5v154q-20 -22 -66.5 -38.5t-96.5 -28.5t-98 -28t-79 -46t-31 -74zM985 629q95 -19 154 -19q106 0 152 32.5 t46 96.5q0 146 -174 146q-99 0 -138.5 -48.5t-39.5 -148.5v-59z" />
<glyph unicode="&#xe7;" horiz-adv-x="1042" d="M104 336v383q0 168 122 264t341 96q65 0 129 -12t124.5 -37.5t98 -73.5t37.5 -112q0 -88 -79 -203q0 116 -78 177t-185 61q-121 0 -183 -46t-62 -167v-277q0 -110 58 -160.5t181 -50.5q134 0 222.5 59t89.5 150q63 -92 63 -168q0 -101 -97.5 -166t-254.5 -76l-6 -53 l41 -4q88 -9 139 -61t51 -138q0 -91 -71 -145.5t-167 -54.5q-57 0 -98.5 19.5t-60.5 48t-27 51t-8 38.5q15 -8 52 -17t77 -9q46 0 78.5 20.5t32.5 61.5q0 78 -125 78q-28 0 -57.5 -6t-45.5 -12l-16 -5q8 37 20 74l43 119q-179 19 -279 111t-100 243z" />
<glyph unicode="&#xe8;" horiz-adv-x="1083" d="M102 336v383q0 170 117.5 265t335.5 95q214 0 323 -90.5t109 -249.5q0 -55 -13 -102t-44 -91t-78.5 -75t-122 -49.5t-168.5 -18.5q-102 0 -192 37v-73q0 -187 227 -187q152 0 246 58t96 151q63 -89 63 -168q0 -110 -113.5 -178t-291.5 -68q-233 0 -363.5 96t-130.5 265z M321.5 1473.5q9.5 46.5 55 82.5t119.5 46q-26 -42 0 -87.5t104 -123.5l68 -68q25 -27 21.5 -49t-26.5 -39t-50 -28t-49 -17l-21 -6l-121 90q-59 44 -84.5 98.5t-16 101zM369 629q95 -19 153 -19q106 0 152.5 32.5t46.5 96.5q0 146 -174 146q-99 0 -138.5 -48.5t-39.5 -148.5 v-59z" />
<glyph unicode="&#xe9;" horiz-adv-x="1083" d="M102 336v383q0 170 117.5 265t335.5 95q214 0 323 -90.5t109 -249.5q0 -55 -13 -102t-44 -91t-78.5 -75t-122 -49.5t-168.5 -18.5q-102 0 -192 37v-73q0 -187 227 -187q152 0 246 58t96 151q63 -89 63 -168q0 -110 -113.5 -178t-291.5 -68q-233 0 -363.5 96t-130.5 265z M369 629q95 -19 153 -19q106 0 152.5 32.5t46.5 96.5q0 146 -174 146q-99 0 -138.5 -48.5t-39.5 -148.5v-59zM421 1305q6 9 15 18l68 68q78 78 104 123.5t0 87.5q74 -10 119.5 -46t55 -82.5t-16 -101t-84.5 -98.5l-121 -90l-56 17q-118 45 -84 104z" />
<glyph unicode="&#xea;" horiz-adv-x="1083" d="M102 336v383q0 170 117.5 265t335.5 95q214 0 323 -90.5t109 -249.5q0 -55 -13 -102t-44 -91t-78.5 -75t-122 -49.5t-168.5 -18.5q-102 0 -192 37v-73q0 -187 227 -187q152 0 246 58t96 151q63 -89 63 -168q0 -110 -113.5 -178t-291.5 -68q-233 0 -363.5 96t-130.5 265z M249 1317q-6 20 10.5 47t37 49.5t65.5 56.5t85 61.5t106 70.5q66 -43 106.5 -70t85.5 -61t65.5 -56.5t37.5 -49.5t11.5 -47.5t-23 -43t-56 -43t-96.5 -41.5q17 28 10 58t-30 60t-47.5 53.5t-44.5 38.5l-19 15q-2 -2 -6.5 -5t-16.5 -12.5t-23.5 -20t-26.5 -25.5t-26.5 -29.5 t-22 -32t-15 -34t-3 -34t10.5 -32.5q-57 21 -95.5 41.5t-56 43t-23.5 42.5zM369 629q95 -19 153 -19q106 0 152.5 32.5t46.5 96.5q0 146 -174 146q-99 0 -138.5 -48.5t-39.5 -148.5v-59z" />
<glyph unicode="&#xeb;" horiz-adv-x="1083" d="M102 336v383q0 170 117.5 265t335.5 95q214 0 323 -90.5t109 -249.5q0 -55 -13 -102t-44 -91t-78.5 -75t-122 -49.5t-168.5 -18.5q-102 0 -192 37v-73q0 -187 227 -187q152 0 246 58t96 151q63 -89 63 -168q0 -110 -113.5 -178t-291.5 -68q-233 0 -363.5 96t-130.5 265z M252 1278v172h164q30 0 50.5 -19t20.5 -40v-170h-163q-32 0 -52 17t-20 40zM369 629q95 -19 153 -19q106 0 152.5 32.5t46.5 96.5q0 146 -174 146q-99 0 -138.5 -48.5t-39.5 -148.5v-59zM618 1278v172h164q30 0 51 -19t21 -40v-170h-164q-32 0 -52 17t-20 40z" />
<glyph unicode="&#xec;" horiz-adv-x="512" d="M24.5 1473.5q9.5 46.5 55 82.5t119.5 46q-26 -42 0 -87.5t104 -123.5l68 -68q25 -27 21.5 -49t-26.5 -39t-50 -28t-48 -17l-22 -6l-121 90q-59 44 -84.5 98.5t-16 101zM123 119v950q15 0 35 -1t64.5 -8.5t78.5 -20t61 -39.5t27 -64v-950q-11 0 -29 1t-63.5 8t-81 19.5 t-64 40t-28.5 64.5z" />
<glyph unicode="&#xed;" horiz-adv-x="512" d="M123 119v950q15 0 35 -1t64.5 -8.5t78.5 -20t61 -39.5t27 -64v-950q-11 0 -29 1t-63.5 8t-81 19.5t-64 40t-28.5 64.5zM124 1305q6 9 15 18l68 68q78 78 104 123.5t0 87.5q74 -10 119.5 -46t55 -82.5t-16 -101t-84.5 -98.5l-121 -90l-56 17q-118 45 -84 104z" />
<glyph unicode="&#xee;" horiz-adv-x="512" d="M-48 1317q-6 20 10.5 47t37 49.5t65.5 56.5t85 61.5t106 70.5q66 -43 106.5 -70t85.5 -61t65.5 -56.5t37.5 -49.5t11.5 -47.5t-23 -43t-56 -43t-96.5 -41.5q17 28 10 58t-30 60t-47.5 53.5t-43.5 38.5l-20 15q-2 -2 -6.5 -5t-16.5 -12.5t-23.5 -20t-26.5 -25.5 t-26.5 -29.5t-22 -32t-15 -34t-3 -34t10.5 -32.5q-57 21 -95.5 41.5t-56 43t-23.5 42.5zM123 119v950q15 0 35 -1t64.5 -8.5t78.5 -20t61 -39.5t27 -64v-950q-11 0 -29 1t-63.5 8t-81 19.5t-64 40t-28.5 64.5z" />
<glyph unicode="&#xef;" horiz-adv-x="512" d="M-45 1278v172h164q30 0 50.5 -19t20.5 -40v-170h-163q-32 0 -52 17t-20 40zM123 119v950q15 0 35 -1t64.5 -8.5t78.5 -20t61 -39.5t27 -64v-950q-11 0 -29 1t-63.5 8t-81 19.5t-64 40t-28.5 64.5zM322 1278v172h163q30 0 51 -19t21 -40v-170h-164q-32 0 -51.5 17 t-19.5 40z" />
<glyph unicode="&#xf0;" horiz-adv-x="1193" d="M102 336v383q0 167 122 263.5t349 96.5q78 0 146 -17.5t86 -33.5q-33 125 -125 223l-250 -104q-74 134 2 168l109 45q-135 77 -273 74q13 72 60 109.5t110 37.5q179 0 338 -121l248 105q9 -19 13 -27.5t12.5 -29.5t9.5 -34.5t0.5 -30.5t-10.5 -29t-27 -19l-127 -54 q93 -117 145 -270t52 -326v-409q0 -172 -124 -266.5t-370 -94.5q-248 0 -372 94t-124 267zM369 367q0 -50 9.5 -84.5t33.5 -61.5t70 -40t116 -13q69 0 114.5 13t69.5 40t33.5 61.5t9.5 84.5v358q0 74 -63 117t-172 43q-68 0 -112 -12.5t-67.5 -39.5t-32.5 -61t-9 -84v-321z " />
<glyph unicode="&#xf1;" horiz-adv-x="1169" d="M123 119v960q80 -43 184 -43q49 0 148.5 21.5t156.5 21.5q67 0 126.5 -9.5t117.5 -33.5t99 -61t66.5 -97t25.5 -137v-755q-6 0 -15.5 0.5t-37 3.5t-53 7.5t-56 15t-53 24t-37.5 35t-15 47.5v592q0 85 -45.5 127.5t-150.5 42.5q-46 0 -95 -7.5t-75 -14.5l-25 -7v-866 q-11 0 -29 1t-63.5 8t-81 19.5t-64 40t-28.5 64.5zM265 1316q-2 41 11.5 78t46.5 63t76 26q54 0 184.5 -47t192.5 -47q36 0 57.5 11.5t42.5 41.5q19 -33 22 -74.5t-8.5 -78.5t-44.5 -62t-81 -25q-56 0 -185.5 47t-189.5 47q-39 0 -60.5 -11.5t-41.5 -39.5q-20 30 -22 71z " />
<glyph unicode="&#xf2;" horiz-adv-x="1191" d="M102 336v383q0 173 123.5 266.5t370.5 93.5t370.5 -93.5t123.5 -266.5v-383q0 -173 -123.5 -267t-370.5 -94t-370.5 94t-123.5 267zM364.5 1473.5q9.5 46.5 55 82.5t119.5 46q-26 -42 0 -87.5t104 -123.5l68 -68q25 -27 21.5 -49t-26.5 -39t-50 -28t-48 -17l-22 -6 l-121 90q-59 44 -84.5 98.5t-16 101zM369 367q0 -102 47 -149.5t180 -47.5t180 47.5t47 149.5v321q0 102 -47 149.5t-180 47.5t-180 -47.5t-47 -149.5v-321z" />
<glyph unicode="&#xf3;" horiz-adv-x="1191" d="M102 336v383q0 173 123.5 266.5t370.5 93.5t370.5 -93.5t123.5 -266.5v-383q0 -173 -123.5 -267t-370.5 -94t-370.5 94t-123.5 267zM369 367q0 -102 47 -149.5t180 -47.5t180 47.5t47 149.5v321q0 102 -47 149.5t-180 47.5t-180 -47.5t-47 -149.5v-321zM464 1305 q6 9 15 18l68 68q78 78 104 123.5t0 87.5q74 -10 119.5 -46t55 -82.5t-16 -101t-84.5 -98.5l-121 -90l-56 17q-118 45 -84 104z" />
<glyph unicode="&#xf4;" horiz-adv-x="1191" d="M102 336v383q0 173 123.5 266.5t370.5 93.5t370.5 -93.5t123.5 -266.5v-383q0 -173 -123.5 -267t-370.5 -94t-370.5 94t-123.5 267zM292 1317q-6 20 10.5 47t37 49.5t65.5 56.5t85 61.5t106 70.5q66 -43 106.5 -70t85.5 -61t65.5 -56.5t37.5 -49.5t11.5 -47.5t-23 -43 t-56 -43t-96.5 -41.5q17 28 10 58t-30 60t-47.5 53.5t-43.5 38.5l-20 15q-2 -2 -6.5 -5t-16.5 -12.5t-23.5 -20t-26.5 -25.5t-26.5 -29.5t-22 -32t-15 -34t-3 -34t10.5 -32.5q-57 21 -95.5 41.5t-56 43t-23.5 42.5zM369 367q0 -102 47 -149.5t180 -47.5t180 47.5t47 149.5 v321q0 102 -47 149.5t-180 47.5t-180 -47.5t-47 -149.5v-321z" />
<glyph unicode="&#xf5;" horiz-adv-x="1191" d="M102 336v383q0 173 123.5 266.5t370.5 93.5t370.5 -93.5t123.5 -266.5v-383q0 -173 -123.5 -267t-370.5 -94t-370.5 94t-123.5 267zM283 1315.5q-2 41.5 12 78.5t47 63t76 26q54 0 184.5 -47t192.5 -47q36 0 57.5 11.5t42.5 41.5q19 -33 22 -74.5t-9 -78.5t-45 -62 t-81 -25q-56 0 -185 47t-189 47q-39 0 -61 -11.5t-42 -39.5q-20 29 -22 70.5zM369 367q0 -102 47 -149.5t180 -47.5t180 47.5t47 149.5v321q0 102 -47 149.5t-180 47.5t-180 -47.5t-47 -149.5v-321z" />
<glyph unicode="&#xf6;" horiz-adv-x="1191" d="M102 336v383q0 173 123.5 266.5t370.5 93.5t370.5 -93.5t123.5 -266.5v-383q0 -173 -123.5 -267t-370.5 -94t-370.5 94t-123.5 267zM295 1278v172h164q30 0 51 -19t21 -40v-170h-164q-32 0 -52 17t-20 40zM369 367q0 -102 47 -149.5t180 -47.5t180 47.5t47 149.5v321 q0 102 -47 149.5t-180 47.5t-180 -47.5t-47 -149.5v-321zM662 1278v172h163q30 0 51 -19t21 -40v-170h-164q-32 0 -51.5 17t-19.5 40z" />
<glyph unicode="&#xf7;" horiz-adv-x="1067" d="M124.5 461q-1.5 22 0 41.5t8.5 44t19.5 41.5t36.5 29t57 12h690q1 -4 2.5 -11.5t3 -29.5t0.5 -41.5t-8 -44t-19.5 -41.5t-36.5 -29t-57 -12h-692q-1 4 -2 11.5t-2.5 29.5zM420 109v192h168q32 0 56 -19.5t24 -43.5v-193h-166q-34 0 -58 19t-24 45zM420 807v192h168 q32 0 56 -19.5t24 -43.5v-193h-166q-34 0 -58 19t-24 45z" />
<glyph unicode="&#xf8;" horiz-adv-x="1191" d="M51.5 86.5q5.5 26.5 30.5 50.5l49 47q-29 73 -29 152v383q0 173 123.5 266.5t370.5 93.5q240 0 365 -90l108 107q5 -4 12.5 -11t23 -28t23 -42t1.5 -49t-31 -53l-41 -39q33 -65 33 -155v-383q0 -173 -123.5 -267t-370.5 -94q-249 0 -375 99l-108 -105q-5 3 -12.5 9 t-23.5 25t-23.5 38t-2 45.5zM369 414l419 409q-49 62 -192 62q-133 0 -180 -47.5t-47 -149.5v-274zM395 240q48 -70 201 -70q133 0 180 47.5t47 149.5v282z" />
<glyph unicode="&#xf9;" horiz-adv-x="1169" d="M123 313v756q11 0 29 -1t63.5 -9t81 -20.5t64 -39.5t28.5 -63v-592q0 -85 46 -127.5t151 -42.5q46 0 94.5 7t73.5 15l26 7v866q6 0 15.5 -0.5t37 -3t53 -7t56 -14.5t53 -23.5t37.5 -35.5t15 -49v-961q-81 43 -185 43q-49 0 -148.5 -21.5t-156.5 -21.5q-67 0 -126.5 9.5 t-117 33.5t-98.5 61t-66.5 97t-25.5 137zM346.5 1473.5q9.5 46.5 55 82.5t119.5 46q-26 -42 0 -87.5t104 -123.5l68 -68q25 -27 21.5 -49t-26.5 -39t-50 -28t-48 -17l-22 -6l-121 90q-59 44 -84.5 98.5t-16 101z" />
<glyph unicode="&#xfa;" horiz-adv-x="1169" d="M123 313v756q11 0 29 -1t63.5 -9t81 -20.5t64 -39.5t28.5 -63v-592q0 -85 46 -127.5t151 -42.5q46 0 94.5 7t73.5 15l26 7v866q6 0 15.5 -0.5t37 -3t53 -7t56 -14.5t53 -23.5t37.5 -35.5t15 -49v-961q-81 43 -185 43q-49 0 -148.5 -21.5t-156.5 -21.5q-67 0 -126.5 9.5 t-117 33.5t-98.5 61t-66.5 97t-25.5 137zM446 1305q6 9 15 18l67 68q79 79 105 124t0 87q74 -10 119.5 -46t55 -82.5t-16 -101t-84.5 -98.5l-121 -90l-56 17q-118 45 -84 104z" />
<glyph unicode="&#xfb;" horiz-adv-x="1169" d="M123 313v756q11 0 29 -1t63.5 -9t81 -20.5t64 -39.5t28.5 -63v-592q0 -85 46 -127.5t151 -42.5q46 0 94.5 7t73.5 15l26 7v866q6 0 15.5 -0.5t37 -3t53 -7t56 -14.5t53 -23.5t37.5 -35.5t15 -49v-961q-81 43 -185 43q-49 0 -148.5 -21.5t-156.5 -21.5q-67 0 -126.5 9.5 t-117 33.5t-98.5 61t-66.5 97t-25.5 137zM273 1317q-6 20 10.5 47t37 49.5t65.5 56.5t85 61.5t106 70.5q66 -43 106.5 -70t85.5 -61t65.5 -56.5t37.5 -49.5t11.5 -47.5t-23 -43t-56 -43t-96.5 -41.5q17 28 10 58t-30 60t-47.5 53.5t-44.5 38.5l-19 15q-2 -2 -6.5 -5 t-16.5 -12.5t-23.5 -20t-26.5 -25.5t-26.5 -29.5t-22 -32t-15 -34t-3 -34t10.5 -32.5q-57 21 -95.5 41.5t-56 43t-23.5 42.5z" />
<glyph unicode="&#xfc;" horiz-adv-x="1169" d="M123 313v756q11 0 29 -1t63.5 -9t81 -20.5t64 -39.5t28.5 -63v-592q0 -85 46 -127.5t151 -42.5q46 0 94.5 7t73.5 15l26 7v866q6 0 15.5 -0.5t37 -3t53 -7t56 -14.5t53 -23.5t37.5 -35.5t15 -49v-961q-81 43 -185 43q-49 0 -148.5 -21.5t-156.5 -21.5q-67 0 -126.5 9.5 t-117 33.5t-98.5 61t-66.5 97t-25.5 137zM276 1278v172h164q30 0 51 -19t21 -40v-170h-164q-32 0 -52 17t-20 40zM643 1278v172h164q30 0 51 -19t21 -40v-170h-164q-32 0 -52 17t-20 40z" />
<glyph unicode="&#xfd;" horiz-adv-x="1091" d="M63 1069q10 0 27 -0.5t61.5 -9t80 -24t67.5 -50t39 -82.5l41 -276q10 -71 32.5 -133.5t46 -100.5t46.5 -66t37 -39.5t16 -11.5l7 6q8 7 22 21t30.5 34t35 49.5t35 64t30 80.5t20.5 96l37 274q6 46 37.5 80.5t71 50.5t78.5 25.5t65 10.5l27 1l-45 -405q-11 -96 -45.5 -187 t-82.5 -162.5t-97 -125t-99 -91.5l-80 -61q-59 -46 -93.5 -76.5t-70.5 -72t-52.5 -85t-16.5 -92.5q0 -83 43 -178q-56 -29 -109 -29q-79 0 -133.5 58t-54.5 172q0 67 21 124.5t65.5 108.5t86.5 87t111 87q-103 62 -188 207t-104 316zM426 1305q6 9 15 18l67 68 q79 79 105 124t0 87q98 -13 144.5 -68.5t27 -128t-98.5 -131.5l-121 -90l-55 17q-118 45 -84 104z" />
<glyph unicode="&#xfe;" horiz-adv-x="1148" d="M123 -352v1917h1q15 0 34 -0.5t64.5 -8t79 -21.5t60.5 -46.5t27 -77.5v-289q0 -23 -3 -52.5t-6 -47.5l-3 -18q3 3 10 8t30.5 18t51 23t73 18t95.5 8q171 0 290.5 -97t119.5 -257v-395q0 -160 -119.5 -257.5t-290.5 -97.5q-51 0 -96.5 8t-74 20t-50 24t-30.5 20l-9 8 q12 -86 12 -123v-438h-21.5t-38.5 3t-53 8t-53.5 16.5t-50.5 27t-34.5 41.5t-14.5 58zM389 340q0 -73 67 -121.5t154 -48.5q78 0 124 47t46 143v334q0 96 -46.5 143.5t-123.5 47.5q-87 0 -154 -48.5t-67 -121.5v-375z" />
<glyph unicode="&#xff;" horiz-adv-x="1091" d="M63 1069q10 0 27 -0.5t61.5 -9t80 -24t67.5 -50t39 -82.5l41 -276q10 -71 32.5 -133.5t46 -100.5t46.5 -66t37 -39.5t16 -11.5l7 6q8 7 22 21t30.5 34t35 49.5t35 64t30 80.5t20.5 96l37 274q6 46 37.5 80.5t71 50.5t78.5 25.5t65 10.5l27 1l-45 -405q-11 -96 -45.5 -187 t-82.5 -162.5t-97 -125t-99 -91.5l-80 -61q-59 -46 -93.5 -76.5t-70.5 -72t-52.5 -85t-16.5 -92.5q0 -83 43 -178q-56 -29 -109 -29q-79 0 -133.5 58t-54.5 172q0 67 21 124.5t65.5 108.5t86.5 87t111 87q-103 62 -188 207t-104 316zM256 1278v172h164q30 0 51 -19t21 -40 v-170h-164q-32 0 -52 17t-20 40zM623 1278v172h163q30 0 51 -19t21 -40v-170h-164q-32 0 -51.5 17t-19.5 40z" />
<glyph unicode="&#x152;" horiz-adv-x="1761" d="M123 485v494q0 233 153 359t463 126h951q0 -4 -0.5 -11.5t-3.5 -28.5t-8 -40t-16.5 -42t-27.5 -40t-41.5 -28.5t-56.5 -11.5h-475v-379h319q78 0 135 8t75 16l18 8q0 -36 -4 -65.5t-16 -62.5t-32.5 -55.5t-57 -37t-85.5 -14.5h-352v-477h629q0 -10 -1.5 -26t-10 -50 t-23 -60t-46 -46.5t-73.5 -20.5h-526h-2h-269q-310 0 -463 126t-153 359zM397 512q0 -63 8 -107.5t29.5 -85t59.5 -64.5t98.5 -38t144.5 -14h49v1057q-16 2 -49 2q-84 0 -144.5 -14t-98 -38.5t-59.5 -64.5t-30 -85t-8 -108v-440z" />
<glyph unicode="&#x153;" horiz-adv-x="1804" d="M102 336v383q0 173 123.5 266.5t370.5 93.5q274 0 356 -106q77 106 324 106q214 0 323 -90.5t109 -249.5q0 -55 -13 -102t-44 -91t-78.5 -75t-122 -49.5t-168.5 -18.5q-102 0 -192 37v-73q0 -187 227 -187q152 0 246 58t96 151q63 -89 63 -168q0 -110 -113.5 -178 t-291.5 -68q-121 0 -216 27.5t-140 83.5q-87 -111 -365 -111q-247 0 -370.5 94t-123.5 267zM369 367q0 -102 47 -149.5t180 -47.5q127 0 175.5 43t51.5 135v359q-3 91 -51.5 134.5t-175.5 43.5q-133 0 -180 -47.5t-47 -149.5v-321zM1090 629q95 -19 153 -19 q106 0 152.5 32.5t46.5 96.5q0 146 -174 146q-99 0 -138.5 -48.5t-39.5 -148.5v-59z" />
<glyph unicode="&#x178;" horiz-adv-x="1277" d="M4 1458q74 19 125 19q166 0 231 -134l95 -190q5 -11 30 -62t32 -65.5t27.5 -54t32.5 -59t29 -46.5t33 -47q22 29 47.5 73t39.5 71t48 96t43 86l101 198q68 134 231 134q19 0 50.5 -5.5t52.5 -10.5l22 -5q-50 -84 -113.5 -212.5t-109.5 -225t-119.5 -210.5t-155.5 -198 v-630q-11 0 -29.5 1t-66 8t-83.5 19.5t-65.5 40t-29.5 64.5v497q-85 85 -157.5 198.5t-116 210t-105.5 223.5t-119 216zM324 1655v172h164q30 0 51 -19t21 -40v-170h-164q-32 0 -52 17t-20 40zM691 1655v172h163q30 0 51 -19t21 -40v-170h-164q-32 0 -51.5 17t-19.5 40z" />
<glyph unicode="&#x2c6;" horiz-adv-x="1001" d="M222 1317q-6 20 10.5 47t37 49.5t65.5 56.5t85 61.5t106 70.5q66 -43 106.5 -70t85.5 -61t65.5 -56.5t37.5 -49.5t11.5 -47.5t-23 -43t-56 -43t-96.5 -41.5q17 28 10 58t-30 60t-47.5 53.5t-43.5 38.5l-20 15q-2 -2 -6.5 -5t-16.5 -12.5t-23.5 -20t-26.5 -25.5 t-26.5 -29.5t-22 -32t-15 -34t-3 -34t10.5 -32.5q-57 21 -95.5 41.5t-56 43t-23.5 42.5z" />
<glyph unicode="&#x2dc;" horiz-adv-x="796" d="M89 1316q-2 41 11.5 78t46.5 63t76 26q54 0 184.5 -47t192.5 -47q36 0 57.5 11.5t42.5 41.5q19 -33 22 -74.5t-8.5 -78.5t-44.5 -62t-81 -25q-56 0 -185.5 47t-189.5 47q-39 0 -60.5 -11.5t-41.5 -39.5q-20 30 -22 71z" />
<glyph unicode="&#x2000;" horiz-adv-x="989" />
<glyph unicode="&#x2001;" horiz-adv-x="1979" />
<glyph unicode="&#x2002;" horiz-adv-x="989" />
<glyph unicode="&#x2003;" horiz-adv-x="1979" />
<glyph unicode="&#x2004;" horiz-adv-x="659" />
<glyph unicode="&#x2005;" horiz-adv-x="494" />
<glyph unicode="&#x2006;" horiz-adv-x="329" />
<glyph unicode="&#x2007;" horiz-adv-x="329" />
<glyph unicode="&#x2008;" horiz-adv-x="247" />
<glyph unicode="&#x2009;" horiz-adv-x="395" />
<glyph unicode="&#x200a;" horiz-adv-x="109" />
<glyph unicode="&#x2010;" horiz-adv-x="1005" d="M124 503.5q1 18.5 7 41.5t17 39.5t32.5 27.5t50.5 11h643q2 -8 4 -21.5t2 -47.5t-7.5 -59.5t-32.5 -47t-66 -21.5h-645q-1 4 -2 11t-2.5 27.5t-0.5 39z" />
<glyph unicode="&#x2011;" horiz-adv-x="1005" d="M124 503.5q1 18.5 7 41.5t17 39.5t32.5 27.5t50.5 11h643q2 -8 4 -21.5t2 -47.5t-7.5 -59.5t-32.5 -47t-66 -21.5h-645q-1 4 -2 11t-2.5 27.5t-0.5 39z" />
<glyph unicode="&#x2012;" horiz-adv-x="1005" d="M124 503.5q1 18.5 7 41.5t17 39.5t32.5 27.5t50.5 11h643q2 -8 4 -21.5t2 -47.5t-7.5 -59.5t-32.5 -47t-66 -21.5h-645q-1 4 -2 11t-2.5 27.5t-0.5 39z" />
<glyph unicode="&#x2013;" horiz-adv-x="1495" d="M42.5 461q-1.5 22 0 41.5t8.5 44t19.5 41.5t36.5 29t57 12h1282q1 -4 2.5 -11.5t3 -29.5t0.5 -41.5t-8 -44t-19.5 -41.5t-36.5 -29t-57 -12h-1284q-1 4 -2 11.5t-2.5 29.5z" />
<glyph unicode="&#x2014;" horiz-adv-x="1693" d="M42.5 461q-1.5 22 0 41.5t8.5 44t19.5 41.5t36.5 29t57 12h1481q1 -4 2.5 -11.5t3 -29.5t0.5 -41.5t-8 -44t-19.5 -41.5t-36.5 -29t-57 -12h-1483q-1 4 -2 11.5t-2.5 29.5z" />
<glyph unicode="&#x2018;" horiz-adv-x="524" d="M127 1055v112q0 146 41.5 221.5t150.5 75.5q77 0 130 -43q-40 -10 -64.5 -39t-30.5 -67t-6 -66t4 -55l37 -217h-67h-107q-39 0 -63.5 20t-24.5 58z" />
<glyph unicode="&#x2019;" horiz-adv-x="524" d="M76 1020q40 10 64 39t30 67t6 66t-4 55l-37 217h68h106q39 0 63.5 -20t24.5 -58v-112q0 -146 -41.5 -221.5t-150.5 -75.5q-76 0 -129 43z" />
<glyph unicode="&#x201a;" horiz-adv-x="524" d="M76 -188q40 10 64 39t30 67t6 66t-4 55l-37 217h68h106q39 0 63.5 -20t24.5 -58v-112q0 -146 -41.5 -221.5t-150.5 -75.5q-76 0 -129 43z" />
<glyph unicode="&#x201c;" horiz-adv-x="894" d="M127 1055v112q0 146 41.5 221.5t150.5 75.5q77 0 130 -43q-40 -10 -64.5 -39t-30.5 -67t-6 -66t4 -55l37 -217h-67h-107q-39 0 -63.5 20t-24.5 58zM498 1055v112q0 71 8.5 121.5t29 92t59 62.5t95.5 21q76 0 129 -43q-40 -10 -64 -39t-30 -67t-6 -66t4 -55l37 -217h-68 h-106q-39 0 -63.5 20t-24.5 58z" />
<glyph unicode="&#x201d;" horiz-adv-x="894" d="M76 1020q40 10 64 39t30 67t6 66t-4 55l-37 217h68h106q39 0 63.5 -20t24.5 -58v-112q0 -146 -41.5 -221.5t-150.5 -75.5q-76 0 -129 43zM446 1020q40 10 64.5 39t30.5 67t6 66t-4 55l-37 217h67h107q39 0 63.5 -20t24.5 -58v-112q0 -70 -8.5 -121t-29.5 -92.5 t-59.5 -62.5t-95.5 -21q-76 0 -129 43z" />
<glyph unicode="&#x201e;" horiz-adv-x="894" d="M76 -188q40 10 64 39t30 67t6 66t-4 55l-37 217h68h106q39 0 63.5 -20t24.5 -58v-112q0 -146 -41.5 -221.5t-150.5 -75.5q-76 0 -129 43zM446 -188q40 10 64.5 39t30.5 67t6 66t-4 55l-37 217h67h107q39 0 63.5 -20t24.5 -58v-112q0 -70 -8.5 -121t-29.5 -92.5 t-59.5 -62.5t-95.5 -21q-76 0 -129 43z" />
<glyph unicode="&#x2022;" horiz-adv-x="997" d="M102 426v199q0 140 98 215t298 75t298.5 -75t98.5 -215v-199q0 -140 -99 -216.5t-298 -76.5t-297.5 76.5t-98.5 216.5z" />
<glyph unicode="&#x2026;" horiz-adv-x="1505" d="M127 63v193h168q32 0 56 -19.5t24 -43.5v-193h-166q-34 0 -58 18.5t-24 44.5zM629 63v193h168q32 0 56 -19.5t24 -43.5v-193h-166q-34 0 -58 18.5t-24 44.5zM1130 63v193h168q32 0 56 -19.5t24 -43.5v-193h-166q-34 0 -58 18.5t-24 44.5z" />
<glyph unicode="&#x202f;" horiz-adv-x="395" />
<glyph unicode="&#x2039;" horiz-adv-x="874" d="M103.5 522.5q0.5 56.5 60.5 116.5l411 412q29 -18 50 -33t43 -37.5t30.5 -43.5t2.5 -47.5t-31 -51.5l-314 -316l375 -375q-20 -41 -60.5 -71t-87 -35.5t-85.5 31.5l-336 336q-59 58 -58.5 114.5z" />
<glyph unicode="&#x203a;" horiz-adv-x="874" d="M143 147l375 375l-313 316q-31 31 -34.5 62.5t19 59.5t47.5 48.5t62 42.5l412 -412q117 -117 2 -231l-336 -336q-40 -37 -86 -31.5t-87 35.5t-61 71z" />
<glyph unicode="&#x205f;" horiz-adv-x="494" />
<glyph unicode="&#x20ac;" horiz-adv-x="1318" d="M123 479v506q0 136 45.5 235.5t128.5 157t186.5 84.5t231.5 27q51 0 105.5 -7t112.5 -24.5t103 -43.5t74 -67.5t29 -93.5q0 -86 -80 -202q0 59 -35 104.5t-89.5 70.5t-111 37.5t-108.5 12.5q-155 0 -234.5 -68t-83.5 -231h643q0 -8 -1 -20.5t-11.5 -45t-28.5 -57.5 t-58 -45.5t-95 -20.5h-449v-139h521q0 -8 -1 -20.5t-11.5 -45t-29 -57t-58.5 -45t-95 -20.5h-324q21 -275 316 -275q91 0 181 24.5t152.5 71.5t63.5 105q64 -94 64 -168q0 -72 -67 -129t-171.5 -86t-222.5 -29q-95 0 -179.5 16.5t-161 54t-131.5 94.5t-87.5 143.5 t-32.5 195.5z" />
<glyph unicode="&#x2122;" horiz-adv-x="2244" d="M82 1225v239h846v-239q0 -25 -16.5 -45.5t-40.5 -33t-48 -21t-41 -11.5l-16 -4v186h-143v-645q-10 0 -26 0.5t-57 6.5t-72.5 16t-57 31.5t-25.5 50.5v540h-139v-186q-7 1 -18 3.5t-39 12t-50 21t-39.5 32.5t-17.5 46zM1051 756v708h137q4 0 12 -0.5t30 -5.5t41.5 -13 t43 -25.5t39.5 -41.5l219 -323l272 409h72q7 0 19 -0.5t42 -6t52.5 -15.5t41.5 -31.5t19 -50.5v-709q-10 0 -26 0.5t-57 6.5t-72.5 16t-57 31.5t-25.5 50.5v315l-206 -295q-17 1 -44.5 4.5t-85 25.5t-83.5 58l-146 195v-408q-10 0 -26 0.5t-56.5 6.5t-72 16t-57 31.5 t-25.5 50.5z" />
<glyph unicode="&#xe000;" horiz-adv-x="1064" d="M0 0v1065h1065v-1065h-1065z" />
</font>
</defs>
</svg>
