<?xml version="1.0" standalone="no"?>
<!DOCTYPE svg PUBLIC "-//W3C//DTD SVG 1.1//EN" "http://www.w3.org/Graphics/SVG/1.1/DTD/svg11.dtd" >
<svg xmlns="http://www.w3.org/2000/svg">
<metadata></metadata>
<defs>
<font id="amaranthregular" horiz-adv-x="1024" >
<font-face units-per-em="2048" ascent="1638" descent="-410" />
<missing-glyph horiz-adv-x="522" />
<glyph horiz-adv-x="2048" />
<glyph horiz-adv-x="2048" />
<glyph unicode="&#xd;" horiz-adv-x="2048" />
<glyph unicode=" "  horiz-adv-x="522" />
<glyph unicode="&#x09;" horiz-adv-x="522" />
<glyph unicode="&#xa0;" horiz-adv-x="522" />
<glyph unicode="!" horiz-adv-x="653" d="M205 129q0 71 40 115.5t115 44.5q71 0 110.5 -42.5t39.5 -111.5t-40.5 -113.5t-115.5 -44.5q-69 0 -109 44t-40 108zM258 451v935h264l-59 -935h-205z" />
<glyph unicode="&#x22;" horiz-adv-x="751" d="M102 1386h199l-16 -497h-166zM451 1386h198l-16 -497h-166z" />
<glyph unicode="#" horiz-adv-x="1261" d="M82 293l20 162h213l41 319h-227l21 162h227l37 278h164l-37 -278h252l36 278h164l-37 -278h203l-20 -162h-203l-41 -319h217l-20 -162h-218l-36 -293h-164l37 293h-252l-37 -293h-164l37 293h-213zM479 455h252l41 319h-252z" />
<glyph unicode="$" horiz-adv-x="1064" d="M102 141l88 183q53 -31 115 -58q116 -57 195 -57q202 0 202 168q0 33 -10 58t-22.5 40.5t-42.5 32t-51.5 25t-67.5 24.5q-90 34 -153 68.5t-112.5 80t-73.5 103.5t-24 131q0 117 86.5 206t225.5 114v161h170v-157q93 -10 176.5 -40.5t122.5 -54.5l-84 -168q-65 29 -97 41 q-103 43 -182 43q-77 0 -126.5 -28t-49.5 -90q0 -77 54 -123t182 -94q82 -33 136.5 -64.5t98 -73t64 -95.5t20.5 -124q0 -127 -83.5 -229t-231.5 -133v-201h-170v193q-112 10 -207 47t-148 71z" />
<glyph unicode="%" horiz-adv-x="1726" d="M82 840q0 167 80.5 268.5t234.5 101.5q303 0 303 -356q0 -163 -81 -266t-234 -103q-155 0 -229 92.5t-74 262.5zM285 852q0 -50 4.5 -87t16 -69t34.5 -48.5t57 -16.5q57 0 79 55t22 158q0 105 -24 163t-89 58q-57 0 -78.5 -55t-21.5 -158zM487 0l562 1202h194l-561 -1202 h-195zM1026 348q0 167 80.5 269t234.5 102q155 0 229.5 -93t74.5 -264q0 -163 -81 -265.5t-235 -102.5q-303 0 -303 354zM1229 360q0 -50 4.5 -87t16 -69t34.5 -48.5t57 -16.5q57 0 79 55t22 158q0 105 -24 163t-89 58q-57 0 -78.5 -55t-21.5 -158z" />
<glyph unicode="&#x26;" horiz-adv-x="1177" d="M72 346q0 236 223 397q-47 96 -47 185q0 122 87 206.5t263 84.5q193 0 309 -148l-119 -131l-53 43q-62 43 -119 43q-62 0 -93 -28.5t-31 -79.5q0 -93 88.5 -205t265.5 -269q47 78 82 162l174 -71q-65 -142 -113 -216l199 -172l-119 -157q-75 60 -207 170 q-179 -172 -418 -172q-96 0 -179.5 40.5t-138 124t-54.5 193.5zM315 377q0 -87 52 -137t145 -50q100 0 203 93q-223 189 -318 309q-82 -86 -82 -215z" />
<glyph unicode="'" horiz-adv-x="403" d="M102 1386h199l-16 -497h-166z" />
<glyph unicode="(" horiz-adv-x="784" d="M143 551q0 151 31 290t77.5 238.5t107.5 185t113 136.5t103 86l127 -141q-40 -33 -80.5 -78t-86 -118.5t-79.5 -158t-56.5 -200.5t-22.5 -242t22.5 -243t56.5 -201.5t79.5 -158t86 -118.5t80.5 -78l-127 -141q-51 35 -103 85.5t-113.5 136.5t-107.5 186t-77 240.5 t-31 293.5z" />
<glyph unicode=")" horiz-adv-x="784" d="M143 -250q41 33 81 78t85.5 118.5t80 158t57 201.5t22.5 243t-22.5 242t-57 200.5t-80 158t-85.5 118.5t-81 78l127 141q51 -35 103 -86t113 -136.5t107.5 -185t77.5 -238.5t31 -290q0 -153 -31 -293.5t-77 -240.5t-107.5 -186t-113.5 -136.5t-103 -85.5z" />
<glyph unicode="*" horiz-adv-x="923" d="M102 1059l62 188l211 -88l-19 227h199l-20 -233l225 94l61 -188l-231 -55l155 -179l-161 -116l-125 202l-125 -204l-162 116l158 183z" />
<glyph unicode="+" horiz-adv-x="1048" d="M123 526v183h303v311h195v-311h305v-183h-305v-323h-195v323h-303z" />
<glyph unicode="," horiz-adv-x="575" d="M82 -182q62 47 95 97.5t37 99.5t-1.5 86.5t-19 84t-15.5 66.5q8 8 31 18q55 19 104 19q69 0 104.5 -42t35.5 -112q0 -154 -79.5 -264t-203.5 -174z" />
<glyph unicode="-" horiz-adv-x="784" d="M102 567v172h580v-172h-580z" />
<glyph unicode="." horiz-adv-x="550" d="M123 129q0 71 40.5 115.5t115.5 44.5q70 0 109.5 -42.5t39.5 -111.5t-40.5 -113.5t-115.5 -44.5q-69 0 -109 44t-40 108z" />
<glyph unicode="/" horiz-adv-x="856" d="M-20 -258l651 1751h246l-652 -1751h-245z" />
<glyph unicode="0" horiz-adv-x="1155" d="M92 637q0 320 122.5 499t377.5 179q247 0 359 -163t112 -482q0 -156 -28.5 -279t-87.5 -214.5t-155.5 -140t-226.5 -48.5q-247 0 -360 164t-113 485zM348 659q0 -88 5.5 -155.5t21 -133t41.5 -108t70 -68.5t104 -26q63 0 106 33t66.5 99t33 148.5t9.5 196.5q0 89 -5 156 t-20.5 133t-41.5 108t-69.5 67.5t-103.5 25.5q-62 0 -105 -33t-67.5 -97.5t-34.5 -148t-10 -197.5z" />
<glyph unicode="1" horiz-adv-x="790" d="M0 1032q7 3 38.5 17.5t41 19l38 18t40.5 21t38.5 22.5t41.5 26t40 29t44 35t42 39t46 46h176v-1305h-236v1030q-137 -130 -258 -168z" />
<glyph unicode="2" horiz-adv-x="1007" d="M72 0v188q23 26 140 149.5t140 149.5q170 196 225.5 286.5t55.5 189.5q0 78 -43.5 125t-112.5 47q-26 0 -52.5 -4t-46.5 -9t-52 -16.5t-48.5 -18.5t-57.5 -25t-60 -26l-80 164q261 115 446 115q77 0 140 -18t115 -57t81 -110t29 -169q0 -65 -21.5 -129t-70.5 -138 t-100.5 -138t-139.5 -163l-186 -205h553v-188h-854z" />
<glyph unicode="3" d="M72 94l69 172q11 -5 40 -17.5t39 -17t34.5 -15t35.5 -14.5t31.5 -11t33.5 -10t30.5 -6.5t32.5 -5t31 -1.5q100 0 170.5 60.5t70.5 172.5q0 90 -54 149.5t-128 59.5q-41 0 -88 -6t-78 -12t-33 -6l-65 162l6 -3q-1 0 -3 1.5t-3 1.5q180 58 228 79q124 56 147 135q6 20 6 44 q0 63 -39.5 96t-112.5 33q-25 0 -50 -3t-42.5 -6.5t-47 -13.5t-44 -15.5t-54 -21t-57.5 -22.5l-80 161q121 53 208 77t200 24q176 0 271 -77t95 -208q0 -181 -208 -278q125 -37 196.5 -133.5t71.5 -212.5q0 -65 -14.5 -123t-49.5 -113t-88 -94.5t-136 -63.5t-187 -24 q-153 0 -385 106z" />
<glyph unicode="4" horiz-adv-x="1075" d="M41 358v134l371 813h243l-358 -766h315v413l236 41v-454h196l-32 -181h-164v-358h-236v358h-571z" />
<glyph unicode="5" horiz-adv-x="1042" d="M92 94l70 172q10 -4 44 -19.5t44 -19.5t38 -15.5t39.5 -15.5t34.5 -11t38 -9.5t34 -5t37 -2.5q115 0 166 62.5t51 193.5q0 104 -54.5 161.5t-148.5 57.5q-55 0 -105 -8.5t-76.5 -18t-49.5 -20.5l-23 -10l-98 73l70 646h674l-33 -189h-434l-43 -325q59 36 204 36 q168 0 270.5 -116.5t102.5 -288.5q0 -70 -15 -133.5t-50.5 -121t-88 -98.5t-133 -63.5t-180.5 -17.5q-174 10 -385 106z" />
<glyph unicode="6" horiz-adv-x="1075" d="M92 651q0 108 19 203.5t62 180t106 145t157.5 96t210.5 35.5q132 0 262 -56l-63 -163q-99 36 -207 36q-67 0 -118.5 -22t-83.5 -58t-53 -90.5t-29.5 -112t-10.5 -128.5q115 129 274 129q181 0 283.5 -112t102.5 -314q0 -191 -120 -311.5t-335 -120.5q-457 0 -457 663z M344 573q8 -215 59 -312t164 -97q100 0 148.5 68t48.5 186q0 114 -46.5 182t-146.5 68q-70 0 -136 -35t-91 -60z" />
<glyph unicode="7" horiz-adv-x="937" d="M10 1305h856v-150l-411 -1155h-256l397 1116h-553z" />
<glyph unicode="8" horiz-adv-x="1075" d="M102 326q0 60 20.5 112.5t59 95t78.5 74t94 64.5q-217 127 -217 327q0 131 119.5 223.5t290.5 92.5q160 0 271.5 -88.5t111.5 -218.5q0 -180 -211 -322q108 -59 181 -151.5t73 -196.5q0 -157 -124 -253.5t-312 -96.5q-90 0 -168 21t-138 61.5t-94.5 106.5t-34.5 149z M348 334q0 -78 54 -130t149 -52q76 0 123 52t47 126q0 68 -53 135t-127 121q-90 -51 -141.5 -111t-51.5 -141zM381 1010q0 -143 158 -232q70 41 107.5 92t37.5 136q0 64 -39.5 104.5t-107.5 40.5q-71 0 -113.5 -37t-42.5 -104z" />
<glyph unicode="9" horiz-adv-x="1073" d="M72 879q0 191 119.5 311.5t334.5 120.5q457 0 457 -664q0 -108 -19 -203.5t-62 -179.5t-106 -145t-157.5 -96t-210.5 -35q-134 0 -262 55l63 164q101 -37 207 -37q68 0 119 22t83 58t52 90t28.5 111t10.5 129q-40 -51 -109.5 -89t-162.5 -38q-181 0 -283 112t-102 314z M311 881q0 -113 46.5 -181.5t146.5 -68.5q68 0 134.5 34t90.5 58q-6 215 -57 313.5t-164 98.5q-100 0 -148.5 -68t-48.5 -186z" />
<glyph unicode=":" horiz-adv-x="591" d="M184 129q0 71 40.5 115.5t115.5 44.5q70 0 109.5 -42.5t39.5 -111.5t-40 -113.5t-115 -44.5q-69 0 -109.5 44t-40.5 108zM184 885q0 71 40.5 115t115.5 44q71 0 110 -42t39 -111t-40 -113.5t-115 -44.5q-69 0 -109.5 44t-40.5 108z" />
<glyph unicode=";" horiz-adv-x="593" d="M121 -182q62 47 95 97.5t37 99.5t-1.5 86.5t-19 84t-15.5 66.5q8 8 31 18q55 19 104 19q69 0 104.5 -42t35.5 -112q0 -154 -79.5 -264t-203.5 -174zM182 885q0 71 40.5 115t115.5 44q71 0 110 -42t39 -111t-40 -113.5t-115 -44.5q-69 0 -109.5 44t-40.5 108z" />
<glyph unicode="&#x3c;" horiz-adv-x="931" d="M61 528v172l695 338l82 -192l-394 -178q-24 -13 -127 -54l129 -53l404 -186l-82 -191z" />
<glyph unicode="=" horiz-adv-x="1030" d="M143 352v183h744v-183h-744zM143 711v182h744v-182h-744z" />
<glyph unicode="&#x3e;" horiz-adv-x="931" d="M82 375l403 186q84 37 129 53q-79 28 -127 54l-393 178l82 192l694 -338v-172l-706 -344z" />
<glyph unicode="?" horiz-adv-x="888" d="M82 1305q74 33 118 50.5t114 34.5t135 17q389 0 389 -307q0 -46 -14 -94t-29 -81.5t-51 -84.5t-53 -73t-62 -77q-67 -84 -109 -151t-63 -136l-174 48q0 80 30 158t72.5 138.5t85 115.5t72.5 109.5t30 98.5q0 73 -42.5 114.5t-112.5 41.5q-22 0 -42.5 -3t-35.5 -6.5 t-39.5 -13.5t-37.5 -16t-48 -22t-53 -25zM227 129q0 71 40.5 115.5t115.5 44.5q70 0 109.5 -42.5t39.5 -111.5t-40 -113.5t-115 -44.5q-69 0 -109.5 44t-40.5 108z" />
<glyph unicode="@" horiz-adv-x="1835" d="M113 408q0 162 51 302t137.5 240.5t201 172t243.5 106.5t262 35q120 0 229 -28.5t203 -89.5t161.5 -148.5t102.5 -213t27 -274.5q-12 -230 -118.5 -376t-240.5 -146q-203 0 -262 235q-30 -119 -100 -177t-191 -58q-169 0 -254.5 121.5t-85.5 336.5q0 212 123.5 350 t319.5 138q96 0 235 -27q76 -14 127 -26v-437q0 -66 3.5 -112.5t14 -90.5t32.5 -66.5t55 -22.5q43 0 80.5 51t59.5 130t27 167q8 150 -34 267t-122.5 189t-186 109t-228.5 37q-104 0 -204.5 -27.5t-189.5 -84.5t-156 -137t-106.5 -193t-39.5 -244q0 -94 14.5 -175t53 -159 t99.5 -132.5t159.5 -88t226.5 -33.5q122 0 237 39q37 9 115 39l57 -144q-63 -29 -127 -49q-143 -47 -282 -47q-116 0 -217.5 21.5t-197 75t-164 136t-109.5 213t-41 296.5zM713 465q0 -56 3 -99.5t12 -87t24 -72t41 -46t61 -17.5q85 0 145.5 103t65.5 239v275 q-77 20 -121 20q-117 0 -174 -85t-57 -230z" />
<glyph unicode="A" horiz-adv-x="1241" d="M-10 0l532 1386h197l532 -1386h-262l-127 362h-497l-129 -362h-246zM430 545h369q-113 322 -183 567q-129 -407 -186 -567z" />
<glyph unicode="B" horiz-adv-x="1157" d="M143 0v1386h41q76 0 146 3q43 0 122 1t103 1q236 0 361.5 -94t125.5 -267q0 -98 -55.5 -178.5t-155.5 -130.5q123 -47 188.5 -133t65.5 -199q0 -182 -137 -286.5t-401 -104.5h-234q-84 0 -123 2h-47zM389 176h174q133 0 195.5 58.5t62.5 158.5q0 46 -14 85t-44.5 72.5 t-87 53t-134.5 19.5q-113 0 -152 -2v-445zM389 797h156q122 0 179.5 55.5t57.5 148.5q0 42 -13 78t-41 67.5t-80 49.5t-124 18q-102 0 -135 -2v-415z" />
<glyph unicode="C" horiz-adv-x="1073" d="M96 676q0 164 37 296.5t110.5 229.5t189.5 150t267 53q203 0 332 -148l-127 -151q-51 56 -105 82t-124 26q-84 0 -146 -39.5t-98 -111t-53 -162.5t-17 -203q0 -114 16 -203.5t52.5 -163t103.5 -113.5t162 -40q35 0 71.5 4.5t68 12.5t54 14.5t43 14t21.5 7.5l58 -174 q-34 -15 -103 -34q-128 -35 -260 -35q-276 0 -414.5 174t-138.5 514z" />
<glyph unicode="D" horiz-adv-x="1316" d="M143 0v1386h41q68 0 133 3q38 0 118 1t112 1q346 0 514 -173t168 -516q0 -706 -709 -706q-164 0 -227 2q-70 0 -103 2h-47zM389 182q31 -2 160 -2q213 0 313.5 124.5t100.5 375.5q0 526 -445 526q-36 0 -78 -1t-51 -1v-1022z" />
<glyph unicode="E" horiz-adv-x="1050" d="M143 0v1386h826v-186h-580v-385h477l-30 -186h-447v-443h610v-186h-856z" />
<glyph unicode="F" horiz-adv-x="999" d="M143 0v1386h826v-186h-580v-397h477l-30 -187h-447v-616h-246z" />
<glyph unicode="G" horiz-adv-x="1239" d="M88 674q0 162 37 294.5t110 230.5t190 152t269 54q127 0 222.5 -42t156.5 -106l-121 -155q-53 53 -129 82.5t-155 29.5q-85 0 -147 -40t-98 -113t-52.5 -164t-16.5 -203q0 -160 26.5 -272.5t87.5 -179t155 -66.5q103 0 187.5 87t84.5 224v187h242v-619q0 -69 -12.5 -129 t-29.5 -103t-49.5 -83.5t-58.5 -65t-70.5 -52.5t-70.5 -42t-74 -37l-96 164q44 21 80 44.5t59.5 45t41 48t27 46t16.5 46.5t9 42t5 39q1 9 1 13q7 68 7 102q0 23 -2 29q-47 -86 -136.5 -132t-208.5 -46q-127 0 -221 49t-152 140.5t-86 216.5t-28 284z" />
<glyph unicode="H" horiz-adv-x="1347" d="M143 0v1386h246v-575h569v575h246v-1386h-246v629h-569v-629h-246z" />
<glyph unicode="I" horiz-adv-x="532" d="M143 0v1386h246v-1386h-246z" />
<glyph unicode="J" horiz-adv-x="532" d="M-72 -293q53 27 92 55.5t61.5 59t36 54t18.5 57t6 48.5t1 48v1357h246v-1333q0 -53 -7.5 -101t-18.5 -86t-31.5 -73t-38.5 -60.5t-47.5 -51.5t-51 -42.5t-56 -36.5t-56 -31t-57.5 -28z" />
<glyph unicode="K" horiz-adv-x="1214" d="M143 0v1386h246v-1386h-246zM416 750v14q181 66 285 219.5t163 402.5h244q-32 -150 -71.5 -259.5t-90 -185t-100.5 -124t-121 -96.5l504 -721h-287z" />
<glyph unicode="L" horiz-adv-x="907" d="M143 0v1386h246v-1200h518v-186h-764z" />
<glyph unicode="M" horiz-adv-x="1665" d="M123 0l82 1391h192l351 -867l86 -213q56 148 86 213l348 860v7h192l82 -1391h-231l-21 522q-6 70 -10 346q-73 -202 -129 -340l-227 -528h-174l-230 522q-51 111 -137 352q0 -82 -4 -206t-4 -140l-21 -528h-231z" />
<glyph unicode="N" horiz-adv-x="1351" d="M143 0v1391h193l479 -717q56 -82 166 -254q-12 176 -12 248l-6 718h245v-1388h-204l-465 725q-15 23 -77.5 123t-94.5 149q16 -176 16 -276l6 -719h-246z" />
<glyph unicode="O" horiz-adv-x="1370" d="M92 676q0 163 36.5 295t109 229.5t190 151t270.5 53.5q298 0 439 -182t141 -518q0 -162 -36.5 -292t-109.5 -226t-189.5 -147.5t-270.5 -51.5q-580 0 -580 688zM358 698q0 -90 8.5 -162t31.5 -141t60.5 -115t99 -74t142.5 -28q312 0 312 506q0 89 -8.5 162t-31.5 143.5 t-60.5 118t-99 77t-142.5 29.5q-312 0 -312 -516z" />
<glyph unicode="P" horiz-adv-x="1095" d="M143 0v1386h41q76 0 146 3q43 0 122 1t103 1q245 0 367 -109t122 -309q0 -196 -133.5 -313t-380.5 -117h-141v-543h-246zM389 725h156q121 0 179 65t58 175q0 50 -13 92t-41 78.5t-80 57.5t-124 21q-102 0 -135 -2v-487z" />
<glyph unicode="Q" horiz-adv-x="1378" d="M88 686q0 157 38.5 287t113.5 227t193.5 151t271.5 54q151 0 263 -48.5t181 -141.5t102 -220.5t33 -292.5q0 -184 -46 -340.5t-125.5 -265t-182.5 -177t-219 -89.5q74 -51 157 -60q23 -3 46 -3q63 0 130 19q91 25 218 85l84 -174q-77 -53 -156.5 -86t-178.5 -45 q-36 -4 -72 -4q-62 0 -125 13q-97 21 -208.5 88.5t-218.5 180.5l45 138q48 -10 94 -10q67 0 130 21q106 36 186.5 123.5t128 233.5t47.5 330q0 89 -8.5 162t-32 144.5t-60.5 120t-98.5 78t-142.5 29.5q-69 0 -125 -27t-93.5 -73.5t-63 -112t-37 -139t-11.5 -157.5 q0 -198 49 -301.5t176 -131.5l-26 -176q-97 7 -175.5 44.5t-130 95t-86.5 133t-50 154.5t-15 163z" />
<glyph unicode="R" horiz-adv-x="1177" d="M143 0v1386h41q76 0 146 3q43 0 122 1t103 1q489 0 489 -379q0 -267 -253 -344q38 -21 72.5 -57t59.5 -72t59 -104.5t55 -117t65 -151t72 -166.5h-269q-131 303 -180 393q-77 139 -158 181q-51 26 -118 26h-60v-600h-246zM389 778h156q113 0 175 52t62 151q0 103 -60 168 t-198 65h-135v-436z" />
<glyph unicode="S" horiz-adv-x="1040" d="M61 121l86 190q73 -42 127 -65q144 -66 215 -66q106 0 159.5 52.5t53.5 148.5q0 45 -13.5 78.5t-42.5 59t-62.5 43t-85.5 38.5q-67 28 -114.5 51.5t-95 53.5t-78.5 62t-56 72t-36.5 89t-11.5 108q0 153 124.5 261t312.5 108q125 0 237 -37.5t166 -71.5l-100 -178 q-67 35 -98 47q-116 47 -191 47q-78 0 -130 -36t-52 -105q0 -90 57.5 -148.5t188.5 -109.5q89 -36 148 -70t107 -81t70.5 -109.5t22.5 -144.5q0 -80 -31 -154.5t-88 -134t-146.5 -95.5t-197.5 -36q-218 0 -445 133z" />
<glyph unicode="T" horiz-adv-x="1009" d="M20 1200v186h969l-31 -186h-344v-1200h-245v1200h-349z" />
<glyph unicode="U" horiz-adv-x="1302" d="M123 512v874h244v-856q0 -352 297 -352q134 0 202 91.5t68 260.5v856h246v-874q0 -112 -28.5 -203t-90 -165t-169.5 -115t-255 -41q-140 0 -242.5 41t-160.5 115t-84.5 165t-26.5 203z" />
<glyph unicode="V" horiz-adv-x="1189" d="M-20 1386h264l172 -497q55 -159 182 -559q73 245 182 555l178 501h252l-518 -1386h-194z" />
<glyph unicode="W" horiz-adv-x="1781" d="M20 1386h246l180 -688q46 -168 68 -295q27 114 82 291l215 692h184l215 -692q53 -167 84 -305q17 138 64 305l178 692h250l-385 -1386h-182l-273 836q-10 25 -49 168q-5 -17 -20 -74.5t-25 -93.5l-264 -836h-182z" />
<glyph unicode="X" horiz-adv-x="1196" d="M0 0l430 727l-389 659h278l195 -350q26 -44 84 -162q52 106 84 160l197 352h278l-391 -661l430 -725h-283l-229 410q-29 49 -86 165q-63 -126 -86 -165l-229 -410h-283z" />
<glyph unicode="Y" horiz-adv-x="1114" d="M0 1386h266l291 -624l295 624h262l-438 -866v-520h-246v530z" />
<glyph unicode="Z" horiz-adv-x="1083" d="M82 0v147l600 1053q-55 -6 -176 -6h-389l-33 192h903v-147l-590 -1051q117 5 152 5h463v-193h-930z" />
<glyph unicode="[" horiz-adv-x="757" d="M164 -381v1856h471v-183h-246v-1491h246v-182h-471z" />
<glyph unicode="\" horiz-adv-x="856" d="M-20 1493h245l652 -1751h-246z" />
<glyph unicode="]" horiz-adv-x="757" d="M123 -199h246v1491h-246v183h471v-1856h-471v182z" />
<glyph unicode="^" horiz-adv-x="1110" d="M102 645l367 741h172l367 -741l-222 -27l-178 394q-21 37 -53 127l-53 -129l-187 -404z" />
<glyph unicode="_" d="M0 -162h1024v-172h-1024v172z" />
<glyph unicode="`" d="M258 1452l158 147l348 -389l-100 -106q-91 60 -142 98q-166 128 -264 250z" />
<glyph unicode="a" horiz-adv-x="1097" d="M72 496q0 235 137 387.5t352 152.5q87 0 258 -30q4 -1 137 -29v-483q0 -204 50 -340q19 -56 51 -97l-187 -73q-32 36 -47 63q-49 81 -57 186q-36 -125 -112 -185t-205 -60q-187 0 -282 135.5t-95 372.5zM326 516q0 -65 2.5 -111t12 -97t26 -82t47 -51.5t73.5 -20.5 q64 0 119 58.5t85 150.5t30 192v293q-99 22 -133 22q-74 0 -126 -26t-81.5 -75t-42 -110.5t-12.5 -142.5z" />
<glyph unicode="b" horiz-adv-x="1089" d="M133 47v1397l236 41v-623q75 174 272 174q187 0 282 -135.5t95 -372.5q0 -154 -61.5 -277t-174 -193t-254.5 -70q-100 0 -260 28q-56 10 -135 31zM369 174q83 -20 133 -20q74 0 126 26t81.5 75t42 110.5t12.5 142.5q0 65 -2.5 111t-12 96.5t-26.5 82t-47.5 52t-73.5 20.5 q-64 0 -118.5 -58.5t-84.5 -150.5t-30 -192v-295z" />
<glyph unicode="c" horiz-adv-x="839" d="M72 485q0 262 132 410.5t337 148.5q178 0 278 -139l-133 -127q-25 29 -41.5 44t-44 27.5t-59.5 12.5q-30 0 -55 -5t-56.5 -26t-52.5 -56t-36 -101.5t-15 -157.5q0 -77 9.5 -137t27.5 -98t39 -64t48.5 -38.5t50.5 -17.5t50 -5q45 0 127 20q38 9 72 21l57 -150 q-39 -20 -80 -31q-96 -30 -209 -30q-228 0 -337 131.5t-109 367.5z" />
<glyph unicode="d" horiz-adv-x="1097" d="M72 496q0 235 137 387.5t352 152.5q64 0 160 -14v463l235 -41v-950q0 -204 50 -340q19 -52 51 -97l-187 -73q-32 36 -47 63q-49 81 -57 186q-36 -125 -112 -185t-205 -60q-187 0 -282 135.5t-95 372.5zM326 516q0 -54 2 -93t7 -83.5t16.5 -75t28.5 -56.5t44 -39t63 -13 q97 0 165.5 121.5t68.5 277.5v293q-99 22 -133 22q-74 0 -126 -26t-81.5 -75t-42 -110.5t-12.5 -142.5z" />
<glyph unicode="e" horiz-adv-x="968" d="M72 485q0 266 137.5 412.5t355.5 146.5q174 0 258 -79.5t84 -210.5q0 -153 -160.5 -259t-424.5 -110q14 -107 64 -168t161 -61q82 0 190 34q42 12 101 37l61 -147q-45 -23 -115 -47q-135 -47 -270 -47q-117 0 -202.5 35t-137.5 102t-77 156.5t-25 205.5zM315 535 q92 2 163.5 23t112 53.5t61 69t20.5 73.5q0 59 -34.5 94t-90.5 35q-219 0 -232 -348z" />
<glyph unicode="f" horiz-adv-x="722" d="M0 -299q58 30 100 66.5t63 68.5t33 71t14.5 64t2.5 58v823h-184v168h178q-4 16 -4 22q-11 55 -11 104q0 46 10 86q20 82 73 137t125.5 82.5t156.5 27.5q133 0 217 -88l-102 -134q-9 9 -41 24t-58 15q-19 0 -37 -3.5t-41 -12.5t-39 -29t-28 -49q-10 -25 -10 -64v-10 q2 -47 18 -106v-2h254l-28 -168h-213v-801q0 -68 -11.5 -127t-29 -102t-48 -82.5t-56 -64.5t-67.5 -52.5t-69 -42t-72 -37.5z" />
<glyph unicode="g" horiz-adv-x="1087" d="M72 496q0 235 137 387.5t352 152.5q89 0 195.5 -18.5t173.5 -36.5l33 -4l-11 -561v-14q0 -80 30 -203q34 -134 34 -213q0 -223 -125 -334q-108 -97 -280 -97q-28 0 -58 3q-127 9 -225 47q-46 13 -99 37l58 180q7 -3 32 -12.5t31 -11.5t27 -10t27.5 -10t24 -8t26 -8 t23.5 -5.5t25 -5.5t23.5 -4t26.5 -3q17 -2 33 -2q64 0 110 26q58 32 81 93q21 55 21 125v16q-3 80 -32 170q-3 4 -5 14t-5 15q-72 -213 -307 -213q-187 0 -282 135.5t-95 372.5zM326 516q0 -65 2.5 -111t12 -97t26 -82t47 -51.5t73.5 -20.5q94 0 161.5 117t72.5 268v309 q-99 22 -133 22q-74 0 -126 -26t-81.5 -75t-42 -110.5t-12.5 -142.5z" />
<glyph unicode="h" horiz-adv-x="1105" d="M133 0v1444l236 41v-594q112 145 315 145q138 0 213 -75q86 -86 86 -277v-684h-235v668q0 184 -134 184q-91 0 -164.5 -85.5t-80.5 -219.5v-547h-236z" />
<glyph unicode="i" horiz-adv-x="526" d="M102 1329q0 66 37 107t107 41q64 0 100.5 -39.5t36.5 -102.5q0 -64 -37 -104.5t-106 -40.5q-64 0 -101 40t-37 99zM125 223v797h235v-774q0 -46 13.5 -63t44.5 -17q25 0 35 2q12 0 18 2l25 -150q-11 -7 -37 -14q-44 -14 -111 -14q-106 0 -164.5 63t-58.5 168z" />
<glyph unicode="j" horiz-adv-x="501" d="M-80 -299q58 30 100 66.5t63 68.5t33 71t14.5 64t2.5 58v991h236v-969q0 -68 -11.5 -127t-29 -102t-48 -82.5t-56 -64.5t-67.5 -52.5t-69 -42t-72 -37.5zM111 1329q0 66 37 107t106 41q64 0 100.5 -39.5t36.5 -102.5q0 -64 -37 -104.5t-106 -40.5q-64 0 -100.5 40 t-36.5 99z" />
<glyph unicode="k" horiz-adv-x="1067" d="M133 0v1444l236 41v-582q106 135 313 135q131 0 216 -73t85 -197q0 -154 -123 -246q-53 -41 -121 -65l287 -457h-268l-293 510l-2 20q20 5 46 13t70.5 27.5t78.5 42.5t59.5 59.5t25.5 77.5q0 58 -34 89t-91 31q-30 0 -56.5 -5.5t-47.5 -14.5t-39 -22.5t-31.5 -27t-25 -30 t-18.5 -30.5t-13.5 -29t-9 -24.5t-5.5 -19t-3 -10.5v-657h-236z" />
<glyph unicode="l" horiz-adv-x="598" d="M123 223v1221l235 43v-1241q0 -46 17.5 -65t54.5 -19q45 0 76 8l33 8l28 -149l-59 -19q-70 -18 -158 -18q-113 0 -170 62t-57 169z" />
<glyph unicode="m" horiz-adv-x="1656" d="M51 952l187 74q19 -19 41 -55q40 -69 59 -164q33 78 88.5 130.5t119 75.5t134.5 23q99 0 158 -48.5t90 -139.5q53 96 138 142t187 46q132 0 201 -75q80 -83 80 -277v-684h-236v668q0 91 -26.5 137.5t-89.5 46.5q-80 0 -148.5 -84t-72.5 -217v-551h-236v668 q0 91 -27 137.5t-90 46.5q-88 0 -158 -100q-64 -91 -64 -225q0 -13 1 -27v-500h-235v516q0 199 -52 340q-20 56 -49 96z" />
<glyph unicode="n" horiz-adv-x="1124" d="M51 952l187 74q19 -19 41 -55q40 -69 59 -164q35 78 94 130.5t126.5 75.5t143.5 23q138 0 213 -75q86 -86 86 -277v-684h-235v662q0 188 -133 188q-97 0 -175 -98q-71 -90 -72 -227q0 -12 1 -25v-500h-235v516q0 199 -52 340q-20 56 -49 96z" />
<glyph unicode="o" horiz-adv-x="1058" d="M72 500q0 158 50.5 278.5t157.5 193t259 72.5q229 0 338.5 -135t109.5 -387q0 -116 -29.5 -213.5t-86 -171.5t-147 -115.5t-204.5 -41.5q-228 0 -338 135.5t-110 384.5zM326 520q0 -82 9.5 -144t32.5 -114.5t66.5 -80t106.5 -27.5q57 0 95.5 25.5t59 75.5t29 109t8.5 138 q0 83 -9.5 145t-32.5 115t-66.5 80.5t-106.5 27.5q-57 0 -95.5 -26t-59 -76t-29 -109.5t-8.5 -138.5z" />
<glyph unicode="p" horiz-adv-x="1107" d="M51 952l187 74q25 -25 45 -61q45 -79 57 -179q36 126 112 188t207 62q187 0 282 -135.5t95 -372.5q0 -235 -137 -387.5t-352 -152.5q-50 0 -160 12v-412l-235 -41v969q0 199 -52 340q-20 56 -49 96zM387 174q83 -20 133 -20q74 0 126 26t81.5 75t42 110.5t12.5 142.5 q0 54 -2 93t-7 83.5t-16.5 75t-28.5 56.5t-44 39t-63 13q-95 0 -162 -116t-72 -269v-309z" />
<glyph unicode="q" horiz-adv-x="1089" d="M72 496q0 235 137 387.5t352 152.5q87 0 258 -30q4 -1 137 -29v-1432l-235 43v537q-82 -137 -272 -137q-187 0 -282 135.5t-95 372.5zM326 516q0 -54 2 -93t7 -83.5t16.5 -75t28.5 -56.5t44 -39t63 -13q97 0 165.5 121.5t68.5 277.5v293q-99 22 -133 22q-74 0 -126 -26 t-81.5 -75t-42 -110.5t-12.5 -142.5z" />
<glyph unicode="r" horiz-adv-x="757" d="M51 952l187 74l38 -55q44 -74 60 -158q78 221 295 221q38 0 88 -12l39 -10l-66 -230q-5 1 -14 5.5t-12 5.5q-32 12 -74 12q-76 0 -135.5 -66.5t-69.5 -173.5v-565h-235v516q0 199 -52 340q-20 56 -49 96z" />
<glyph unicode="s" horiz-adv-x="843" d="M49 78l76 174q51 -29 94 -49q108 -49 174 -49q70 0 104.5 27.5t34.5 76.5q0 109 -149 168q-159 60 -227 135.5t-68 196.5q0 118 100 202t246 84q118 0 221 -40q53 -18 99 -39l-72 -162q-46 20 -80 33q-100 34 -160 34q-49 0 -81.5 -23.5t-32.5 -66.5q0 -115 170 -180 q69 -27 115.5 -53t84.5 -62.5t56 -86t18 -113.5q0 -124 -97 -214.5t-261 -90.5q-117 0 -250 49q-59 20 -115 49z" />
<glyph unicode="t" horiz-adv-x="741" d="M20 852v168h185l41 240l194 43v-283h252l-28 -168h-224v-602q0 -49 25 -66.5t67 -17.5q55 0 109 14q27 6 51 15l39 -156q-40 -18 -74 -25q-74 -22 -188 -22q-264 0 -264 231v629h-185z" />
<glyph unicode="u" horiz-adv-x="1124" d="M123 340v680h235v-674q0 -184 134 -184q96 0 174 102q71 94 72 231q0 12 -1 25v500h236v-526q0 -207 49 -340q19 -56 51 -97l-186 -73q-21 21 -43 57q-48 82 -60 168q-53 -113 -148.5 -167t-213.5 -54q-138 0 -213 75q-86 86 -86 277z" />
<glyph unicode="v" horiz-adv-x="1073" d="M123 340v680h235v-674q0 -190 134 -190q70 0 121 53t78 145.5t39.5 198.5t12.5 231q0 66 -12 160q-9 58 -10 76h240q2 -20 10 -66q10 -65 10 -145q0 -301 -61 -481.5t-181.5 -259t-316.5 -78.5q-137 0 -213 76q-86 86 -86 274z" />
<glyph unicode="w" horiz-adv-x="1579" d="M123 334v686h235v-668q0 -91 32.5 -143.5t101.5 -52.5q97 0 145.5 94.5t48.5 302.5v467h236q-2 -102 -2 -285q0 -87 -1 -223t-1 -160q0 -91 34 -143.5t103 -52.5q46 0 79.5 23t54.5 72.5t33.5 100t18 133.5t7 143t1.5 156q0 80 -12 166q-9 54 -10 70h239l11 -66 q10 -65 10 -145q0 -185 -16.5 -318t-51.5 -232t-94.5 -158t-142 -87t-197.5 -28q-138 0 -213 75q-37 37 -59 89q-37 -88 -103 -126t-188 -38q-138 0 -213 75q-86 86 -86 273z" />
<glyph unicode="x" horiz-adv-x="985" d="M-10 0l342 541l-299 479h272l129 -211q22 -37 74 -147q68 108 88 145q44 79 70 151l22 62h244l-25 -70q-33 -87 -86 -182q-68 -118 -168 -229l332 -539h-268l-152 264q-32 54 -78 148q-15 -27 -41 -78.5t-38 -71.5l-154 -262h-264z" />
<glyph unicode="y" horiz-adv-x="1101" d="M123 340v680h235v-672q0 -184 134 -184q39 0 79.5 21t75 57t58.5 91t30 118v569h242l-10 -604v-14q0 -80 30 -203q33 -134 33 -213q0 -223 -125 -334q-108 -97 -280 -97q-28 0 -58 3q-127 9 -225 47q-44 13 -98 37l59 178q71 -27 103 -38.5t76.5 -22.5t86.5 -15 q17 -2 33 -2q62 0 108 26q58 32 81 93q21 55 21 125v16q-3 80 -32 170l-6 16q-54 -103 -147 -151.5t-205 -48.5q-138 0 -213 75q-86 86 -86 277z" />
<glyph unicode="z" horiz-adv-x="856" d="M61 0v141l451 713q-105 -6 -205 -6h-201l-28 172h708v-141l-442 -713q88 6 180 6h281v-172h-744z" />
<glyph unicode="{" horiz-adv-x="747" d="M123 459v170q71 17 107 69t36 133q0 58 -14 197.5t-14 216.5q0 141 125 203t344 10l-48 -174q-45 16 -79.5 18t-54 -6t-32 -23t-16.5 -30t-4 -31q0 -64 13.5 -182.5t13.5 -169.5q0 -105 -34.5 -180.5t-135.5 -136.5q101 -61 135.5 -136.5t34.5 -179.5q0 -51 -13.5 -169.5 t-13.5 -182.5q0 -16 4 -31t16.5 -30t32 -23t54 -6t79.5 18l48 -174q-216 -55 -342.5 9t-126.5 204q0 77 14 216.5t14 197.5q0 81 -36 133.5t-107 69.5z" />
<glyph unicode="|" horiz-adv-x="634" d="M205 -258v1751h225v-1751h-225z" />
<glyph unicode="}" horiz-adv-x="747" d="M41 -371l47 174q58 -17 94.5 -18.5t57 16t27.5 35.5t7 39q0 64 -13 182.5t-13 169.5q0 103 34.5 180t133.5 136q-52 31 -87 68t-52 79t-23 81t-6 89q0 51 13 169.5t13 182.5q0 21 -7 39t-27.5 35.5t-57 16t-94.5 -18.5l-47 174q218 51 343.5 -10.5t125.5 -202.5 q0 -77 -14.5 -216t-14.5 -198q0 -167 144 -202v-170q-71 -17 -107.5 -69.5t-36.5 -133.5q0 -59 14.5 -198.5t14.5 -215.5q0 -140 -126.5 -204t-342.5 -9z" />
<glyph unicode="~" horiz-adv-x="1058" d="M102 631q23 45 62 84q82 86 192 86q54 0 103.5 -19t81.5 -42.5t75 -42.5t84 -19q58 0 89 19t81 75l86 -96q-28 -51 -63 -86q-84 -84 -193 -84q-53 0 -102.5 19t-81.5 42.5t-75 42.5t-85 19q-57 0 -87.5 -19t-80.5 -75z" />
<glyph unicode="&#xa1;" horiz-adv-x="653" d="M131 885q0 64 40 107.5t110 43.5q75 0 115 -44t40 -113t-39.5 -111.5t-109.5 -42.5q-75 0 -115.5 44.5t-40.5 115.5zM184 -373v936h205l60 -936h-265z" />
<glyph unicode="&#xa2;" horiz-adv-x="942" d="M113 485q0 230 105 366.5t278 162.5v176h161v-178q136 -24 213 -131l-133 -127q-49 49 -80 65v-643q68 12 97 21q13 5 47 14l57 -150q-27 -14 -55 -22q-61 -24 -146 -33v-242h-161v238q-383 35 -383 483zM360 516q0 -279 136 -330v641q-63 -20 -99.5 -89.5t-36.5 -221.5z " />
<glyph unicode="&#xa3;" horiz-adv-x="1153" d="M123 514v186h151l15 179q12 192 131 308t307 116q82 0 153 -18t98 -32t65 -38q5 -3 8 -5l-101 -180q-26 23 -57 39q-70 41 -152 41q-186 0 -206 -217l-21 -193h373l-31 -186h-362l-9 -80q-17 -146 -84 -252q80 13 148 13q40 0 115.5 -6.5t115.5 -6.5q63 0 127 23 q27 7 66 24l71 -174q-41 -21 -81 -35q-98 -32 -181 -32q-65 0 -164 12t-141 12q-133 0 -201 -8l-81 -8l-58 139q34 22 51 51q51 75 60 174l12 154h-137z" />
<glyph unicode="&#xa4;" horiz-adv-x="1206" d="M61 129l177 158q-93 122 -93 293q0 169 97 292l-176 160l141 142l170 -191q104 55 227 55q124 0 227 -53l170 189l142 -142l-178 -160q96 -122 96 -292q0 -169 -96 -291l180 -160l-141 -141l-173 190q-107 -55 -231 -55t-227 53l-170 -188zM322 590q0 -131 78.5 -221 t199.5 -90q127 0 206 83t79 211q0 132 -80 222t-205 90q-123 0 -200.5 -83t-77.5 -212z" />
<glyph unicode="&#xa5;" horiz-adv-x="1214" d="M61 1305h267l278 -562l285 562h262l-344 -607h168v-182h-252v-125h252v-182h-252v-209h-246v209h-246v182h246v125h-246v182h168z" />
<glyph unicode="&#xa6;" horiz-adv-x="634" d="M205 -258v766h225v-766h-225zM205 723v770h225v-770h-225z" />
<glyph unicode="&#xa7;" horiz-adv-x="1144" d="M102 502q0 63 21 116t57 89t71.5 59t74.5 39q-80 103 -80 209q0 130 95.5 216.5t250.5 86.5q78 0 180 -29q22 -7 80 -28l-72 -162q-34 15 -57 22q-81 23 -123 23q-115 0 -115 -107q0 -45 29 -88t75.5 -80t102.5 -75.5t112.5 -81.5t103 -91t75.5 -112t29 -135 q0 -63 -21.5 -116t-58.5 -89.5t-71 -59.5t-73 -40q80 -100 80 -207q0 -130 -95.5 -216.5t-250.5 -86.5q-86 0 -180 28q-24 7 -80 29l72 162q23 -13 57 -23q55 -22 123 -22q115 0 115 106q0 45 -29 88t-75.5 80t-102.5 75.5t-112.5 82t-103 91.5t-75.5 112t-29 135zM342 528 q0 -35 17 -69t53.5 -69t69.5 -61.5t88 -68t87 -67.5q115 41 115 153q0 29 -14.5 59.5t-34.5 55t-55.5 55.5t-64 52.5t-75 56t-73.5 55.5q-113 -42 -113 -152z" />
<glyph unicode="&#xa8;" d="M178 1290q0 62 33.5 98.5t97.5 36.5q59 0 92 -36t33 -93q0 -60 -33.5 -96.5t-97.5 -36.5q-58 0 -91.5 35.5t-33.5 91.5zM588 1290q0 62 33.5 98.5t97.5 36.5q59 0 92 -36t33 -93q0 -60 -33.5 -96.5t-97.5 -36.5q-58 0 -91.5 35.5t-33.5 91.5z" />
<glyph unicode="&#xa9;" horiz-adv-x="1601" d="M92 696q0 205 91.5 367t254.5 252t369 90q205 0 365.5 -90t248.5 -251.5t88 -367.5q0 -205 -91.5 -367t-254.5 -251.5t-370 -89.5q-205 0 -365 90t-248 251t-88 367zM268 709q0 -118 39.5 -223.5t109 -181.5t169 -120.5t213.5 -44.5q237 0 385.5 152t148.5 391 q0 159 -66.5 289t-189 206t-276.5 76q-235 0 -384 -152.5t-149 -391.5zM504 692q0 196 88.5 310t263.5 114q123 0 195 -80l-101 -110q-12 9 -30 18q-48 21 -80 21q-140 0 -140 -260q0 -117 38 -189t114 -72q47 0 85.5 9.5t51.5 17.5l45 -137q-31 -14 -59 -21 q-78 -20 -150 -20q-159 0 -240 101t-81 298z" />
<glyph unicode="&#xaa;" horiz-adv-x="821" d="M72 1038q0 161 94.5 264t247.5 103q64 0 180 -21l98 -18v-332q0 -132 33 -229q16 -44 35 -68l-137 -53q-17 14 -31 33q-33 48 -49 94q-52 -125 -201 -125q-135 0 -202.5 93.5t-67.5 258.5zM272 1051q0 -50 3 -86.5t12.5 -72.5t29 -54.5t48.5 -18.5q59 0 100 86t41 199 v160q-46 12 -76 12q-87 0 -122.5 -59t-35.5 -166z" />
<glyph unicode="&#xab;" horiz-adv-x="1163" d="M102 502q96 120 279 299q79 77 162 147l98 -112l-266 -334l266 -334l-98 -113q-73 63 -162 148q-183 179 -279 299zM553 502q100 125 278 299q79 77 162 147l99 -112l-267 -334l267 -334l-99 -113q-73 63 -162 148q-178 174 -278 299z" />
<glyph unicode="&#xac;" horiz-adv-x="1046" d="M102 629v182h842v-438h-178v256h-664z" />
<glyph unicode="&#xad;" horiz-adv-x="784" d="M102 567v172h580v-172h-580z" />
<glyph unicode="&#xae;" horiz-adv-x="1196" d="M123 930q0 209 134.5 342t344.5 133q209 0 340 -132.5t131 -342.5q0 -208 -135.5 -341.5t-343.5 -133.5q-209 0 -340 132.5t-131 342.5zM256 936q0 -154 96 -259.5t242 -105.5q151 0 246.5 97.5t95.5 251.5q0 155 -95.5 259.5t-246.5 104.5q-148 0 -243 -97.5t-95 -250.5 zM428 666v522h70q16 0 45 1t39 1q188 0 188 -146q0 -69 -80 -120q30 -10 50 -49.5t69 -167.5l-102 -37q-56 138 -70 162q-27 44 -70 52q-9 2 -20 3h-10v-221h-109zM537 950q19 0 47 4q46 10 59.5 26t13.5 56q0 88 -90 88h-30v-174z" />
<glyph unicode="&#xaf;" d="M182 1227v172h662v-172h-662z" />
<glyph unicode="&#xb0;" horiz-adv-x="634" d="M82 1237q0 105 66.5 172.5t170.5 67.5t169 -67.5t65 -172.5q0 -104 -67 -172t-171 -68t-168.5 67.5t-64.5 172.5zM213 1239q0 -55 27.5 -89t76.5 -34q51 0 79 32t28 89q0 55 -28.5 88t-78.5 33t-77 -31t-27 -88z" />
<glyph unicode="&#xb1;" horiz-adv-x="1050" d="M123 66v182h305v278h-303v183h303v311h195v-311h305v-183h-305v-278h303v-182h-803z" />
<glyph unicode="&#xb2;" horiz-adv-x="649" d="M72 1325q73 39 131 59.5t123 20.5q108 0 167.5 -48t59.5 -145q0 -74 -44.5 -145t-135.5 -166q-29 -29 -82 -67h276v-146h-493v146q23 17 49 40q26 21 102 97q81 90 110.5 134.5t29.5 88.5q0 70 -56 70q-42 0 -114 -35q-51 -28 -58 -33z" />
<glyph unicode="&#xb3;" horiz-adv-x="671" d="M72 743l53 127l57 -28q64 -27 119 -27q41 0 69.5 24t28.5 72q0 39 -19 63.5t-54 24.5q-26 0 -80 -6l-31 -6l-43 107q15 4 48.5 12t53.5 14.5t44 18t35.5 29t11.5 42.5q0 24 -13.5 39t-36.5 15q-53 0 -165 -52l-62 131q134 62 246 62q102 0 158.5 -46.5t56.5 -123.5 q0 -92 -92 -150q59 -25 91 -69.5t32 -102.5q0 -48 -14.5 -89t-45 -75.5t-85 -54.5t-128.5 -20q-107 0 -235 69z" />
<glyph unicode="&#xb4;" d="M260 1210l348 389l158 -147q-105 -127 -264 -250q-51 -38 -142 -98z" />
<glyph unicode="&#xb5;" horiz-adv-x="1134" d="M133 -455v1475h236v-690q4 -77 48.5 -122.5t114.5 -45.5q84 0 146.5 81.5t69.5 213.5v563h235v-526q0 -207 49 -340q19 -56 51 -97l-186 -73q-19 19 -39 49q-40 57 -59 143q-77 -188 -267 -188q-93 0 -163 49v-449z" />
<glyph unicode="&#xb6;" horiz-adv-x="1183" d="M123 969q0 200 121 311t350 111v-848q-231 0 -351 113t-120 313zM580 -293q53 27 92 55.5t61.5 59t36 54t18.5 57t6 48.5t1 48v1357h245v-1333q0 -53 -7.5 -101t-18.5 -86t-31.5 -73t-38.5 -60.5t-47.5 -51.5t-51 -42.5t-56 -36.5t-56 -31t-57.5 -28z" />
<glyph unicode="&#xb7;" horiz-adv-x="509" d="M102 645q0 71 40.5 115.5t115.5 44.5q71 0 110.5 -42.5t39.5 -111.5t-40.5 -113t-115.5 -44q-70 0 -110 43.5t-40 107.5z" />
<glyph unicode="&#xb8;" d="M303 -412l33 111q84 -27 131 -27q102 0 102 64q0 43 -59 66.5t-129 23.5l45 180h135l-22 -102q83 -6 133.5 -48t50.5 -114q0 -53 -21 -91.5t-57.5 -59.5t-77 -30.5t-86.5 -9.5q-102 0 -178 37z" />
<glyph unicode="&#xb9;" horiz-adv-x="546" d="M20 1237q23 8 93 39q100 49 166 110h124v-698h-172v514q-58 -58 -139 -96z" />
<glyph unicode="&#xba;" horiz-adv-x="839" d="M92 1032q0 167 85.5 270t248.5 103q322 0 322 -356q0 -163 -86.5 -266t-247.5 -103q-322 0 -322 352zM293 1047q0 -51 5.5 -89.5t20 -72t42 -51t67.5 -17.5q67 0 93 57t26 164q0 51 -5.5 89.5t-20 72t-42 51t-67.5 17.5q-67 0 -93 -57t-26 -164z" />
<glyph unicode="&#xbb;" horiz-adv-x="1163" d="M72 168l266 334l-266 334l98 112q82 -70 162 -147q178 -174 278 -299q-100 -125 -278 -299q-89 -85 -162 -148zM522 168l266 334l-266 334l99 112q74 -63 161 -147q183 -179 279 -299q-96 -120 -279 -299q-97 -93 -161 -148z" />
<glyph unicode="&#xbc;" horiz-adv-x="1460" d="M10 1051q20 6 92 39q100 49 166 110h125v-719h-172v535q-58 -58 -139 -96zM285 0l561 1202h194l-561 -1202h-194zM836 188v82l184 447h170l-170 -400h137v189l172 41v-230h101l-21 -129h-80v-188h-172v188h-321z" />
<glyph unicode="&#xbd;" horiz-adv-x="1488" d="M10 1051q20 6 92 39q100 49 166 110h125v-708h-172v524q-58 -58 -139 -96zM285 0l561 1202h194l-561 -1202h-194zM911 637q73 39 131 59.5t123 20.5q108 0 168 -48t60 -145q0 -74 -44.5 -145t-136.5 -166q-33 -33 -82 -68h277v-145h-494v145q3 1 25 19t58 51.5t69 67.5 q80 89 109.5 134t29.5 89q0 69 -55 69q-45 0 -115 -34q-45 -25 -57 -33z" />
<glyph unicode="&#xbe;" horiz-adv-x="1613" d="M51 743l53 127l58 -28q64 -27 119 -27q41 0 69.5 24t28.5 72q0 38 -19.5 63t-54.5 25q-26 0 -80 -6l-30 -6l-43 107q15 4 48 12t53.5 14.5t44 18t35 29t11.5 42.5q0 24 -13 39t-36 15q-54 0 -166 -52l-61 131q134 62 245 62q102 0 158.5 -46.5t56.5 -123.5 q0 -92 -92 -150q59 -25 91 -69.5t32 -102.5q0 -103 -65 -171t-207 -68q-108 0 -236 69zM387 0l561 1202h195l-561 -1202h-195zM942 170v82l184 446h170l-170 -399h138v188l172 41v-229h100l-20 -129h-80v-170h-172v170h-322z" />
<glyph unicode="&#xbf;" horiz-adv-x="888" d="M51 -86q0 34 5.5 65.5t20 65.5t25 57t36.5 60t36.5 52t44 57.5t41.5 52.5q67 85 109 151t63 135l174 -47q0 -80 -30 -158t-72.5 -138.5t-85.5 -115.5t-73 -109.5t-30 -98.5q0 -72 43 -114t113 -42q22 0 42.5 3t35.5 6.5t39.5 13.5t37.5 16t48 22t53 25l80 -164 q-74 -33 -118 -50.5t-114 -34.5t-135 -17q-389 0 -389 307zM356 879q0 69 40.5 113t115.5 44q70 0 110 -43.5t40 -107.5q0 -71 -40.5 -115.5t-115.5 -44.5q-71 0 -110.5 42.5t-39.5 111.5z" />
<glyph unicode="&#xc0;" horiz-adv-x="1241" d="M-10 0l532 1386h197l532 -1386h-262l-127 362h-497l-129 -362h-246zM219 1735l111 168l463 -312l-60 -121q-104 30 -186 66q-202 84 -328 199zM430 545h369q-113 322 -183 567q-129 -407 -186 -567z" />
<glyph unicode="&#xc1;" horiz-adv-x="1241" d="M-10 0l532 1386h197l532 -1386h-262l-127 362h-497l-129 -362h-246zM430 545h369q-113 322 -183 567q-129 -407 -186 -567zM434 1591l463 312l111 -168q-126 -115 -328 -199q-82 -36 -186 -66z" />
<glyph unicode="&#xc2;" horiz-adv-x="1241" d="M-10 0l532 1386h197l532 -1386h-262l-127 362h-497l-129 -362h-246zM211 1581l405 324l406 -324l-90 -111q-38 17 -98 48q-112 59 -218 137q-113 -81 -219 -137q-53 -27 -96 -48zM430 545h369q-113 322 -183 567q-129 -407 -186 -567z" />
<glyph unicode="&#xc3;" horiz-adv-x="1241" d="M-10 0l532 1386h197l532 -1386h-262l-127 362h-497l-129 -362h-246zM281 1556v154q27 16 47 23q53 24 116 24q50 0 157 -20.5t157 -20.5q58 0 116 15q37 9 48 14v-154q-18 -13 -48 -24q-51 -23 -116 -23q-50 0 -157 20.5t-157 20.5q-44 0 -116 -14q-18 -7 -47 -15z M430 545h369q-113 322 -183 567q-129 -407 -186 -567z" />
<glyph unicode="&#xc4;" horiz-adv-x="1241" d="M-10 0l532 1386h197l532 -1386h-262l-127 362h-497l-129 -362h-246zM287 1657q0 62 33.5 98.5t97.5 36.5q59 0 92 -36t33 -93q0 -60 -33.5 -96.5t-97.5 -36.5q-58 0 -91.5 35.5t-33.5 91.5zM430 545h369q-113 322 -183 567q-129 -407 -186 -567zM696 1657q0 62 33.5 98.5 t97.5 36.5q59 0 92 -36t33 -93q0 -60 -33.5 -96.5t-97.5 -36.5q-58 0 -91.5 35.5t-33.5 91.5z" />
<glyph unicode="&#xc5;" horiz-adv-x="1241" d="M-10 0l506 1319q-80 60 -80 170q0 91 58 149t149 58q88 0 144 -58t56 -149q0 -106 -80 -166l508 -1323h-262l-127 362h-497l-129 -362h-246zM430 545h369q-113 322 -183 567q-129 -407 -186 -567zM530 1491q0 -42 18 -70.5t50 -34.5h41q34 6 52 33t18 70q0 47 -24 74.5 t-67 27.5q-88 0 -88 -100z" />
<glyph unicode="&#xc6;" horiz-adv-x="1796" d="M-10 0l839 1386h885v-186h-579v-385h477l-31 -186h-446v-443h610v-186h-852v362h-412l-207 -362h-284zM586 545h307v590q-15 -29 -58.5 -117t-72.5 -146t-72.5 -139.5t-79.5 -144.5z" />
<glyph unicode="&#xc7;" horiz-adv-x="1073" d="M96 676q0 164 37 296.5t110.5 229.5t189.5 150t267 53q203 0 332 -148l-127 -151q-51 56 -105 82t-124 26q-84 0 -146 -39.5t-98 -111t-53 -162.5t-17 -203q0 -114 16 -203.5t52.5 -163t103.5 -113.5t162 -40q35 0 71.5 4.5t68 12.5t54 14.5t43 14t21.5 7.5l58 -174 q-56 -21 -84 -28q-111 -32 -211 -39l-19 -86q83 -6 134 -48t51 -114q0 -53 -21 -91.5t-57.5 -59.5t-77 -30.5t-86.5 -9.5q-102 0 -178 37l33 111q84 -27 131 -27q102 0 102 64q0 43 -59 66.5t-129 23.5l41 166q-241 20 -363.5 194t-122.5 490z" />
<glyph unicode="&#xc8;" horiz-adv-x="1050" d="M143 0v1386h826v-186h-580v-385h477l-30 -186h-447v-443h610v-186h-856zM184 1735l111 168l463 -312l-60 -121q-104 30 -186 66q-202 84 -328 199z" />
<glyph unicode="&#xc9;" horiz-adv-x="1050" d="M143 0v1386h826v-186h-580v-385h477l-30 -186h-447v-443h610v-186h-856zM399 1591l463 312l111 -168q-126 -115 -328 -199q-82 -36 -186 -66z" />
<glyph unicode="&#xca;" horiz-adv-x="1050" d="M143 0v1386h826v-186h-580v-385h477l-30 -186h-447v-443h610v-186h-856zM176 1581l406 324l405 -324l-90 -111q-38 17 -98 48q-109 57 -217 137q-110 -79 -220 -137q-52 -27 -96 -48z" />
<glyph unicode="&#xcb;" horiz-adv-x="1050" d="M143 0v1386h826v-186h-580v-385h477l-30 -186h-447v-443h610v-186h-856zM193 1657q0 62 33.5 98.5t97.5 36.5q59 0 92 -36t33 -93q0 -59 -34 -96t-98 -37q-58 0 -91 35.5t-33 91.5zM602 1657q0 62 33.5 98.5t97.5 36.5q59 0 92 -36t33 -93q0 -60 -33.5 -96.5t-97.5 -36.5 q-58 0 -91.5 35.5t-33.5 91.5z" />
<glyph unicode="&#xcc;" horiz-adv-x="532" d="M-129 1735l111 168l462 -312l-59 -121q-104 30 -186 66q-202 84 -328 199zM143 0v1386h246v-1386h-246z" />
<glyph unicode="&#xcd;" horiz-adv-x="532" d="M86 1591l463 312l110 -168q-127 -116 -327 -199q-80 -35 -187 -66zM143 0v1386h246v-1386h-246z" />
<glyph unicode="&#xce;" horiz-adv-x="532" d="M-137 1581l405 324l406 -324l-90 -111q-46 21 -99 48q-109 57 -217 137q-113 -81 -219 -137q-53 -27 -96 -48zM143 0v1386h246v-1386h-246z" />
<glyph unicode="&#xcf;" horiz-adv-x="532" d="M-66 1657q0 62 34 98.5t98 36.5q58 0 91 -36t33 -93q0 -60 -33.5 -96.5t-97.5 -36.5q-58 0 -91.5 35.5t-33.5 91.5zM143 0v1386h246v-1386h-246zM344 1657q0 62 33.5 98.5t97.5 36.5q59 0 92 -36t33 -93q0 -60 -33.5 -96.5t-97.5 -36.5q-58 0 -91.5 35.5t-33.5 91.5z" />
<glyph unicode="&#xd0;" horiz-adv-x="1316" d="M0 621v182h143v583h41q68 0 133 3q38 0 118 1t112 1q346 0 514 -173t168 -516q0 -706 -709 -706q-164 0 -227 2q-70 0 -103 2h-47v621h-143zM389 182q31 -2 160 -2q213 0 313.5 124.5t100.5 375.5q0 526 -445 526q-36 0 -78 -1t-51 -1v-401h365v-182h-365v-439z" />
<glyph unicode="&#xd1;" horiz-adv-x="1351" d="M143 0v1391h193l479 -717q56 -82 166 -254q-12 176 -12 248l-6 718h245v-1388h-204l-465 725q-15 23 -77.5 123t-94.5 149q16 -176 16 -276l6 -719h-246zM354 1573v153q27 16 47 23q55 25 117 25q50 0 156.5 -20.5t156.5 -20.5q63 0 117 14q34 9 47 14v-153 q-22 -16 -47 -25q-49 -22 -117 -22q-50 0 -156.5 20.5t-156.5 20.5q-40 0 -117 -15q-6 -2 -47 -14z" />
<glyph unicode="&#xd2;" horiz-adv-x="1370" d="M92 676q0 163 36.5 295t109 229.5t190 151t270.5 53.5q298 0 439 -182t141 -518q0 -162 -36.5 -292t-109.5 -226t-189.5 -147.5t-270.5 -51.5q-580 0 -580 688zM285 1735l110 168l463 -312l-59 -121q-107 31 -187 66q-200 83 -327 199zM358 698q0 -90 8.5 -162t31.5 -141 t60.5 -115t99 -74t142.5 -28q312 0 312 506q0 89 -8.5 162t-31.5 143.5t-60.5 118t-99 77t-142.5 29.5q-312 0 -312 -516z" />
<glyph unicode="&#xd3;" horiz-adv-x="1370" d="M92 676q0 163 36.5 295t109 229.5t190 151t270.5 53.5q298 0 439 -182t141 -518q0 -162 -36.5 -292t-109.5 -226t-189.5 -147.5t-270.5 -51.5q-580 0 -580 688zM358 698q0 -90 8.5 -162t31.5 -141t60.5 -115t99 -74t142.5 -28q312 0 312 506q0 89 -8.5 162t-31.5 143.5 t-60.5 118t-99 77t-142.5 29.5q-312 0 -312 -516zM500 1591l463 312l110 -168q-126 -115 -328 -199q-82 -36 -186 -66z" />
<glyph unicode="&#xd4;" horiz-adv-x="1370" d="M92 676q0 163 36.5 295t109 229.5t190 151t270.5 53.5q298 0 439 -182t141 -518q0 -162 -36.5 -292t-109.5 -226t-189.5 -147.5t-270.5 -51.5q-580 0 -580 688zM276 1581l406 324l405 -324l-90 -111q-38 17 -98 48q-109 57 -217 137q-113 -81 -219 -137q-53 -27 -96 -48z M358 698q0 -90 8.5 -162t31.5 -141t60.5 -115t99 -74t142.5 -28q312 0 312 506q0 89 -8.5 162t-31.5 143.5t-60.5 118t-99 77t-142.5 29.5q-312 0 -312 -516z" />
<glyph unicode="&#xd5;" horiz-adv-x="1370" d="M92 676q0 163 36.5 295t109 229.5t190 151t270.5 53.5q298 0 439 -182t141 -518q0 -162 -36.5 -292t-109.5 -226t-189.5 -147.5t-270.5 -51.5q-580 0 -580 688zM346 1556v154q27 16 47 23q53 24 117 24q50 0 156.5 -20.5t156.5 -20.5q59 0 117 15q34 9 47 14v-154 q-19 -13 -47 -24q-51 -23 -117 -23q-50 0 -156.5 20.5t-156.5 20.5q-45 0 -117 -14q-18 -7 -47 -15zM358 698q0 -90 8.5 -162t31.5 -141t60.5 -115t99 -74t142.5 -28q312 0 312 506q0 89 -8.5 162t-31.5 143.5t-60.5 118t-99 77t-142.5 29.5q-312 0 -312 -516z" />
<glyph unicode="&#xd6;" horiz-adv-x="1370" d="M92 676q0 163 36.5 295t109 229.5t190 151t270.5 53.5q298 0 439 -182t141 -518q0 -162 -36.5 -292t-109.5 -226t-189.5 -147.5t-270.5 -51.5q-580 0 -580 688zM352 1657q0 62 33.5 98.5t97.5 36.5q59 0 92 -36t33 -93q0 -60 -33.5 -96.5t-97.5 -36.5q-58 0 -91.5 35.5 t-33.5 91.5zM358 698q0 -90 8.5 -162t31.5 -141t60.5 -115t99 -74t142.5 -28q312 0 312 506q0 89 -8.5 162t-31.5 143.5t-60.5 118t-99 77t-142.5 29.5q-312 0 -312 -516zM762 1657q0 62 33.5 98.5t97.5 36.5q59 0 92 -36t33 -93q0 -60 -33.5 -96.5t-97.5 -36.5 q-58 0 -91.5 35.5t-33.5 91.5z" />
<glyph unicode="&#xd7;" horiz-adv-x="1056" d="M123 348l274 275l-260 262l125 129l262 -264l269 268l135 -137l-266 -267l272 -272l-125 -129l-274 274l-277 -276z" />
<glyph unicode="&#xd8;" horiz-adv-x="1370" d="M92 676q0 163 36.5 295t109 229.5t190 151t270.5 53.5q88 0 148 -14l53 129l205 -82l-53 -133q227 -165 227 -600q0 -162 -36.5 -292t-109.5 -226t-189.5 -147.5t-270.5 -51.5q-82 0 -152 12l-51 -129l-203 82l51 129q-225 161 -225 594zM358 698q0 -243 60 -366l352 870 q-43 12 -100 12q-312 0 -312 -516zM598 188q52 -10 102 -10q312 0 312 506q0 252 -62 373z" />
<glyph unicode="&#xd9;" horiz-adv-x="1302" d="M123 512v874h244v-856q0 -352 297 -352q134 0 202 91.5t68 260.5v856h246v-874q0 -112 -28.5 -203t-90 -165t-169.5 -115t-255 -41q-140 0 -242.5 41t-160.5 115t-84.5 165t-26.5 203zM256 1735l111 168l462 -312l-59 -121q-104 30 -186 66q-202 84 -328 199z" />
<glyph unicode="&#xda;" horiz-adv-x="1302" d="M123 512v874h244v-856q0 -352 297 -352q134 0 202 91.5t68 260.5v856h246v-874q0 -112 -28.5 -203t-90 -165t-169.5 -115t-255 -41q-140 0 -242.5 41t-160.5 115t-84.5 165t-26.5 203zM471 1591l463 312l110 -168q-127 -116 -327 -199q-80 -35 -187 -66z" />
<glyph unicode="&#xdb;" horiz-adv-x="1302" d="M123 512v874h244v-856q0 -352 297 -352q134 0 202 91.5t68 260.5v856h246v-874q0 -112 -28.5 -203t-90 -165t-169.5 -115t-255 -41q-140 0 -242.5 41t-160.5 115t-84.5 165t-26.5 203zM248 1581l405 324l406 -324l-90 -111q-47 21 -99 48q-109 57 -217 137 q-113 -81 -219 -137q-52 -27 -96 -48z" />
<glyph unicode="&#xdc;" horiz-adv-x="1302" d="M123 512v874h244v-856q0 -352 297 -352q134 0 202 91.5t68 260.5v856h246v-874q0 -112 -28.5 -203t-90 -165t-169.5 -115t-255 -41q-140 0 -242.5 41t-160.5 115t-84.5 165t-26.5 203zM317 1657q0 62 34 98.5t98 36.5q58 0 91 -36t33 -93q0 -60 -33.5 -96.5t-97.5 -36.5 q-58 0 -91.5 35.5t-33.5 91.5zM727 1657q0 62 33.5 98.5t97.5 36.5q59 0 92 -36t33 -93q0 -60 -33.5 -96.5t-97.5 -36.5q-58 0 -91.5 35.5t-33.5 91.5z" />
<glyph unicode="&#xdd;" horiz-adv-x="1114" d="M0 1386h266l291 -624l295 624h262l-438 -866v-520h-246v530zM381 1591l463 312l110 -168q-127 -116 -327 -199q-80 -35 -187 -66z" />
<glyph unicode="&#xde;" horiz-adv-x="1099" d="M143 0v1386h246v-249q63 2 166 2q249 0 371.5 -108t122.5 -310q0 -200 -133 -315t-386 -115h-141v-291h-246zM389 473h156q121 0 179 65t58 175q0 50 -13 92.5t-41 79t-80 57.5t-124 21q-102 0 -135 -2v-488z" />
<glyph unicode="&#xdf;" horiz-adv-x="1185" d="M-10 -315q49 25 86 54.5t58.5 62.5t35 60.5t18.5 63t6 54t1 49.5v952q0 71 11 134.5t39 126t71 110t110.5 82t153.5 45.5q115 14 205.5 -4t144 -60t81 -97.5t27.5 -119.5q0 -65 -24 -117t-59 -83.5t-69.5 -58t-58.5 -55.5t-24 -61q0 -37 17.5 -69t46 -56t63 -49 t68.5 -55.5t62.5 -67t46 -92t17.5 -123.5q0 -145 -104.5 -235t-274.5 -90q-79 0 -180 37q-32 11 -80 38l70 156q39 -22 55 -27q61 -26 105 -26q170 0 170 131q0 38 -16.5 69.5t-43.5 55t-59 46.5t-64.5 51t-59.5 62t-43.5 86t-16.5 117q0 57 23 105.5t55 82.5t64.5 65 t55.5 67.5t23 75.5q0 47 -29 77.5t-70 40.5t-90 7q-184 -21 -184 -308v-944q0 -68 -11.5 -127t-28.5 -102t-47.5 -82.5t-56.5 -64.5t-67.5 -52.5t-68.5 -42.5t-72 -37z" />
<glyph unicode="&#xe0;" horiz-adv-x="1097" d="M72 496q0 235 137 387.5t352 152.5q87 0 258 -30q4 -1 137 -29v-483q0 -204 50 -340q19 -56 51 -97l-187 -73q-32 36 -47 63q-49 81 -57 186q-36 -125 -112 -185t-205 -60q-187 0 -282 135.5t-95 372.5zM266 1452l158 147l348 -389l-100 -106q-91 60 -142 98 q-166 128 -264 250zM326 516q0 -65 2.5 -111t12 -97t26 -82t47 -51.5t73.5 -20.5q64 0 119 58.5t85 150.5t30 192v293q-99 22 -133 22q-74 0 -126 -26t-81.5 -75t-42 -110.5t-12.5 -142.5z" />
<glyph unicode="&#xe1;" horiz-adv-x="1097" d="M72 496q0 235 137 387.5t352 152.5q87 0 258 -30q4 -1 137 -29v-483q0 -204 50 -340q19 -56 51 -97l-187 -73q-32 36 -47 63q-49 81 -57 186q-36 -125 -112 -185t-205 -60q-187 0 -282 135.5t-95 372.5zM326 516q0 -65 2.5 -111t12 -97t26 -82t47 -51.5t73.5 -20.5 q64 0 119 58.5t85 150.5t30 192v293q-99 22 -133 22q-74 0 -126 -26t-81.5 -75t-42 -110.5t-12.5 -142.5zM330 1210l348 389l158 -147q-103 -125 -265 -250q-59 -44 -141 -98z" />
<glyph unicode="&#xe2;" horiz-adv-x="1097" d="M72 496q0 235 137 387.5t352 152.5q87 0 258 -30q4 -1 137 -29v-483q0 -204 50 -340q19 -56 51 -97l-187 -73q-32 36 -47 63q-49 81 -57 186q-36 -125 -112 -185t-205 -60q-187 0 -282 135.5t-95 372.5zM164 1214l385 385l385 -385l-90 -110q-43 22 -90 55 q-138 98 -205 156q-65 -56 -207 -156q-53 -37 -88 -55zM326 516q0 -65 2.5 -111t12 -97t26 -82t47 -51.5t73.5 -20.5q64 0 119 58.5t85 150.5t30 192v293q-99 22 -133 22q-74 0 -126 -26t-81.5 -75t-42 -110.5t-12.5 -142.5z" />
<glyph unicode="&#xe3;" horiz-adv-x="1097" d="M72 496q0 235 137 387.5t352 152.5q87 0 258 -30q4 -1 137 -29v-483q0 -204 50 -340q19 -56 51 -97l-187 -73q-32 36 -47 63q-49 81 -57 186q-36 -125 -112 -185t-205 -60q-187 0 -282 135.5t-95 372.5zM217 1206v154q22 13 47 22q55 25 117 25q50 0 156.5 -20.5 t156.5 -20.5q63 0 117 14q29 7 47 15v-154q-19 -13 -47 -24q-51 -23 -117 -23q-50 0 -156.5 20.5t-156.5 20.5q-45 0 -117 -14q-18 -7 -47 -15zM326 516q0 -65 2.5 -111t12 -97t26 -82t47 -51.5t73.5 -20.5q64 0 119 58.5t85 150.5t30 192v293q-99 22 -133 22 q-74 0 -126 -26t-81.5 -75t-42 -110.5t-12.5 -142.5z" />
<glyph unicode="&#xe4;" horiz-adv-x="1097" d="M72 496q0 235 137 387.5t352 152.5q87 0 258 -30q4 -1 137 -29v-483q0 -204 50 -340q19 -56 51 -97l-187 -73q-32 36 -47 63q-49 81 -57 186q-36 -125 -112 -185t-205 -60q-187 0 -282 135.5t-95 372.5zM215 1329q0 62 33.5 98.5t97.5 36.5q59 0 92 -36t33 -93 q0 -60 -33.5 -96.5t-97.5 -36.5q-58 0 -91.5 35.5t-33.5 91.5zM326 516q0 -65 2.5 -111t12 -97t26 -82t47 -51.5t73.5 -20.5q64 0 119 58.5t85 150.5t30 192v293q-99 22 -133 22q-74 0 -126 -26t-81.5 -75t-42 -110.5t-12.5 -142.5zM625 1329q0 62 33.5 98.5t97.5 36.5 q59 0 92 -36t33 -93q0 -60 -33.5 -96.5t-97.5 -36.5q-58 0 -91.5 35.5t-33.5 91.5z" />
<glyph unicode="&#xe5;" horiz-adv-x="1097" d="M72 496q0 235 137 387.5t352 152.5q87 0 258 -30q4 -1 137 -29v-483q0 -204 50 -340q19 -56 51 -97l-187 -73q-32 36 -47 63q-49 81 -57 186q-36 -125 -112 -185t-205 -60q-187 0 -282 135.5t-95 372.5zM326 516q0 -65 2.5 -111t12 -97t26 -82t47 -51.5t73.5 -20.5 q64 0 119 58.5t85 150.5t30 192v293q-99 22 -133 22q-74 0 -126 -26t-81.5 -75t-42 -110.5t-12.5 -142.5zM344 1323q0 91 58 149t149 58q88 0 144.5 -58t56.5 -149q0 -88 -58.5 -147.5t-148.5 -59.5q-87 0 -144 59.5t-57 147.5zM459 1325q0 -48 23.5 -77t64.5 -29 q43 0 66.5 27.5t23.5 76.5q0 48 -24 75t-66 27q-88 0 -88 -100z" />
<glyph unicode="&#xe6;" horiz-adv-x="1556" d="M72 496q0 235 137 387.5t352 152.5q180 0 336 -71q116 79 277 79q174 0 258 -79.5t84 -210.5q0 -153 -161 -259t-425 -110q14 -107 64 -168t161 -61q83 0 191 34q39 11 100 37l61 -147q-47 -24 -114 -47q-135 -47 -271 -47q-272 0 -377 190q-39 -95 -110.5 -141.5 t-185.5 -46.5q-187 0 -282 135.5t-95 372.5zM326 516q0 -65 2.5 -111t12 -97t26 -82t47 -51.5t73.5 -20.5q67 0 120 51.5t83 140.5q-10 54 -10 139q0 204 84 338q-85 47 -176 47q-74 0 -126 -26t-81.5 -75t-42 -110.5t-12.5 -142.5zM924 535q92 2 163 23t111.5 53.5t61 69 t20.5 73.5q0 59 -34.5 94t-90.5 35q-218 0 -231 -348z" />
<glyph unicode="&#xe7;" horiz-adv-x="839" d="M72 485q0 262 132 410.5t337 148.5q178 0 278 -139l-133 -127q-25 29 -41.5 44t-44 27.5t-59.5 12.5q-30 0 -55 -5t-56.5 -26t-52.5 -56t-36 -101.5t-15 -157.5q0 -77 9.5 -137t27.5 -98t39 -64t48.5 -38.5t50.5 -17.5t50 -5q45 0 127 20q38 9 72 21l57 -150 q-39 -20 -80 -31q-63 -19 -145 -28l-19 -84q83 -6 134 -48t51 -114q0 -53 -21 -91.5t-57.5 -59.5t-77 -30.5t-86.5 -9.5q-102 0 -178 37l32 111q84 -27 132 -27q102 0 102 64q0 43 -59 66.5t-129 23.5l40 164q-192 21 -283 149.5t-91 345.5z" />
<glyph unicode="&#xe8;" horiz-adv-x="968" d="M72 485q0 266 137.5 412.5t355.5 146.5q174 0 258 -79.5t84 -210.5q0 -153 -160.5 -259t-424.5 -110q14 -107 64 -168t161 -61q82 0 190 34q42 12 101 37l61 -147q-45 -23 -115 -47q-135 -47 -270 -47q-117 0 -202.5 35t-137.5 102t-77 156.5t-25 205.5zM244 1452 l157 147l349 -389l-101 -106q-82 54 -141 98q-166 128 -264 250zM315 535q92 2 163.5 23t112 53.5t61 69t20.5 73.5q0 59 -34.5 94t-90.5 35q-219 0 -232 -348z" />
<glyph unicode="&#xe9;" horiz-adv-x="968" d="M72 485q0 266 137.5 412.5t355.5 146.5q174 0 258 -79.5t84 -210.5q0 -153 -160.5 -259t-424.5 -110q14 -107 64 -168t161 -61q82 0 190 34q42 12 101 37l61 -147q-45 -23 -115 -47q-135 -47 -270 -47q-117 0 -202.5 35t-137.5 102t-77 156.5t-25 205.5zM307 1210 l348 389l158 -147q-105 -127 -264 -250q-59 -44 -141 -98zM315 535q92 2 163.5 23t112 53.5t61 69t20.5 73.5q0 59 -34.5 94t-90.5 35q-219 0 -232 -348z" />
<glyph unicode="&#xea;" horiz-adv-x="968" d="M72 485q0 266 137.5 412.5t355.5 146.5q174 0 258 -79.5t84 -210.5q0 -153 -160.5 -259t-424.5 -110q14 -107 64 -168t161 -61q82 0 190 34q42 12 101 37l61 -147q-45 -23 -115 -47q-135 -47 -270 -47q-117 0 -202.5 35t-137.5 102t-77 156.5t-25 205.5zM141 1214 l385 385l385 -385l-90 -110q-43 22 -90 55q-138 98 -205 156q-65 -56 -207 -156q-53 -37 -88 -55zM315 535q92 2 163.5 23t112 53.5t61 69t20.5 73.5q0 59 -34.5 94t-90.5 35q-219 0 -232 -348z" />
<glyph unicode="&#xeb;" horiz-adv-x="968" d="M72 485q0 266 137.5 412.5t355.5 146.5q174 0 258 -79.5t84 -210.5q0 -153 -160.5 -259t-424.5 -110q14 -107 64 -168t161 -61q82 0 190 34q42 12 101 37l61 -147q-45 -23 -115 -47q-135 -47 -270 -47q-117 0 -202.5 35t-137.5 102t-77 156.5t-25 205.5zM193 1329 q0 62 33.5 98.5t97.5 36.5q59 0 92 -36t33 -93q0 -59 -34 -96t-98 -37q-58 0 -91 35.5t-33 91.5zM315 535q92 2 163.5 23t112 53.5t61 69t20.5 73.5q0 59 -34.5 94t-90.5 35q-219 0 -232 -348zM602 1329q0 62 33.5 98.5t97.5 36.5q59 0 92 -36t33 -93q0 -60 -33.5 -96.5 t-97.5 -36.5q-58 0 -91.5 35.5t-33.5 91.5z" />
<glyph unicode="&#xec;" horiz-adv-x="503" d="M-74 1460l164 139l287 -389l-101 -106q-56 46 -114 102q-127 117 -236 254zM102 223v797h236v-774q0 -46 13.5 -63t43.5 -17q25 0 35 2q13 0 19 2l24 -150q-11 -7 -37 -14q-44 -14 -110 -14q-107 0 -165.5 63t-58.5 168z" />
<glyph unicode="&#xed;" horiz-adv-x="503" d="M61 1210l287 389l164 -139q-121 -147 -236 -254q-58 -56 -114 -102zM102 223v797h236v-774q0 -46 13.5 -63t43.5 -17q25 0 35 2q13 0 19 2l24 -150q-11 -7 -37 -14q-44 -14 -110 -14q-107 0 -165.5 63t-58.5 168z" />
<glyph unicode="&#xee;" horiz-adv-x="503" d="M-131 1208l350 391l350 -391l-96 -104l-74 55q-76 56 -180 152q-116 -106 -180 -154q-60 -45 -74 -53zM102 223v797h236v-774q0 -46 13.5 -63t43.5 -17q25 0 35 2q13 0 19 2l24 -150q-11 -7 -37 -14q-44 -14 -110 -14q-107 0 -165.5 63t-58.5 168z" />
<glyph unicode="&#xef;" horiz-adv-x="503" d="M-72 1317q0 57 32.5 93t92.5 36q56 0 87.5 -34t31.5 -89q0 -56 -32.5 -91.5t-92.5 -35.5q-55 0 -87 34.5t-32 86.5zM102 223v797h236v-774q0 -46 13.5 -63t43.5 -17q25 0 35 2q13 0 19 2l24 -150q-11 -7 -37 -14q-44 -14 -110 -14q-107 0 -165.5 63t-58.5 168zM268 1317 q0 57 32.5 93t92.5 36q56 0 87.5 -34t31.5 -89q0 -56 -32.5 -91.5t-92.5 -35.5q-55 0 -87 34.5t-32 86.5z" />
<glyph unicode="&#xf0;" horiz-adv-x="1058" d="M72 489q0 145 49.5 257.5t152 179.5t244.5 67q109 0 193 -59q-33 93 -97 201l-229 -64l-41 160l154 33l-111 86l119 145q118 -69 213 -178l248 65l41 -157l-191 -41q170 -275 170 -672q0 -116 -29.5 -212.5t-86.5 -168.5t-146.5 -111.5t-204.5 -39.5t-201.5 37.5 t-140 106t-80 160t-26.5 205.5zM326 508q0 -354 215 -354q56 0 95.5 27t59.5 76.5t28.5 106t8.5 128.5q0 75 -9.5 131.5t-32.5 104.5t-66.5 73.5t-106.5 25.5q-57 0 -95.5 -23.5t-59 -69t-29 -99.5t-8.5 -127z" />
<glyph unicode="&#xf1;" horiz-adv-x="1124" d="M51 952l187 74q19 -19 41 -55q40 -69 59 -164q35 78 94 130.5t126.5 75.5t143.5 23q138 0 213 -75q86 -86 86 -277v-684h-235v662q0 188 -133 188q-98 0 -175.5 -98.5t-70.5 -251.5v-500h-235v516q0 199 -52 340q-20 56 -49 96zM322 1206v154q22 13 47 22q55 25 116 25 q50 0 157 -20.5t157 -20.5q62 0 116 14q31 8 48 15v-154q-18 -13 -48 -24q-51 -23 -116 -23q-50 0 -157 20.5t-157 20.5q-44 0 -116 -14q-18 -7 -47 -15z" />
<glyph unicode="&#xf2;" horiz-adv-x="1058" d="M72 500q0 158 50.5 278.5t157.5 193t259 72.5q229 0 338.5 -135t109.5 -387q0 -116 -29.5 -213.5t-86 -171.5t-147 -115.5t-204.5 -41.5q-228 0 -338 135.5t-110 384.5zM244 1452l157 147l349 -389l-101 -106q-82 54 -141 98q-166 128 -264 250zM326 520q0 -82 9.5 -144 t32.5 -114.5t66.5 -80t106.5 -27.5q57 0 95.5 25.5t59 75.5t29 109t8.5 138q0 83 -9.5 145t-32.5 115t-66.5 80.5t-106.5 27.5q-57 0 -95.5 -26t-59 -76t-29 -109.5t-8.5 -138.5z" />
<glyph unicode="&#xf3;" horiz-adv-x="1058" d="M72 500q0 158 50.5 278.5t157.5 193t259 72.5q229 0 338.5 -135t109.5 -387q0 -116 -29.5 -213.5t-86 -171.5t-147 -115.5t-204.5 -41.5q-228 0 -338 135.5t-110 384.5zM307 1210l348 389l158 -147q-105 -127 -264 -250q-59 -44 -141 -98zM326 520q0 -82 9.5 -144 t32.5 -114.5t66.5 -80t106.5 -27.5q57 0 95.5 25.5t59 75.5t29 109t8.5 138q0 83 -9.5 145t-32.5 115t-66.5 80.5t-106.5 27.5q-57 0 -95.5 -26t-59 -76t-29 -109.5t-8.5 -138.5z" />
<glyph unicode="&#xf4;" horiz-adv-x="1058" d="M72 500q0 158 50.5 278.5t157.5 193t259 72.5q229 0 338.5 -135t109.5 -387q0 -116 -29.5 -213.5t-86 -171.5t-147 -115.5t-204.5 -41.5q-228 0 -338 135.5t-110 384.5zM141 1214l385 385l385 -385l-90 -110q-43 22 -90 55q-138 98 -205 156q-65 -56 -207 -156 q-53 -37 -88 -55zM326 520q0 -82 9.5 -144t32.5 -114.5t66.5 -80t106.5 -27.5q57 0 95.5 25.5t59 75.5t29 109t8.5 138q0 83 -9.5 145t-32.5 115t-66.5 80.5t-106.5 27.5q-57 0 -95.5 -26t-59 -76t-29 -109.5t-8.5 -138.5z" />
<glyph unicode="&#xf5;" horiz-adv-x="1058" d="M72 500q0 158 50.5 278.5t157.5 193t259 72.5q229 0 338.5 -135t109.5 -387q0 -116 -29.5 -213.5t-86 -171.5t-147 -115.5t-204.5 -41.5q-228 0 -338 135.5t-110 384.5zM195 1206v154q22 13 47 22q55 25 116 25q50 0 157 -20.5t157 -20.5q62 0 116 14q31 8 48 15v-154 q-18 -13 -48 -24q-51 -23 -116 -23q-50 0 -157 20.5t-157 20.5q-44 0 -116 -14q-18 -7 -47 -15zM326 520q0 -82 9.5 -144t32.5 -114.5t66.5 -80t106.5 -27.5q57 0 95.5 25.5t59 75.5t29 109t8.5 138q0 83 -9.5 145t-32.5 115t-66.5 80.5t-106.5 27.5q-57 0 -95.5 -26 t-59 -76t-29 -109.5t-8.5 -138.5z" />
<glyph unicode="&#xf6;" horiz-adv-x="1058" d="M72 500q0 158 50.5 278.5t157.5 193t259 72.5q229 0 338.5 -135t109.5 -387q0 -116 -29.5 -213.5t-86 -171.5t-147 -115.5t-204.5 -41.5q-228 0 -338 135.5t-110 384.5zM193 1329q0 62 33.5 98.5t97.5 36.5q59 0 92 -36t33 -93q0 -59 -34 -96t-98 -37q-58 0 -91 35.5 t-33 91.5zM326 520q0 -82 9.5 -144t32.5 -114.5t66.5 -80t106.5 -27.5q57 0 95.5 25.5t59 75.5t29 109t8.5 138q0 83 -9.5 145t-32.5 115t-66.5 80.5t-106.5 27.5q-57 0 -95.5 -26t-59 -76t-29 -109.5t-8.5 -138.5zM602 1329q0 62 33.5 98.5t97.5 36.5q59 0 92 -36t33 -93 q0 -60 -33.5 -96.5t-97.5 -36.5q-58 0 -91.5 35.5t-33.5 91.5z" />
<glyph unicode="&#xf7;" horiz-adv-x="1046" d="M123 526v183h801v-183h-801zM397 272q0 56 33 92.5t92 36.5q56 0 87.5 -33.5t31.5 -88.5q0 -56 -32.5 -91.5t-92.5 -35.5q-55 0 -87 34.5t-32 85.5zM397 946q0 57 32.5 93t92.5 36q56 0 87.5 -34t31.5 -89q0 -56 -32.5 -91.5t-92.5 -35.5q-55 0 -87 34.5t-32 86.5z" />
<glyph unicode="&#xf8;" horiz-adv-x="1058" d="M72 500q0 158 50.5 278.5t157.5 193t259 72.5q74 0 143 -16l53 107l160 -74l-55 -115q147 -129 147 -424q0 -116 -29.5 -213.5t-86 -171.5t-147 -115.5t-204.5 -41.5q-70 0 -145 16l-51 -107l-160 72l55 115q-147 129 -147 424zM313 520q0 -162 15 -223l276 567 q-45 10 -86 10q-205 0 -205 -354zM455 158q31 -8 86 -8q204 0 204 352q0 166 -14 223z" />
<glyph unicode="&#xf9;" horiz-adv-x="1124" d="M123 340v680h235v-674q0 -184 134 -184q97 0 174.5 102.5t70.5 255.5v500h236v-526q0 -207 49 -340q19 -56 51 -97l-186 -73q-21 21 -43 57q-48 82 -60 168q-53 -113 -148.5 -167t-213.5 -54q-138 0 -213 75q-86 86 -86 277zM272 1452l158 147l348 -389l-100 -106 q-82 54 -141 98q-169 130 -265 250z" />
<glyph unicode="&#xfa;" horiz-adv-x="1124" d="M123 340v680h235v-674q0 -184 134 -184q97 0 174.5 102.5t70.5 255.5v500h236v-526q0 -207 49 -340q19 -56 51 -97l-186 -73q-21 21 -43 57q-48 82 -60 168q-53 -113 -148.5 -167t-213.5 -54q-138 0 -213 75q-86 86 -86 277zM336 1210l348 389l158 -147 q-105 -127 -264 -250q-51 -38 -142 -98z" />
<glyph unicode="&#xfb;" horiz-adv-x="1124" d="M123 340v680h235v-674q0 -184 134 -184q97 0 174.5 102.5t70.5 255.5v500h236v-526q0 -207 49 -340q19 -56 51 -97l-186 -73q-21 21 -43 57q-48 82 -60 168q-53 -113 -148.5 -167t-213.5 -54q-138 0 -213 75q-86 86 -86 277zM170 1214l385 385l385 -385l-90 -110 q-43 22 -90 55q-138 98 -205 156q-65 -56 -207 -156q-53 -37 -88 -55z" />
<glyph unicode="&#xfc;" horiz-adv-x="1124" d="M123 340v680h235v-674q0 -184 134 -184q97 0 174.5 102.5t70.5 255.5v500h236v-526q0 -207 49 -340q19 -56 51 -97l-186 -73q-21 21 -43 57q-48 82 -60 168q-53 -113 -148.5 -167t-213.5 -54q-138 0 -213 75q-86 86 -86 277zM221 1329q0 62 33.5 98.5t97.5 36.5 q59 0 92 -36t33 -93q0 -60 -33.5 -96.5t-97.5 -36.5q-58 0 -91.5 35.5t-33.5 91.5zM631 1329q0 62 33.5 98.5t97.5 36.5q59 0 92 -36t33 -93q0 -60 -33.5 -96.5t-97.5 -36.5q-58 0 -91.5 35.5t-33.5 91.5z" />
<glyph unicode="&#xfd;" horiz-adv-x="1101" d="M123 340v680h235v-672q0 -184 134 -184q39 0 79.5 21t75 57t58.5 91t30 118v569h242l-10 -604q-3 -83 30 -217t33 -213q0 -223 -125 -334.5t-338 -93.5q-127 9 -225 47q-44 13 -98 37l59 178q71 -27 103 -38.5t76.5 -22.5t86.5 -15q84 -8 141.5 24t80.5 93t20.5 141 t-31.5 170l-6 16q-54 -103 -147 -151.5t-205 -48.5q-138 0 -213 75q-86 86 -86 277zM330 1210l348 389l158 -147q-103 -125 -265 -250q-59 -44 -141 -98z" />
<glyph unicode="&#xfe;" horiz-adv-x="1089" d="M133 -453v1897l236 41v-588q80 139 272 139q187 0 282 -135.5t95 -372.5q0 -154 -61.5 -277t-174 -193t-254.5 -70q-49 0 -159 12v-412zM369 174q83 -20 133 -20q74 0 126 26t81.5 75t42 110.5t12.5 142.5q0 53 -2 92.5t-7.5 84t-16.5 75t-28.5 56.5t-44.5 39t-63 13 q-95 0 -161.5 -116t-71.5 -269v-309z" />
<glyph unicode="&#xff;" horiz-adv-x="1101" d="M123 340v680h235v-672q0 -184 134 -184q39 0 79.5 21t75 57t58.5 91t30 118v569h242l-10 -604q-3 -83 30 -217t33 -213q0 -223 -125 -334.5t-338 -93.5q-127 9 -225 47q-44 13 -98 37l59 178q71 -27 103 -38.5t76.5 -22.5t86.5 -15q84 -8 141.5 24t80.5 93t20.5 141 t-31.5 170l-6 16q-54 -103 -147 -151.5t-205 -48.5q-138 0 -213 75q-86 86 -86 277zM215 1329q0 62 33.5 98.5t97.5 36.5q59 0 92 -36t33 -93q0 -60 -33.5 -96.5t-97.5 -36.5q-58 0 -91.5 35.5t-33.5 91.5zM625 1329q0 62 33.5 98.5t97.5 36.5q59 0 92 -36t33 -93 q0 -60 -33.5 -96.5t-97.5 -36.5q-58 0 -91.5 35.5t-33.5 91.5z" />
<glyph unicode="&#x152;" horiz-adv-x="1751" d="M92 676q0 163 36.5 295t109 229.5t190 151t270.5 53.5q94 0 168 -19h803v-186h-579v-385h477l-31 -186h-446v-443h610v-186h-856q-118 -12 -172 -12q-580 0 -580 688zM358 698q0 -90 8.5 -162t31.5 -141t60.5 -115t99 -74t142.5 -28q42 0 144 12v998q-72 26 -174 26 q-312 0 -312 -516z" />
<glyph unicode="&#x153;" horiz-adv-x="1636" d="M72 500q0 158 50.5 278.5t157.5 193t259 72.5q220 0 338 -157q138 157 356 157q174 0 258 -79.5t84 -210.5q0 -153 -161 -259t-425 -110q14 -107 64 -168t161 -61q83 0 191 34q39 11 100 37l62 -147q-45 -23 -115 -47q-135 -47 -270 -47q-217 0 -334 143 q-126 -149 -328 -149q-228 0 -338 135.5t-110 384.5zM326 520q0 -82 9.5 -144t32.5 -114.5t66.5 -80t106.5 -27.5q57 0 95.5 25.5t59 75.5t29 109t8.5 138q0 83 -9.5 145t-32.5 115t-66.5 80.5t-106.5 27.5q-57 0 -95.5 -26t-59 -76t-29 -109.5t-8.5 -138.5zM983 535 q92 2 163 23t111.5 53.5t61 69t20.5 73.5q0 59 -34.5 94t-90.5 35q-218 0 -231 -348z" />
<glyph unicode="&#x178;" horiz-adv-x="1114" d="M0 1386h266l291 -624l295 624h262l-438 -866v-520h-246v530zM223 1657q0 62 33.5 98.5t97.5 36.5q59 0 92 -36t33 -93q0 -60 -33.5 -96.5t-97.5 -36.5q-58 0 -91.5 35.5t-33.5 91.5zM633 1657q0 62 33.5 98.5t97.5 36.5q59 0 92 -36t33 -93q0 -60 -33.5 -96.5 t-97.5 -36.5q-58 0 -91.5 35.5t-33.5 91.5z" />
<glyph unicode="&#x2c6;" d="M127 1214l385 385l385 -385l-90 -110q-43 22 -90 55q-138 98 -205 156q-65 -56 -207 -156q-53 -37 -88 -55z" />
<glyph unicode="&#x2dc;" d="M190 1206v154q20 12 48 22q55 25 116 25q50 0 157 -20.5t157 -20.5q62 0 116 14q29 7 47 15v-154q-19 -13 -47 -24q-51 -23 -116 -23q-50 0 -157 20.5t-157 20.5q-44 0 -116 -14q-14 -5 -48 -15z" />
<glyph unicode="&#x2000;" horiz-adv-x="952" />
<glyph unicode="&#x2001;" horiz-adv-x="1905" />
<glyph unicode="&#x2002;" horiz-adv-x="952" />
<glyph unicode="&#x2003;" horiz-adv-x="1905" />
<glyph unicode="&#x2004;" horiz-adv-x="635" />
<glyph unicode="&#x2005;" horiz-adv-x="476" />
<glyph unicode="&#x2006;" horiz-adv-x="317" />
<glyph unicode="&#x2007;" horiz-adv-x="317" />
<glyph unicode="&#x2008;" horiz-adv-x="238" />
<glyph unicode="&#x2009;" horiz-adv-x="381" />
<glyph unicode="&#x200a;" horiz-adv-x="105" />
<glyph unicode="&#x2010;" horiz-adv-x="784" d="M102 567v172h580v-172h-580z" />
<glyph unicode="&#x2011;" horiz-adv-x="784" d="M102 567v172h580v-172h-580z" />
<glyph unicode="&#x2012;" horiz-adv-x="784" d="M102 567v172h580v-172h-580z" />
<glyph unicode="&#x2013;" d="M0 567v172h1024v-172h-1024z" />
<glyph unicode="&#x2014;" horiz-adv-x="1429" d="M0 567v172h1430v-172h-1430z" />
<glyph unicode="&#x2018;" horiz-adv-x="473" d="M41 1040q0 154 79.5 264.5t203.5 174.5l88 -121q-53 -39 -85 -82.5t-42 -80.5t-8.5 -78.5t9.5 -71.5t17.5 -66t11.5 -55q-11 -11 -30 -19q-41 -18 -105 -18q-69 0 -104 41.5t-35 111.5z" />
<glyph unicode="&#x2019;" horiz-adv-x="473" d="M61 1012q62 47 95 97.5t37 99.5t-1 86.5t-18.5 84t-15.5 66.5q9 9 30 18q55 19 105 19q69 0 104 -41.5t35 -112.5q0 -154 -79 -264t-203 -174z" />
<glyph unicode="&#x201a;" horiz-adv-x="473" d="M61 -182q62 47 95 97.5t37 99.5t-1 86.5t-18.5 84t-15.5 66.5q9 9 30 18q55 19 105 19q69 0 104 -41.5t35 -112.5q0 -154 -79 -264t-203 -174z" />
<glyph unicode="&#x201c;" horiz-adv-x="882" d="M41 1040q0 154 79.5 264.5t203.5 174.5l88 -121q-53 -39 -85 -82.5t-42 -80.5t-8.5 -78.5t9.5 -71.5t17.5 -66t11.5 -55q-11 -11 -30 -19q-41 -18 -105 -18q-69 0 -104 41.5t-35 111.5zM451 1040q0 154 79.5 264.5t202.5 174.5l88 -121q-53 -39 -85 -82.5t-41.5 -80.5 t-8.5 -78.5t9.5 -71.5t18 -66t11.5 -55q-10 -10 -31 -19q-41 -18 -104 -18q-69 0 -104 41.5t-35 111.5z" />
<glyph unicode="&#x201d;" horiz-adv-x="882" d="M61 1018q62 47 95 97.5t37 99.5t-1 86.5t-18.5 84t-15.5 66.5q9 9 30 18q55 19 105 19q69 0 104 -41.5t35 -112.5q0 -154 -79 -264t-203 -174zM471 1018q62 47 95 97.5t37 99.5t-1.5 86.5t-19 84t-15.5 66.5q8 8 31 18q55 19 104 19q69 0 104.5 -42t35.5 -112 q0 -154 -79.5 -264t-203.5 -174z" />
<glyph unicode="&#x201e;" horiz-adv-x="882" d="M61 -182q62 47 95 97.5t37 99.5t-1 86.5t-18.5 84t-15.5 66.5q9 9 30 18q55 19 105 19q69 0 104 -41.5t35 -112.5q0 -154 -79 -264t-203 -174zM471 -182q62 47 95 97.5t37 99.5t-1.5 86.5t-19 84t-15.5 66.5q8 8 31 18q55 19 104 19q69 0 104.5 -42t35.5 -112 q0 -154 -79.5 -264t-203.5 -174z" />
<glyph unicode="&#x2022;" horiz-adv-x="643" d="M102 647q0 100 60 159.5t160 59.5t159.5 -59.5t59.5 -159.5t-59.5 -159.5t-159.5 -59.5t-160 59.5t-60 159.5z" />
<glyph unicode="&#x202f;" horiz-adv-x="381" />
<glyph unicode="&#x2039;" horiz-adv-x="712" d="M102 502q96 120 279 299q79 77 162 147l98 -112l-266 -334l266 -334l-98 -113q-73 63 -162 148q-183 179 -279 299z" />
<glyph unicode="&#x203a;" horiz-adv-x="712" d="M72 168l266 334l-266 334l98 112q82 -70 162 -147q178 -174 278 -299q-100 -125 -278 -299q-89 -85 -162 -148z" />
<glyph unicode="&#x205f;" horiz-adv-x="476" />
<glyph unicode="&#x20ac;" horiz-adv-x="1138" d="M72 379v182h98q-2 23 -2 72q0 35 2 53h-98v182h123q52 207 188.5 328t331.5 121q189 0 311 -139l-119 -148q-98 103 -215 103q-88 0 -150.5 -71t-92.5 -194h442l-31 -182h-436v-33q0 -71 4 -92h422l-31 -182h-354q75 -207 246 -207q33 0 67.5 4.5t63.5 12t50.5 14 t40.5 13t21 7.5l54 -170q-41 -17 -97 -33q-126 -32 -243 -32q-174 0 -297.5 100.5t-173.5 290.5h-125z" />
<glyph unicode="&#xe000;" d="M0 0v1024h1024v-1024h-1024z" />
</font>
</defs>
</svg>
